FiraSans-CondensedSemiLightItalic.ufo
<glyph name="exclam" format="2">
  <advance width="218"/>
  <unicode hex="0021"/>
  <outline>
    <contour>
      <point x="83" y="208" type="line"/>
      <point x="111" y="208" type="line"/>
      <point x="178" y="682" type="line"/>
      <point x="148" y="682" type="line"/>
    </contour>
    <component base="period" xOffset="25"/>
  </outline>
</glyph>
<glyph name="numbersign" format="2">
  <advance width="405"/>
  <unicode hex="0023"/>
  <outline>
    <contour>
      <point x="406" y="662" type="line"/>
      <point x="374" y="662" type="line"/>
      <point x="209" y="0" type="line"/>
      <point x="241" y="0" type="line"/>
    </contour>
    <contour>
      <point x="214" y="662" type="line"/>
      <point x="183" y="662" type="line"/>
      <point x="18" y="0" type="line"/>
      <point x="49" y="0" type="line"/>
    </contour>
    <contour>
      <point x="357" y="222" type="line"/>
      <point x="8" y="222" type="line"/>
      <point x="3" y="194" type="line"/>
      <point x="353" y="194" type="line"/>
    </contour>
    <contour>
      <point x="424" y="484" type="line"/>
      <point x="74" y="484" type="line"/>
      <point x="71" y="456" type="line"/>
      <point x="420" y="456" type="line"/>
    </contour>
  </outline>
</glyph>
<glyph name="dollar" format="2">
  <advance width="429"/>
  <unicode hex="0024"/>
  <outline>
    <contour>
      <point x="178" y="1" type="line"/>
      <point x="151" y="0" type="line"/>
      <point x="125" y="-147" type="line"/>
      <point x="151" y="-147" type="line"/>
    </contour>
    <contour>
      <point x="321" y="814" type="line"/>
      <point x="294" y="814" type="line"/>
      <point x="268" y="664" type="line"/>
      <point x="294" y="664" type="line"/>
    </contour>
    <contour>
      <point x="278" y="671" type="curve" smooth="yes"/>
      <point x="174" y="671"/>
      <point x="100" y="593"/>
      <point x="100" y="494" type="curve" smooth="yes"/>
      <point x="100" y="420"/>
      <point x="137" y="380"/>
      <point x="223" y="343" type="curve" smooth="yes"/>
      <point x="301" y="309"/>
      <point x="333" y="273"/>
      <point x="333" y="205" type="curve" smooth="yes"/>
      <point x="333" y="125"/>
      <point x="288" y="18"/>
      <point x="158" y="18" type="curve" smooth="yes"/>
      <point x="99" y="18"/>
      <point x="55" y="47"/>
      <point x="24" y="87" type="curve"/>
      <point x="3" y="70" type="line"/>
      <point x="38" y="23"/>
      <point x="90" y="-10"/>
      <point x="158" y="-10" type="curve" smooth="yes"/>
      <point x="307" y="-10"/>
      <point x="364" y="110"/>
      <point x="364" y="207" type="curve" smooth="yes"/>
      <point x="364" y="292"/>
      <point x="320" y="333"/>
      <point x="235" y="369" type="curve" smooth="yes"/>
      <point x="161" y="400"/>
      <point x="130" y="432"/>
      <point x="130" y="495" type="curve" smooth="yes"/>
      <point x="130" y="585"/>
      <point x="193" y="644"/>
      <point x="277" y="644" type="curve" smooth="yes"/>
      <point x="323" y="644"/>
      <point x="361" y="626"/>
      <point x="397" y="582" type="curve"/>
      <point x="418" y="600" type="line"/>
      <point x="381" y="643"/>
      <point x="340" y="671"/>
    </contour>
  </outline>
</glyph>
<glyph name="percent" format="2">
  <advance width="657"/>
  <unicode hex="0025"/>
  <outline>
    <contour>
      <point x="578" y="697" type="line"/>
      <point x="600" y="681" type="line"/>
      <point x="111" y="-18" type="line"/>
      <point x="88" y="-2" type="line"/>
    </contour>
    <contour>
      <point x="439" y="-10" type="curve" smooth="yes"/>
      <point x="535" y="-10"/>
      <point x="581" y="100"/>
      <point x="581" y="185" type="curve" smooth="yes"/>
      <point x="581" y="260"/>
      <point x="545" y="305"/>
      <point x="484" y="305" type="curve" smooth="yes"/>
      <point x="388" y="305"/>
      <point x="342" y="195"/>
      <point x="342" y="110" type="curve" smooth="yes"/>
      <point x="342" y="35"/>
      <point x="378" y="-10"/>
    </contour>
    <contour>
      <point x="440" y="16" type="curve" smooth="yes"/>
      <point x="391" y="16"/>
      <point x="372" y="55"/>
      <point x="372" y="107" type="curve" smooth="yes"/>
      <point x="372" y="172"/>
      <point x="401" y="279"/>
      <point x="484" y="279" type="curve" smooth="yes"/>
      <point x="533" y="279"/>
      <point x="552" y="240"/>
      <point x="552" y="188" type="curve" smooth="yes"/>
      <point x="552" y="123"/>
      <point x="523" y="16"/>
    </contour>
    <contour>
      <point x="193" y="359" type="curve" smooth="yes"/>
      <point x="289" y="359"/>
      <point x="335" y="469"/>
      <point x="335" y="554" type="curve" smooth="yes"/>
      <point x="335" y="629"/>
      <point x="299" y="674"/>
      <point x="238" y="674" type="curve" smooth="yes"/>
      <point x="142" y="674"/>
      <point x="96" y="564"/>
      <point x="96" y="479" type="curve" smooth="yes"/>
      <point x="96" y="404"/>
      <point x="132" y="359"/>
    </contour>
    <contour>
      <point x="194" y="385" type="curve" smooth="yes"/>
      <point x="145" y="385"/>
      <point x="126" y="424"/>
      <point x="126" y="476" type="curve" smooth="yes"/>
      <point x="126" y="541"/>
      <point x="155" y="648"/>
      <point x="238" y="648" type="curve" smooth="yes"/>
      <point x="287" y="648"/>
      <point x="306" y="609"/>
      <point x="306" y="557" type="curve" smooth="yes"/>
      <point x="306" y="492"/>
      <point x="277" y="385"/>
    </contour>
  </outline>
</glyph>
<glyph name="ampersand" format="2">
  <advance width="600"/>
  <unicode hex="0026"/>
  <outline>
    <contour>
      <point x="322" y="692" type="curve" smooth="yes"/>
      <point x="218" y="692"/>
      <point x="172" y="604"/>
      <point x="172" y="519" type="curve" smooth="yes"/>
      <point x="172" y="470"/>
      <point x="193" y="423"/>
      <point x="229" y="369" type="curve"/>
      <point x="106" y="296"/>
      <point x="74" y="225"/>
      <point x="74" y="141" type="curve" smooth="yes"/>
      <point x="74" y="54"/>
      <point x="128" y="-10"/>
      <point x="220" y="-10" type="curve" smooth="yes"/>
      <point x="299" y="-10"/>
      <point x="364" y="36"/>
      <point x="414" y="104" type="curve"/>
      <point x="491" y="-9" type="line"/>
      <point x="515" y="8" type="line"/>
      <point x="433" y="129" type="line"/>
      <point x="472" y="193"/>
      <point x="502" y="258"/>
      <point x="531" y="326" type="curve"/>
      <point x="506" y="337" type="line"/>
      <point x="479" y="272"/>
      <point x="453" y="215"/>
      <point x="416" y="149" type="curve"/>
      <point x="270" y="360" type="line"/>
      <point x="404" y="444"/>
      <point x="440" y="494"/>
      <point x="440" y="573" type="curve" smooth="yes"/>
      <point x="440" y="641"/>
      <point x="393" y="692"/>
    </contour>
    <contour>
      <point x="244" y="349" type="curve"/>
      <point x="397" y="125" type="line"/>
      <point x="350" y="57"/>
      <point x="290" y="18"/>
      <point x="220" y="18" type="curve" smooth="yes"/>
      <point x="146" y="18"/>
      <point x="105" y="74"/>
      <point x="105" y="141" type="curve" smooth="yes"/>
      <point x="105" y="217"/>
      <point x="132" y="283"/>
    </contour>
    <contour>
      <point x="322" y="665" type="curve" smooth="yes"/>
      <point x="372" y="665"/>
      <point x="409" y="630"/>
      <point x="409" y="573" type="curve" smooth="yes"/>
      <point x="409" y="504"/>
      <point x="384" y="461"/>
      <point x="254" y="381" type="curve"/>
      <point x="214" y="440"/>
      <point x="203" y="481"/>
      <point x="203" y="519" type="curve" smooth="yes"/>
      <point x="203" y="587"/>
      <point x="234" y="665"/>
    </contour>
  </outline>
</glyph>
<glyph name="parenleft" format="2">
  <advance width="265"/>
  <unicode hex="0028"/>
  <outline>
    <contour>
      <point x="274" y="832" type="line"/>
      <point x="129" y="630"/>
      <point x="54" y="470"/>
      <point x="54" y="215" type="curve" smooth="yes"/>
      <point x="54" y="69"/>
      <point x="93" y="-25"/>
      <point x="140" y="-130" type="curve"/>
      <point x="161" y="-120" type="line"/>
      <point x="118" y="-19"/>
      <point x="83" y="75"/>
      <point x="83" y="215" type="curve" smooth="yes"/>
      <point x="83" y="455"/>
      <point x="154" y="620"/>
      <point x="292" y="818" type="curve"/>
    </contour>
  </outline>
</glyph>
<glyph name="parenright" format="2">
  <advance width="265"/>
  <unicode hex="0029"/>
  <outline>
    <contour>
      <point x="151" y="830" type="curve"/>
      <point x="130" y="820" type="line"/>
      <point x="172" y="719"/>
      <point x="207" y="626"/>
      <point x="207" y="487" type="curve" smooth="yes"/>
      <point x="207" y="245"/>
      <point x="136" y="81"/>
      <point x="-2" y="-118" type="curve"/>
      <point x="16" y="-132" type="line"/>
      <point x="160" y="69"/>
      <point x="237" y="234"/>
      <point x="237" y="487" type="curve" smooth="yes"/>
      <point x="237" y="631"/>
      <point x="197" y="725"/>
    </contour>
  </outline>
</glyph>
<glyph name="asterisk" format="2">
  <advance width="372"/>
  <unicode hex="002A"/>
  <outline>
    <contour>
      <point x="227" y="559" type="line"/>
      <point x="223" y="542" type="line"/>
      <point x="280" y="408" type="line"/>
      <point x="306" y="421" type="line"/>
      <point x="242" y="557" type="line"/>
    </contour>
    <contour>
      <point x="267" y="734" type="line"/>
      <point x="237" y="734" type="line"/>
      <point x="217" y="570" type="line"/>
      <point x="227" y="559" type="line"/>
      <point x="240" y="569" type="line"/>
    </contour>
    <contour>
      <point x="370" y="621" type="line"/>
      <point x="236" y="570" type="line"/>
      <point x="227" y="559" type="line"/>
      <point x="240" y="550" type="line"/>
      <point x="378" y="596" type="line"/>
    </contour>
    <contour>
      <point x="101" y="623" type="line"/>
      <point x="89" y="599" type="line"/>
      <point x="212" y="551" type="line"/>
      <point x="227" y="559" type="line"/>
      <point x="220" y="571" type="line"/>
    </contour>
    <contour>
      <point x="227" y="559" type="line"/>
      <point x="210" y="555" type="line"/>
      <point x="110" y="424" type="line"/>
      <point x="133" y="408" type="line"/>
      <point x="228" y="542" type="line"/>
    </contour>
  </outline>
</glyph>
<glyph name="plus" format="2">
  <advance width="412"/>
  <unicode hex="002B"/>
  <outline>
    <contour>
      <point x="256" y="499" type="line"/>
      <point x="226" y="499" type="line"/>
      <point x="204" y="345" type="line"/>
      <point x="78" y="345" type="line"/>
      <point x="74" y="316" type="line"/>
      <point x="199" y="316" type="line"/>
      <point x="177" y="162" type="line"/>
      <point x="208" y="162" type="line"/>
      <point x="229" y="316" type="line"/>
      <point x="354" y="316" type="line"/>
      <point x="358" y="345" type="line"/>
      <point x="234" y="345" type="line"/>
    </contour>
  </outline>
</glyph>
<glyph name="comma" format="2">
  <advance width="167"/>
  <unicode hex="002C"/>
  <outline>
    <contour>
      <point x="51" y="48" type="curve" smooth="yes"/>
      <point x="34" y="48"/>
      <point x="21" y="35"/>
      <point x="21" y="17" type="curve" smooth="yes"/>
      <point x="21" y="6"/>
      <point x="26" y="-2"/>
      <point x="34" y="-7" type="curve"/>
      <point x="-18" y="-139" type="line"/>
      <point x="4" y="-139" type="line"/>
      <point x="62" y="-23" type="line" smooth="yes"/>
      <point x="73" y="-2"/>
      <point x="78" y="9"/>
      <point x="78" y="21" type="curve" smooth="yes"/>
      <point x="78" y="37"/>
      <point x="67" y="48"/>
    </contour>
  </outline>
</glyph>
<glyph name="period" format="2">
  <advance width="168"/>
  <unicode hex="002E"/>
  <outline>
    <contour>
      <point x="48" y="-10" type="curve"/>
      <point x="67" y="-10"/>
      <point x="79" y="5"/>
      <point x="79" y="22" type="curve" smooth="yes"/>
      <point x="79" y="36"/>
      <point x="69" y="48"/>
      <point x="52" y="48" type="curve"/>
      <point x="33" y="48"/>
      <point x="21" y="33"/>
      <point x="21" y="16" type="curve" smooth="yes"/>
      <point x="21" y="2"/>
      <point x="31" y="-10"/>
    </contour>
  </outline>
</glyph>
<glyph name="slash" format="2">
  <advance width="437"/>
  <unicode hex="002F"/>
  <outline>
    <contour>
      <point x="377" y="799" type="line"/>
      <point x="62" y="-89" type="line"/>
      <point x="86" y="-96" type="line"/>
      <point x="401" y="792" type="line"/>
    </contour>
  </outline>
</glyph>
<glyph name="zero" format="2">
  <advance width="470"/>
  <unicode hex="0030"/>
  <outline>
    <contour>
      <point x="300" y="674" type="curve"/>
      <point x="382" y="674"/>
      <point x="424" y="608"/>
      <point x="424" y="477" type="curve" smooth="yes"/>
      <point x="424" y="280"/>
      <point x="354" y="-10"/>
      <point x="190" y="-10" type="curve"/>
      <point x="108" y="-10"/>
      <point x="66" y="56"/>
      <point x="66" y="187" type="curve" smooth="yes"/>
      <point x="66" y="384"/>
      <point x="136" y="674"/>
    </contour>
    <contour>
      <point x="299" y="646" type="curve"/>
      <point x="165" y="646"/>
      <point x="97" y="376"/>
      <point x="97" y="187" type="curve" smooth="yes"/>
      <point x="97" y="72"/>
      <point x="127" y="18"/>
      <point x="191" y="18" type="curve"/>
      <point x="325" y="18"/>
      <point x="393" y="288"/>
      <point x="393" y="477" type="curve" smooth="yes"/>
      <point x="393" y="592"/>
      <point x="363" y="646"/>
    </contour>
  </outline>
</glyph>
<glyph name="one" format="2">
  <advance width="334"/>
  <unicode hex="0031"/>
  <outline>
    <contour>
      <point x="275" y="662" type="line"/>
      <point x="251" y="662" type="line"/>
      <point x="75" y="542" type="line"/>
      <point x="88" y="519" type="line"/>
      <point x="239" y="625" type="line"/>
      <point x="152" y="0" type="line"/>
      <point x="182" y="0" type="line"/>
    </contour>
  </outline>
</glyph>
<glyph name="two" format="2">
  <advance width="384"/>
  <unicode hex="0032"/>
  <outline>
    <contour>
      <point x="221" y="674" type="curve" smooth="yes"/>
      <point x="165" y="674"/>
      <point x="117" y="648"/>
      <point x="65" y="586" type="curve"/>
      <point x="85" y="569" type="line"/>
      <point x="124" y="615"/>
      <point x="165" y="647"/>
      <point x="220" y="647" type="curve" smooth="yes"/>
      <point x="283" y="647"/>
      <point x="319" y="604"/>
      <point x="319" y="530" type="curve" smooth="yes"/>
      <point x="319" y="427"/>
      <point x="291" y="365"/>
      <point x="-6" y="30" type="curve"/>
      <point x="-11" y="0" type="line"/>
      <point x="285" y="0" type="line"/>
      <point x="296" y="30" type="line"/>
      <point x="29" y="29" type="line"/>
      <point x="305" y="343"/>
      <point x="350" y="417"/>
      <point x="350" y="531" type="curve" smooth="yes"/>
      <point x="350" y="617"/>
      <point x="302" y="674"/>
    </contour>
  </outline>
</glyph>
<glyph name="three" format="2">
  <advance width="407"/>
  <unicode hex="0033"/>
  <outline>
    <contour>
      <point x="248" y="674" type="curve" smooth="yes"/>
      <point x="192" y="674"/>
      <point x="145" y="648"/>
      <point x="96" y="601" type="curve"/>
      <point x="113" y="582" type="line"/>
      <point x="160" y="627"/>
      <point x="200" y="648"/>
      <point x="248" y="648" type="curve" smooth="yes"/>
      <point x="307" y="648"/>
      <point x="340" y="609"/>
      <point x="340" y="542" type="curve" smooth="yes"/>
      <point x="340" y="459"/>
      <point x="290" y="365"/>
      <point x="188" y="365" type="curve" smooth="yes"/>
      <point x="166" y="365" type="line"/>
      <point x="157" y="338" type="line"/>
      <point x="191" y="338" type="line" smooth="yes"/>
      <point x="257" y="338"/>
      <point x="298" y="303"/>
      <point x="298" y="221" type="curve" smooth="yes"/>
      <point x="298" y="137"/>
      <point x="257" y="18"/>
      <point x="128" y="18" type="curve" smooth="yes"/>
      <point x="79" y="18"/>
      <point x="44" y="36"/>
      <point x="13" y="89" type="curve"/>
      <point x="-10" y="74" type="line"/>
      <point x="21" y="20"/>
      <point x="63" y="-10"/>
      <point x="127" y="-10" type="curve" smooth="yes"/>
      <point x="272" y="-10"/>
      <point x="329" y="117"/>
      <point x="329" y="220" type="curve" smooth="yes"/>
      <point x="329" y="308"/>
      <point x="288" y="347"/>
      <point x="228" y="353" type="curve"/>
      <point x="316" y="365"/>
      <point x="371" y="444"/>
      <point x="371" y="542" type="curve" smooth="yes"/>
      <point x="371" y="622"/>
      <point x="327" y="674"/>
    </contour>
  </outline>
</glyph>
<glyph name="four" format="2">
  <advance width="418"/>
  <unicode hex="0034"/>
  <outline>
    <contour>
      <point x="264" y="674" type="line"/>
      <point x="33" y="208" type="line"/>
      <point x="29" y="183" type="line"/>
      <point x="375" y="183" type="line"/>
      <point x="379" y="211" type="line"/>
      <point x="64" y="211" type="line"/>
      <point x="288" y="663" type="line"/>
    </contour>
    <contour>
      <point x="333" y="418" type="line"/>
      <point x="307" y="418" type="line"/>
      <point x="273" y="204" type="line"/>
      <point x="244" y="0" type="line"/>
      <point x="274" y="0" type="line"/>
    </contour>
  </outline>
</glyph>
<glyph name="five" format="2">
  <advance width="392"/>
  <unicode hex="0035"/>
  <outline>
    <contour>
      <point x="392" y="662" type="line"/>
      <point x="132" y="662" type="line"/>
      <point x="88" y="351" type="line"/>
      <point x="113" y="351" type="line"/>
      <point x="150" y="377"/>
      <point x="177" y="390"/>
      <point x="219" y="390" type="curve" smooth="yes"/>
      <point x="278" y="390"/>
      <point x="316" y="341"/>
      <point x="316" y="258" type="curve" smooth="yes"/>
      <point x="316" y="158"/>
      <point x="267" y="18"/>
      <point x="140" y="18" type="curve" smooth="yes"/>
      <point x="84" y="18"/>
      <point x="52" y="41"/>
      <point x="24" y="84" type="curve"/>
      <point x="1" y="67" type="line"/>
      <point x="31" y="20"/>
      <point x="72" y="-10"/>
      <point x="138" y="-10" type="curve" smooth="yes"/>
      <point x="288" y="-10"/>
      <point x="347" y="147"/>
      <point x="347" y="260" type="curve" smooth="yes"/>
      <point x="347" y="354"/>
      <point x="302" y="417"/>
      <point x="223" y="417" type="curve" smooth="yes"/>
      <point x="181" y="417"/>
      <point x="149" y="400"/>
      <point x="122" y="381" type="curve"/>
      <point x="157" y="634" type="line"/>
      <point x="383" y="634" type="line"/>
    </contour>
  </outline>
</glyph>
<glyph name="six" format="2">
  <advance width="441"/>
  <unicode hex="0036"/>
  <outline>
    <contour>
      <point x="329" y="674" type="curve"/>
      <point x="166" y="674"/>
      <point x="63" y="397"/>
      <point x="63" y="177" type="curve" smooth="yes"/>
      <point x="63" y="69"/>
      <point x="98" y="-10"/>
      <point x="193" y="-10" type="curve" smooth="yes"/>
      <point x="328" y="-10"/>
      <point x="388" y="158"/>
      <point x="388" y="281" type="curve" smooth="yes"/>
      <point x="388" y="380"/>
      <point x="338" y="428"/>
      <point x="267" y="428" type="curve" smooth="yes"/>
      <point x="204" y="428"/>
      <point x="144" y="382"/>
      <point x="101" y="311" type="curve"/>
      <point x="95" y="264" type="line"/>
      <point x="145" y="347"/>
      <point x="204" y="401"/>
      <point x="265" y="401" type="curve" smooth="yes"/>
      <point x="321" y="401"/>
      <point x="357" y="361"/>
      <point x="357" y="280" type="curve" smooth="yes"/>
      <point x="357" y="180"/>
      <point x="312" y="18"/>
      <point x="193" y="18" type="curve" smooth="yes"/>
      <point x="122" y="18"/>
      <point x="94" y="76"/>
      <point x="94" y="177" type="curve" smooth="yes"/>
      <point x="94" y="211"/>
      <point x="96" y="246"/>
      <point x="102" y="291" type="curve"/>
      <point x="104" y="306" type="line"/>
      <point x="138" y="498"/>
      <point x="224" y="647"/>
      <point x="329" y="647" type="curve" smooth="yes"/>
      <point x="360" y="647"/>
      <point x="381" y="635"/>
      <point x="402" y="616" type="curve"/>
      <point x="420" y="636" type="line"/>
      <point x="397" y="659"/>
      <point x="368" y="674"/>
    </contour>
  </outline>
</glyph>
<glyph name="seven" format="2">
  <advance width="356"/>
  <unicode hex="0037"/>
  <outline>
    <contour>
      <point x="382" y="662" type="line"/>
      <point x="87" y="662" type="line"/>
      <point x="83" y="634" type="line"/>
      <point x="344" y="632" type="line"/>
      <point x="41" y="2" type="line"/>
      <point x="68" y="-6" type="line"/>
      <point x="378" y="637" type="line"/>
    </contour>
  </outline>
</glyph>
<glyph name="nine" format="2">
  <advance width="432"/>
  <unicode hex="0039"/>
  <outline>
    <contour>
      <point x="363" y="364" type="curve"/>
      <point x="365" y="402" type="line"/>
      <point x="311" y="325"/>
      <point x="257" y="281"/>
      <point x="196" y="281" type="curve" smooth="yes"/>
      <point x="139" y="281"/>
      <point x="105" y="327"/>
      <point x="105" y="411" type="curve" smooth="yes"/>
      <point x="105" y="509"/>
      <point x="154" y="647"/>
      <point x="267" y="647" type="curve" smooth="yes"/>
      <point x="339" y="647"/>
      <point x="367" y="592"/>
      <point x="367" y="502" type="curve" smooth="yes"/>
      <point x="367" y="461"/>
      <point x="365" y="432"/>
      <point x="360" y="391" type="curve"/>
      <point x="358" y="368" type="line"/>
      <point x="317" y="160"/>
      <point x="209" y="66"/>
      <point x="45" y="6" type="curve"/>
      <point x="52" y="-17" type="line"/>
      <point x="348" y="77"/>
      <point x="397" y="315"/>
      <point x="397" y="502" type="curve" smooth="yes"/>
      <point x="397" y="608"/>
      <point x="357" y="674"/>
      <point x="268" y="674" type="curve" smooth="yes"/>
      <point x="140" y="674"/>
      <point x="75" y="528"/>
      <point x="75" y="412" type="curve" smooth="yes"/>
      <point x="75" y="312"/>
      <point x="121" y="253"/>
      <point x="194" y="253" type="curve" smooth="yes"/>
      <point x="257" y="253"/>
      <point x="312" y="292"/>
    </contour>
  </outline>
</glyph>
<glyph name="less" format="2">
  <advance width="420"/>
  <unicode hex="003C"/>
  <outline>
    <contour>
      <point x="376" y="510" type="line"/>
      <point x="77" y="340" type="line"/>
      <point x="73" y="318" type="line"/>
      <point x="325" y="152" type="line"/>
      <point x="343" y="176" type="line"/>
      <point x="106" y="327" type="line"/>
      <point x="386" y="486" type="line"/>
    </contour>
  </outline>
</glyph>
<glyph name="greater" format="2">
  <advance width="420"/>
  <unicode hex="003E"/>
  <outline>
    <contour>
      <point x="115" y="510" type="line"/>
      <point x="97" y="486" type="line"/>
      <point x="334" y="335" type="line"/>
      <point x="54" y="176" type="line"/>
      <point x="64" y="152" type="line"/>
      <point x="363" y="322" type="line"/>
      <point x="367" y="344" type="line"/>
    </contour>
  </outline>
</glyph>
<glyph name="question" format="2">
  <advance width="372"/>
  <unicode hex="003F"/>
  <outline>
    <contour>
      <point x="253" y="692" type="curve" smooth="yes"/>
      <point x="193" y="692"/>
      <point x="145" y="665"/>
      <point x="94" y="606" type="curve"/>
      <point x="113" y="589" type="line"/>
      <point x="159" y="639"/>
      <point x="198" y="665"/>
      <point x="252" y="665" type="curve" smooth="yes"/>
      <point x="309" y="665"/>
      <point x="339" y="631"/>
      <point x="339" y="576" type="curve" smooth="yes"/>
      <point x="339" y="420"/>
      <point x="145" y="420"/>
      <point x="145" y="267" type="curve" smooth="yes"/>
      <point x="145" y="251"/>
      <point x="148" y="232"/>
      <point x="152" y="214" type="curve"/>
      <point x="179" y="221" type="line"/>
      <point x="177" y="233"/>
      <point x="175" y="248"/>
      <point x="175" y="269" type="curve" smooth="yes"/>
      <point x="175" y="406"/>
      <point x="370" y="408"/>
      <point x="370" y="576" type="curve" smooth="yes"/>
      <point x="370" y="644"/>
      <point x="328" y="692"/>
    </contour>
    <component base="period" xOffset="103" yOffset="-1"/>
  </outline>
</glyph>
<glyph name="at" format="2">
  <advance width="859"/>
  <unicode hex="0040"/>
  <outline>
    <contour>
      <point x="507" y="692" type="curve" smooth="yes"/>
      <point x="198" y="692"/>
      <point x="75" y="363"/>
      <point x="75" y="145" type="curve" smooth="yes"/>
      <point x="75" y="-67"/>
      <point x="194" y="-199"/>
      <point x="369" y="-199" type="curve" smooth="yes"/>
      <point x="441" y="-199"/>
      <point x="487" y="-184"/>
      <point x="536" y="-165" type="curve"/>
      <point x="532" y="-138" type="line"/>
      <point x="483" y="-159"/>
      <point x="433" y="-171"/>
      <point x="370" y="-171" type="curve" smooth="yes"/>
      <point x="209" y="-171"/>
      <point x="105" y="-50"/>
      <point x="105" y="145" type="curve" smooth="yes"/>
      <point x="105" y="351"/>
      <point x="221" y="664"/>
      <point x="506" y="664" type="curve" smooth="yes"/>
      <point x="668" y="664"/>
      <point x="754" y="546"/>
      <point x="754" y="381" type="curve" smooth="yes"/>
      <point x="754" y="247"/>
      <point x="704" y="41"/>
      <point x="594" y="41" type="curve" smooth="yes"/>
      <point x="528" y="41"/>
      <point x="531" y="121"/>
      <point x="540" y="186" type="curve" smooth="yes"/>
      <point x="575" y="451" type="line"/>
      <point x="547" y="466"/>
      <point x="519" y="478"/>
      <point x="477" y="478" type="curve" smooth="yes"/>
      <point x="325" y="478"/>
      <point x="263" y="293"/>
      <point x="263" y="166" type="curve" smooth="yes"/>
      <point x="263" y="65"/>
      <point x="307" y="17"/>
      <point x="370" y="17" type="curve" smooth="yes"/>
      <point x="425" y="17"/>
      <point x="472" y="56"/>
      <point x="509" y="125" type="curve"/>
      <point x="508" y="59"/>
      <point x="536" y="15"/>
      <point x="594" y="15" type="curve" smooth="yes"/>
      <point x="725" y="15"/>
      <point x="785" y="226"/>
      <point x="785" y="383" type="curve" smooth="yes"/>
      <point x="785" y="558"/>
      <point x="690" y="692"/>
    </contour>
    <contour>
      <point x="372" y="45" type="curve" smooth="yes"/>
      <point x="324" y="45"/>
      <point x="293" y="83"/>
      <point x="293" y="165" type="curve" smooth="yes"/>
      <point x="293" y="269"/>
      <point x="340" y="450"/>
      <point x="476" y="450" type="curve" smooth="yes"/>
      <point x="507" y="450"/>
      <point x="523" y="444"/>
      <point x="545" y="434" type="curve"/>
      <point x="509" y="170" type="line"/>
      <point x="482" y="103"/>
      <point x="430" y="45"/>
    </contour>
  </outline>
</glyph>
<glyph name="A" format="2">
  <advance width="471"/>
  <unicode hex="0041"/>
  <anchor x="198" y="0" name="bottom"/>
  <anchor x="404" y="0" name="ogonek"/>
  <anchor x="295" y="682" name="top"/>
  <anchor x="204" y="682" name="topleft"/>
  <outline>
    <contour>
      <point x="314" y="682" type="line"/>
      <point x="274" y="682" type="line"/>
      <point x="-12" y="0" type="line"/>
      <point x="20" y="0" type="line"/>
      <point x="291" y="657" type="line"/>
      <point x="377" y="0" type="line"/>
      <point x="409" y="0" type="line"/>
    </contour>
    <contour>
      <point x="355" y="227" type="line"/>
      <point x="106" y="227" type="line"/>
      <point x="91" y="199" type="line"/>
      <point x="359" y="199" type="line"/>
    </contour>
  </outline>
</glyph>
<glyph name="B" format="2">
  <advance width="500"/>
  <unicode hex="0042"/>
  <anchor x="312" y="682" name="top"/>
  <outline>
    <contour>
      <point x="299" y="682" type="curve" smooth="yes"/>
      <point x="156" y="682" type="line"/>
      <point x="60" y="0" type="line"/>
      <point x="212" y="0" type="line" smooth="yes"/>
      <point x="387" y="0"/>
      <point x="437" y="133"/>
      <point x="437" y="224" type="curve" smooth="yes"/>
      <point x="437" y="312"/>
      <point x="390" y="351"/>
      <point x="326" y="361" type="curve"/>
      <point x="411" y="377"/>
      <point x="465" y="446"/>
      <point x="465" y="540" type="curve" smooth="yes"/>
      <point x="465" y="633"/>
      <point x="405" y="682"/>
    </contour>
    <contour>
      <point x="299" y="653" type="line" smooth="yes"/>
      <point x="387" y="653"/>
      <point x="434" y="619"/>
      <point x="434" y="539" type="curve" smooth="yes"/>
      <point x="434" y="457"/>
      <point x="385" y="374"/>
      <point x="271" y="374" type="curve" smooth="yes"/>
      <point x="131" y="374" type="line"/>
      <point x="125" y="346" type="line"/>
      <point x="275" y="346" type="line" smooth="yes"/>
      <point x="358" y="346"/>
      <point x="405" y="310"/>
      <point x="405" y="224" type="curve" smooth="yes"/>
      <point x="405" y="144"/>
      <point x="367" y="29"/>
      <point x="217" y="29" type="curve" smooth="yes"/>
      <point x="95" y="29" type="line"/>
      <point x="183" y="653" type="line"/>
    </contour>
  </outline>
</glyph>
<glyph name="C" format="2">
  <advance width="452"/>
  <unicode hex="0043"/>
  <anchor x="234" y="0" name="bottom"/>
  <anchor x="349" y="682" name="top"/>
  <outline>
    <contour>
      <point x="356" y="692" type="curve" smooth="yes"/>
      <point x="147" y="692"/>
      <point x="63" y="429"/>
      <point x="63" y="231" type="curve" smooth="yes"/>
      <point x="63" y="74"/>
      <point x="132" y="-10"/>
      <point x="236" y="-10" type="curve" smooth="yes"/>
      <point x="299" y="-10"/>
      <point x="348" y="16"/>
      <point x="390" y="54" type="curve"/>
      <point x="372" y="76" type="line"/>
      <point x="335" y="44"/>
      <point x="296" y="20"/>
      <point x="237" y="20" type="curve" smooth="yes"/>
      <point x="152" y="20"/>
      <point x="94" y="90"/>
      <point x="94" y="233" type="curve" smooth="yes"/>
      <point x="94" y="412"/>
      <point x="167" y="663"/>
      <point x="355" y="663" type="curve" smooth="yes"/>
      <point x="403" y="663"/>
      <point x="431" y="647"/>
      <point x="464" y="613" type="curve"/>
      <point x="484" y="633" type="line"/>
      <point x="452" y="669"/>
      <point x="416" y="692"/>
    </contour>
  </outline>
</glyph>
<glyph name="D" format="2">
  <advance width="528"/>
  <unicode hex="0044"/>
  <anchor x="200" y="0" name="bottom"/>
  <anchor x="284" y="341" name="center"/>
  <anchor x="327" y="682" name="top"/>
  <outline>
    <contour>
      <point x="282" y="682" type="curve" smooth="yes"/>
      <point x="156" y="682" type="line"/>
      <point x="60" y="0" type="line"/>
      <point x="172" y="0" type="line" smooth="yes"/>
      <point x="404" y="0"/>
      <point x="487" y="233"/>
      <point x="487" y="453" type="curve" smooth="yes"/>
      <point x="487" y="633"/>
      <point x="389" y="682"/>
    </contour>
    <contour>
      <point x="282" y="653" type="line" smooth="yes"/>
      <point x="372" y="653"/>
      <point x="456" y="615"/>
      <point x="456" y="453" type="curve" smooth="yes"/>
      <point x="456" y="256"/>
      <point x="386" y="29"/>
      <point x="177" y="29" type="curve" smooth="yes"/>
      <point x="95" y="29" type="line"/>
      <point x="183" y="653" type="line"/>
    </contour>
  </outline>
</glyph>
<glyph name="E" format="2">
  <advance width="406"/>
  <unicode hex="0045"/>
  <anchor x="196" y="0" name="bottom"/>
  <anchor x="323" y="0" name="ogonek"/>
  <anchor x="296" y="682" name="top"/>
  <anchor x="132" y="682" name="topleft"/>
  <outline>
    <contour>
      <point x="428" y="682" type="line"/>
      <point x="156" y="682" type="line"/>
      <point x="60" y="0" type="line"/>
      <point x="337" y="0" type="line"/>
      <point x="342" y="29" type="line"/>
      <point x="95" y="29" type="line"/>
      <point x="139" y="345" type="line"/>
      <point x="344" y="345" type="line"/>
      <point x="349" y="373" type="line"/>
      <point x="144" y="373" type="line"/>
      <point x="183" y="653" type="line"/>
      <point x="419" y="653" type="line"/>
    </contour>
  </outline>
</glyph>
<glyph name="F" format="2">
  <advance width="387"/>
  <unicode hex="0046"/>
  <anchor x="76" y="0" name="bottom"/>
  <anchor x="290" y="682" name="top"/>
  <outline>
    <contour>
      <point x="424" y="682" type="line"/>
      <point x="156" y="682" type="line"/>
      <point x="60" y="0" type="line"/>
      <point x="91" y="0" type="line"/>
      <point x="138" y="331" type="line"/>
      <point x="339" y="331" type="line"/>
      <point x="343" y="359" type="line"/>
      <point x="142" y="359" type="line"/>
      <point x="183" y="653" type="line"/>
      <point x="415" y="653" type="line"/>
    </contour>
  </outline>
</glyph>
<glyph name="G" format="2">
  <advance width="502"/>
  <unicode hex="0047"/>
  <anchor x="246" y="0" name="bottom"/>
  <anchor x="354" y="682" name="top"/>
  <outline>
    <contour>
      <point x="357" y="692" type="curve" smooth="yes"/>
      <point x="168" y="692"/>
      <point x="64" y="474"/>
      <point x="64" y="231" type="curve" smooth="yes"/>
      <point x="64" y="72"/>
      <point x="132" y="-10"/>
      <point x="247" y="-10" type="curve" smooth="yes"/>
      <point x="299" y="-10"/>
      <point x="361" y="8"/>
      <point x="413" y="41" type="curve"/>
      <point x="457" y="359" type="line"/>
      <point x="307" y="359" type="line"/>
      <point x="307" y="330" type="line"/>
      <point x="422" y="330" type="line"/>
      <point x="384" y="58" type="line"/>
      <point x="342" y="34"/>
      <point x="297" y="19"/>
      <point x="249" y="19" type="curve" smooth="yes"/>
      <point x="150" y="19"/>
      <point x="96" y="88"/>
      <point x="96" y="230" type="curve" smooth="yes"/>
      <point x="96" y="456"/>
      <point x="184" y="663"/>
      <point x="355" y="663" type="curve" smooth="yes"/>
      <point x="406" y="663"/>
      <point x="440" y="648"/>
      <point x="475" y="611" type="curve"/>
      <point x="497" y="631" type="line"/>
      <point x="457" y="672"/>
      <point x="415" y="692"/>
    </contour>
  </outline>
</glyph>
<glyph name="H" format="2">
  <advance width="545"/>
  <unicode hex="0048"/>
  <anchor x="232" y="0" name="bottom"/>
  <anchor x="419" y="0" name="bottomright"/>
  <anchor x="282" y="341" name="center"/>
  <anchor x="330" y="682" name="top"/>
  <anchor x="132" y="682" name="topleft"/>
  <outline>
    <contour>
      <point x="60" y="0" type="line"/>
      <point x="91" y="0" type="line"/>
      <point x="140" y="345" type="line"/>
      <point x="429" y="345" type="line"/>
      <point x="380" y="0" type="line"/>
      <point x="411" y="0" type="line"/>
      <point x="507" y="682" type="line"/>
      <point x="476" y="682" type="line"/>
      <point x="433" y="373" type="line"/>
      <point x="144" y="373" type="line"/>
      <point x="187" y="682" type="line"/>
      <point x="156" y="682" type="line"/>
    </contour>
  </outline>
</glyph>
<glyph name="I" format="2">
  <advance width="225"/>
  <unicode hex="0049"/>
  <anchor x="76" y="0" name="bottom"/>
  <anchor x="90" y="0" name="ogonek"/>
  <anchor x="172" y="682" name="top"/>
  <anchor x="132" y="682" name="topleft"/>
  <outline>
    <contour>
      <point x="187" y="682" type="line"/>
      <point x="156" y="682" type="line"/>
      <point x="60" y="0" type="line"/>
      <point x="91" y="0" type="line"/>
    </contour>
  </outline>
</glyph>
<glyph name="J" format="2">
  <advance width="238"/>
  <unicode hex="004A"/>
  <anchor x="188" y="682" name="top"/>
  <outline>
    <contour>
      <point x="205" y="682" type="line"/>
      <point x="174" y="682" type="line"/>
      <point x="91" y="92" type="line" smooth="yes"/>
      <point x="77" y="-6"/>
      <point x="53" y="-36"/>
      <point x="-28" y="-81" type="curve"/>
      <point x="-20" y="-104" type="line"/>
      <point x="78" y="-54"/>
      <point x="106" y="-20"/>
      <point x="121" y="88" type="curve" smooth="yes"/>
    </contour>
  </outline>
</glyph>
<glyph name="K" format="2">
  <advance width="435"/>
  <unicode hex="004B"/>
  <anchor x="210" y="0" name="bottom"/>
  <anchor x="300" y="682" name="top"/>
  <outline>
    <contour>
      <point x="355" y="0" type="line"/>
      <point x="390" y="0" type="line"/>
      <point x="179" y="365" type="line"/>
      <point x="473" y="682" type="line"/>
      <point x="438" y="682" type="line"/>
      <point x="145" y="367" type="line"/>
    </contour>
    <contour>
      <point x="60" y="0" type="line"/>
      <point x="91" y="0" type="line"/>
      <point x="187" y="682" type="line"/>
      <point x="156" y="682" type="line"/>
    </contour>
  </outline>
</glyph>
<glyph name="L" format="2">
  <advance width="371"/>
  <unicode hex="004C"/>
  <anchor x="191" y="0" name="bottom"/>
  <anchor x="305" y="354" name="center"/>
  <anchor x="172" y="682" name="top"/>
  <anchor x="218" y="682" name="topright"/>
  <outline>
    <contour>
      <point x="187" y="682" type="line"/>
      <point x="156" y="682" type="line"/>
      <point x="60" y="0" type="line"/>
      <point x="322" y="0" type="line"/>
      <point x="333" y="30" type="line"/>
      <point x="95" y="30" type="line"/>
    </contour>
  </outline>
</glyph>
<glyph name="M" format="2">
  <advance width="630"/>
  <unicode hex="004D"/>
  <anchor x="279" y="0" name="bottom"/>
  <anchor x="540" y="0" name="bottomright"/>
  <anchor x="372" y="682" name="top"/>
  <outline>
    <contour>
      <point x="569" y="682" type="line"/>
      <point x="521" y="682" type="line"/>
      <point x="295" y="119" type="line"/>
      <point x="221" y="682" type="line"/>
      <point x="178" y="682" type="line"/>
      <point x="25" y="0" type="line"/>
      <point x="55" y="0" type="line"/>
      <point x="132" y="350" type="line"/>
      <point x="155" y="458"/>
      <point x="186" y="596"/>
      <point x="197" y="656" type="curve"/>
      <point x="274" y="83" type="line"/>
      <point x="306" y="83" type="line"/>
      <point x="539" y="658" type="line"/>
      <point x="533" y="589"/>
      <point x="526" y="455"/>
      <point x="520" y="343" type="curve" smooth="yes"/>
      <point x="502" y="0" type="line"/>
      <point x="531" y="0" type="line"/>
    </contour>
  </outline>
</glyph>
<glyph name="N" format="2">
  <advance width="547"/>
  <unicode hex="004E"/>
  <anchor x="236" y="0" name="bottom"/>
  <anchor x="338" y="682" name="top"/>
  <outline>
    <contour>
      <point x="509" y="682" type="line"/>
      <point x="479" y="682" type="line"/>
      <point x="417" y="233" type="line"/>
      <point x="404" y="141"/>
      <point x="397" y="76"/>
      <point x="393" y="34" type="curve"/>
      <point x="195" y="682" type="line"/>
      <point x="156" y="682" type="line"/>
      <point x="60" y="0" type="line"/>
      <point x="90" y="0" type="line"/>
      <point x="150" y="437" type="line"/>
      <point x="167" y="556"/>
      <point x="173" y="607"/>
      <point x="176" y="651" type="curve"/>
      <point x="374" y="0" type="line"/>
      <point x="412" y="0" type="line"/>
    </contour>
  </outline>
</glyph>
<glyph name="O" format="2">
  <advance width="571"/>
  <unicode hex="004F"/>
  <anchor x="240" y="0" name="bottom"/>
  <anchor x="354" y="682" name="top"/>
  <anchor x="160" y="682" name="topleft"/>
  <anchor x="515" y="682" name="topright"/>
  <outline>
    <contour>
      <point x="354" y="692" type="curve" smooth="yes"/>
      <point x="144" y="692"/>
      <point x="63" y="415"/>
      <point x="63" y="231" type="curve" smooth="yes"/>
      <point x="63" y="76"/>
      <point x="130" y="-10"/>
      <point x="240" y="-10" type="curve" smooth="yes"/>
      <point x="454" y="-10"/>
      <point x="531" y="266"/>
      <point x="531" y="454" type="curve" smooth="yes"/>
      <point x="531" y="610"/>
      <point x="464" y="692"/>
    </contour>
    <contour>
      <point x="354" y="664" type="curve"/>
      <point x="446" y="664"/>
      <point x="499" y="594"/>
      <point x="499" y="455" type="curve" smooth="yes"/>
      <point x="499" y="295"/>
      <point x="440" y="19"/>
      <point x="240" y="19" type="curve" smooth="yes"/>
      <point x="150" y="19"/>
      <point x="95" y="91"/>
      <point x="95" y="230" type="curve" smooth="yes"/>
      <point x="95" y="394"/>
      <point x="162" y="664"/>
    </contour>
  </outline>
</glyph>
<glyph name="P" format="2">
  <advance width="464"/>
  <unicode hex="0050"/>
  <anchor x="184" y="0" name="bottom"/>
  <anchor x="305" y="682" name="top"/>
  <anchor x="146" y="682" name="topleft"/>
  <outline>
    <contour>
      <point x="156" y="682" type="line"/>
      <point x="60" y="0" type="line"/>
      <point x="91" y="0" type="line"/>
      <point x="183" y="653" type="line"/>
      <point x="281" y="653" type="line" smooth="yes"/>
      <point x="378" y="653"/>
      <point x="430" y="617"/>
      <point x="430" y="523" type="curve" smooth="yes"/>
      <point x="430" y="424"/>
      <point x="390" y="307"/>
      <point x="223" y="307" type="curve" smooth="yes"/>
      <point x="129" y="307" type="line"/>
      <point x="124" y="278" type="line"/>
      <point x="218" y="278" type="line" smooth="yes"/>
      <point x="408" y="278"/>
      <point x="462" y="410"/>
      <point x="462" y="524" type="curve" smooth="yes"/>
      <point x="462" y="631"/>
      <point x="397" y="682"/>
      <point x="282" y="682" type="curve" smooth="yes"/>
    </contour>
  </outline>
</glyph>
<glyph name="Q" format="2">
  <advance width="573"/>
  <unicode hex="0051"/>
  <anchor x="231" y="0" name="bottom"/>
  <anchor x="351" y="682" name="top"/>
  <outline>
    <contour>
      <point x="240" y="-10" type="curve" smooth="yes"/>
      <point x="257" y="-10"/>
      <point x="273" y="-8"/>
      <point x="289" y="-5" type="curve"/>
      <point x="294" y="2" type="line"/>
      <point x="469" y="44"/>
      <point x="531" y="284"/>
      <point x="531" y="454" type="curve" smooth="yes"/>
      <point x="531" y="610"/>
      <point x="464" y="692"/>
      <point x="354" y="692" type="curve" smooth="yes"/>
      <point x="144" y="692"/>
      <point x="63" y="415"/>
      <point x="63" y="231" type="curve" smooth="yes"/>
      <point x="63" y="76"/>
      <point x="130" y="-10"/>
    </contour>
    <contour>
      <point x="444" y="-85" type="curve"/>
      <point x="469" y="-64" type="line"/>
      <point x="429" y="-12"/>
      <point x="368" y="7"/>
      <point x="302" y="9" type="curve"/>
      <point x="237" y="-10" type="line"/>
      <point x="335" y="-10"/>
      <point x="395" y="-23"/>
    </contour>
    <contour>
      <point x="240" y="19" type="curve" smooth="yes"/>
      <point x="150" y="19"/>
      <point x="95" y="91"/>
      <point x="95" y="230" type="curve" smooth="yes"/>
      <point x="95" y="394"/>
      <point x="162" y="664"/>
      <point x="354" y="664" type="curve"/>
      <point x="446" y="664"/>
      <point x="499" y="594"/>
      <point x="499" y="455" type="curve" smooth="yes"/>
      <point x="499" y="295"/>
      <point x="440" y="19"/>
    </contour>
  </outline>
</glyph>
<glyph name="R" format="2">
  <advance width="476"/>
  <unicode hex="0052"/>
  <anchor x="233" y="0" name="bottom"/>
  <anchor x="301" y="682" name="top"/>
  <outline>
    <contour>
      <point x="289" y="682" type="curve" smooth="yes"/>
      <point x="156" y="682" type="line"/>
      <point x="60" y="0" type="line"/>
      <point x="91" y="0" type="line"/>
      <point x="183" y="653" type="line"/>
      <point x="289" y="653" type="line" smooth="yes"/>
      <point x="390" y="653"/>
      <point x="427" y="615"/>
      <point x="427" y="536" type="curve" smooth="yes"/>
      <point x="427" y="451"/>
      <point x="386" y="349"/>
      <point x="247" y="349" type="curve" smooth="yes"/>
      <point x="135" y="349" type="line"/>
      <point x="129" y="320" type="line"/>
      <point x="267" y="320" type="line"/>
      <point x="407" y="334"/>
      <point x="459" y="439"/>
      <point x="459" y="537" type="curve" smooth="yes"/>
      <point x="459" y="630"/>
      <point x="408" y="682"/>
    </contour>
    <contour>
      <point x="292" y="332" type="line"/>
      <point x="264" y="327" type="line"/>
      <point x="375" y="0" type="line"/>
      <point x="407" y="0" type="line"/>
    </contour>
  </outline>
</glyph>
<glyph name="S" format="2">
  <advance width="439"/>
  <unicode hex="0053"/>
  <anchor x="179" y="0" name="bottom"/>
  <anchor x="281" y="682" name="top"/>
  <outline>
    <contour>
      <point x="284" y="692" type="curve" smooth="yes"/>
      <point x="173" y="692"/>
      <point x="104" y="599"/>
      <point x="104" y="508" type="curve" smooth="yes"/>
      <point x="104" y="436"/>
      <point x="137" y="400"/>
      <point x="232" y="356" type="curve" smooth="yes"/>
      <point x="314" y="318"/>
      <point x="344" y="282"/>
      <point x="344" y="211" type="curve" smooth="yes"/>
      <point x="344" y="120"/>
      <point x="286" y="19"/>
      <point x="164" y="19" type="curve" smooth="yes"/>
      <point x="98" y="19"/>
      <point x="59" y="49"/>
      <point x="26" y="91" type="curve"/>
      <point x="4" y="74" type="line"/>
      <point x="42" y="24"/>
      <point x="89" y="-10"/>
      <point x="165" y="-10" type="curve" smooth="yes"/>
      <point x="304" y="-10"/>
      <point x="375" y="106"/>
      <point x="375" y="212" type="curve" smooth="yes"/>
      <point x="375" y="297"/>
      <point x="336" y="341"/>
      <point x="245" y="382" type="curve" smooth="yes"/>
      <point x="163" y="419"/>
      <point x="135" y="448"/>
      <point x="135" y="509" type="curve" smooth="yes"/>
      <point x="135" y="594"/>
      <point x="198" y="664"/>
      <point x="284" y="664" type="curve" smooth="yes"/>
      <point x="336" y="664"/>
      <point x="371" y="645"/>
      <point x="409" y="601" type="curve"/>
      <point x="430" y="619" type="line"/>
      <point x="393" y="663"/>
      <point x="350" y="692"/>
    </contour>
  </outline>
</glyph>
<glyph name="T" format="2">
  <advance width="394"/>
  <unicode hex="0054"/>
  <anchor x="161" y="0" name="bottom"/>
  <anchor x="184" y="0" name="bottomright"/>
  <anchor x="210" y="348" name="center"/>
  <anchor x="257" y="682" name="top"/>
  <outline>
    <contour>
      <point x="445" y="682" type="line"/>
      <point x="71" y="682" type="line"/>
      <point x="67" y="652" type="line"/>
      <point x="237" y="652" type="line"/>
      <point x="145" y="0" type="line"/>
      <point x="176" y="0" type="line"/>
      <point x="268" y="652" type="line"/>
      <point x="436" y="652" type="line"/>
    </contour>
  </outline>
</glyph>
<glyph name="U" format="2">
  <advance width="527"/>
  <unicode hex="0055"/>
  <anchor x="227" y="0" name="bottom"/>
  <anchor x="301" y="0" name="ogonek"/>
  <anchor x="322" y="682" name="top"/>
  <anchor x="506" y="682" name="topright"/>
  <outline>
    <contour>
      <point x="498" y="682" type="line"/>
      <point x="467" y="682" type="line"/>
      <point x="398" y="187" type="line" smooth="yes"/>
      <point x="385" y="95"/>
      <point x="332" y="19"/>
      <point x="228" y="19" type="curve" smooth="yes"/>
      <point x="126" y="19"/>
      <point x="94" y="88"/>
      <point x="107" y="185" type="curve" smooth="yes"/>
      <point x="177" y="682" type="line"/>
      <point x="146" y="682" type="line"/>
      <point x="76" y="184" type="line" smooth="yes"/>
      <point x="61" y="76"/>
      <point x="104" y="-10"/>
      <point x="227" y="-10" type="curve" smooth="yes"/>
      <point x="347" y="-10"/>
      <point x="414" y="75"/>
      <point x="429" y="182" type="curve" smooth="yes"/>
    </contour>
  </outline>
</glyph>
<glyph name="V" format="2">
  <advance width="455"/>
  <unicode hex="0056"/>
  <anchor x="191" y="0" name="bottom"/>
  <anchor x="287" y="682" name="top"/>
  <outline>
    <contour>
      <point x="489" y="682" type="line"/>
      <point x="456" y="682" type="line"/>
      <point x="194" y="30" type="line"/>
      <point x="115" y="682" type="line"/>
      <point x="84" y="682" type="line"/>
      <point x="171" y="0" type="line"/>
      <point x="209" y="0" type="line"/>
    </contour>
  </outline>
</glyph>
<glyph name="W" format="2">
  <advance width="663"/>
  <unicode hex="0057"/>
  <anchor x="295" y="0" name="bottom"/>
  <anchor x="389" y="682" name="top"/>
  <outline>
    <contour>
      <point x="690" y="682" type="line"/>
      <point x="659" y="682" type="line"/>
      <point x="451" y="33" type="line"/>
      <point x="410" y="682" type="line"/>
      <point x="371" y="682" type="line"/>
      <point x="148" y="35" type="line"/>
      <point x="120" y="682" type="line"/>
      <point x="91" y="682" type="line"/>
      <point x="124" y="0" type="line"/>
      <point x="162" y="-1" type="line"/>
      <point x="386" y="651" type="line"/>
      <point x="428" y="0" type="line"/>
      <point x="465" y="0" type="line"/>
    </contour>
  </outline>
</glyph>
<glyph name="X" format="2">
  <advance width="407"/>
  <unicode hex="0058"/>
  <anchor x="165" y="0" name="bottom"/>
  <anchor x="337" y="0" name="bottomright"/>
  <anchor x="261" y="682" name="top"/>
  <outline>
    <contour>
      <point x="121" y="682" type="line"/>
      <point x="88" y="682" type="line"/>
      <point x="199" y="370" type="line"/>
      <point x="210" y="343" type="line"/>
      <point x="327" y="0" type="line"/>
      <point x="359" y="0" type="line"/>
      <point x="230" y="367" type="line"/>
      <point x="218" y="392" type="line"/>
    </contour>
    <contour>
      <point x="430" y="682" type="line"/>
      <point x="396" y="682" type="line"/>
      <point x="218" y="392" type="line"/>
      <point x="197" y="370" type="line"/>
      <point x="-26" y="0" type="line"/>
      <point x="7" y="0" type="line"/>
      <point x="210" y="343" type="line"/>
      <point x="232" y="367" type="line"/>
    </contour>
  </outline>
</glyph>
<glyph name="Y" format="2">
  <advance width="414"/>
  <unicode hex="0059"/>
  <anchor x="171" y="0" name="bottom"/>
  <anchor x="263" y="682" name="top"/>
  <anchor x="70" y="682" name="topleft"/>
  <outline>
    <contour>
      <point x="458" y="682" type="line"/>
      <point x="424" y="682" type="line"/>
      <point x="212" y="301" type="line"/>
      <point x="106" y="682" type="line"/>
      <point x="74" y="682" type="line"/>
      <point x="193" y="270" type="line"/>
      <point x="155" y="0" type="line"/>
      <point x="186" y="0" type="line"/>
      <point x="224" y="269" type="line"/>
    </contour>
  </outline>
</glyph>
<glyph name="Z" format="2">
  <advance width="417"/>
  <unicode hex="005A"/>
  <anchor x="161" y="0" name="bottom"/>
  <anchor x="268" y="682" name="top"/>
  <outline>
    <contour>
      <point x="-7" y="0" type="line"/>
      <point x="327" y="0" type="line"/>
      <point x="337" y="30" type="line"/>
      <point x="32" y="30" type="line"/>
      <point x="432" y="655" type="line"/>
      <point x="436" y="682" type="line"/>
      <point x="120" y="682" type="line"/>
      <point x="115" y="653" type="line"/>
      <point x="398" y="653" type="line"/>
      <point x="-2" y="28" type="line"/>
    </contour>
  </outline>
</glyph>
<glyph name="bracketleft" format="2">
  <advance width="258"/>
  <unicode hex="005B"/>
  <outline>
    <contour>
      <point x="270" y="799" type="line"/>
      <point x="155" y="799" type="line"/>
      <point x="27" y="-109" type="line"/>
      <point x="142" y="-109" type="line"/>
      <point x="145" y="-86" type="line"/>
      <point x="58" y="-86" type="line"/>
      <point x="179" y="776" type="line"/>
      <point x="267" y="776" type="line"/>
    </contour>
  </outline>
</glyph>
<glyph name="backslash" format="2">
  <advance width="437"/>
  <unicode hex="005C"/>
  <outline>
    <contour>
      <point x="212" y="797" type="line"/>
      <point x="186" y="792" type="line"/>
      <point x="251" y="-96" type="line"/>
      <point x="277" y="-91" type="line"/>
    </contour>
  </outline>
</glyph>
<glyph name="bracketright" format="2">
  <advance width="259"/>
  <unicode hex="005D"/>
  <outline>
    <contour>
      <point x="256" y="799" type="line"/>
      <point x="140" y="799" type="line"/>
      <point x="137" y="776" type="line"/>
      <point x="225" y="776" type="line"/>
      <point x="104" y="-86" type="line"/>
      <point x="16" y="-86" type="line"/>
      <point x="13" y="-109" type="line"/>
      <point x="127" y="-109" type="line"/>
    </contour>
  </outline>
</glyph>
<glyph name="asciicircum" format="2">
  <advance width="442"/>
  <unicode hex="005E"/>
  <outline>
    <contour>
      <point x="313" y="826" type="line"/>
      <point x="290" y="826" type="line"/>
      <point x="99" y="527" type="line"/>
      <point x="136" y="527" type="line"/>
      <point x="297" y="788" type="line"/>
      <point x="385" y="527" type="line"/>
      <point x="419" y="527" type="line"/>
    </contour>
  </outline>
</glyph>
<glyph name="underscore" format="2">
  <advance width="438"/>
  <unicode hex="005F"/>
  <outline>
    <contour>
      <point x="-16" y="-105" type="line"/>
      <point x="352" y="-105" type="line"/>
      <point x="356" y="-77" type="line"/>
      <point x="-12" y="-77" type="line"/>
    </contour>
  </outline>
</glyph>
<glyph name="a" format="2">
  <advance width="465"/>
  <unicode hex="0061"/>
  <anchor x="214" y="0" name="bottom"/>
  <anchor x="366" y="-10" name="ogonek"/>
  <anchor x="285" y="520" name="top"/>
  <outline>
    <contour>
      <point x="284" y="530" type="curve" smooth="yes"/>
      <point x="115" y="530"/>
      <point x="48" y="328"/>
      <point x="48" y="170" type="curve" smooth="yes"/>
      <point x="48" y="56"/>
      <point x="96" y="-10"/>
      <point x="178" y="-10" type="curve" smooth="yes"/>
      <point x="239" y="-10"/>
      <point x="286" y="31"/>
      <point x="320" y="84" type="curve"/>
      <point x="310" y="23"/>
      <point x="329" y="1"/>
      <point x="359" y="-10" type="curve"/>
      <point x="369" y="13" type="line"/>
      <point x="342" y="30"/>
      <point x="343" y="50"/>
      <point x="351" y="109" type="curve" smooth="yes"/>
      <point x="406" y="494" type="line"/>
      <point x="371" y="516"/>
      <point x="332" y="530"/>
    </contour>
    <contour>
      <point x="283" y="504" type="curve" smooth="yes"/>
      <point x="323" y="504"/>
      <point x="352" y="494"/>
      <point x="375" y="481" type="curve"/>
      <point x="324" y="131" type="line"/>
      <point x="284" y="61"/>
      <point x="236" y="18"/>
      <point x="179" y="18" type="curve" smooth="yes"/>
      <point x="114" y="18"/>
      <point x="79" y="74"/>
      <point x="79" y="171" type="curve" smooth="yes"/>
      <point x="79" y="316"/>
      <point x="137" y="504"/>
    </contour>
  </outline>
</glyph>
<glyph name="b" format="2">
  <advance width="471"/>
  <unicode hex="0062"/>
  <anchor x="197" y="0" name="bottom"/>
  <anchor x="334" y="734" name="top"/>
  <outline>
    <contour>
      <point x="302" y="530" type="curve" smooth="yes"/>
      <point x="240" y="530"/>
      <point x="193" y="493"/>
      <point x="150" y="443" type="curve"/>
      <point x="191" y="738" type="line"/>
      <point x="161" y="734" type="line"/>
      <point x="60" y="23" type="line"/>
      <point x="109" y="0"/>
      <point x="146" y="-10"/>
      <point x="194" y="-10" type="curve" smooth="yes"/>
      <point x="366" y="-10"/>
      <point x="424" y="211"/>
      <point x="424" y="363" type="curve" smooth="yes"/>
      <point x="424" y="470"/>
      <point x="381" y="530"/>
    </contour>
    <contour>
      <point x="301" y="502" type="curve" smooth="yes"/>
      <point x="362" y="502"/>
      <point x="395" y="455"/>
      <point x="394" y="363" type="curve" smooth="yes"/>
      <point x="393" y="230"/>
      <point x="347" y="18"/>
      <point x="195" y="18" type="curve" smooth="yes"/>
      <point x="151" y="18"/>
      <point x="119" y="29"/>
      <point x="93" y="41" type="curve"/>
      <point x="145" y="404" type="line"/>
      <point x="191" y="461"/>
      <point x="242" y="502"/>
    </contour>
  </outline>
</glyph>
<glyph name="c" format="2">
  <advance width="381"/>
  <unicode hex="0063"/>
  <anchor x="187" y="0" name="bottom"/>
  <anchor x="272" y="520" name="top"/>
  <outline>
    <contour>
      <point x="277" y="530" type="curve" smooth="yes"/>
      <point x="114" y="530"/>
      <point x="49" y="326"/>
      <point x="49" y="177" type="curve" smooth="yes"/>
      <point x="49" y="56"/>
      <point x="103" y="-10"/>
      <point x="190" y="-10" type="curve" smooth="yes"/>
      <point x="235" y="-10"/>
      <point x="278" y="10"/>
      <point x="315" y="43" type="curve"/>
      <point x="300" y="63" type="line"/>
      <point x="267" y="37"/>
      <point x="233" y="18"/>
      <point x="190" y="18" type="curve" smooth="yes"/>
      <point x="122" y="18"/>
      <point x="80" y="70"/>
      <point x="80" y="177" type="curve" smooth="yes"/>
      <point x="80" y="314"/>
      <point x="135" y="503"/>
      <point x="276" y="503" type="curve" smooth="yes"/>
      <point x="317" y="503"/>
      <point x="342" y="488"/>
      <point x="366" y="462" type="curve"/>
      <point x="386" y="480" type="line"/>
      <point x="355" y="514"/>
      <point x="323" y="530"/>
    </contour>
  </outline>
</glyph>
<glyph name="d" format="2">
  <advance width="471"/>
  <unicode hex="0064"/>
  <anchor x="197" y="0" name="bottom"/>
  <anchor x="242" y="260" name="center"/>
  <anchor x="312" y="734" name="top"/>
  <anchor x="488" y="734" name="topright"/>
  <outline>
    <contour>
      <point x="415" y="739" type="line"/>
      <point x="375" y="458" type="line"/>
      <point x="359" y="491"/>
      <point x="329" y="530"/>
      <point x="264" y="530" type="curve" smooth="yes"/>
      <point x="117" y="530"/>
      <point x="48" y="327"/>
      <point x="48" y="170" type="curve" smooth="yes"/>
      <point x="48" y="56"/>
      <point x="94" y="-10"/>
      <point x="170" y="-10" type="curve" smooth="yes"/>
      <point x="244" y="-10"/>
      <point x="295" y="56"/>
      <point x="329" y="118" type="curve"/>
      <point x="316" y="0" type="line"/>
      <point x="341" y="0" type="line"/>
      <point x="445" y="734" type="line"/>
    </contour>
    <contour>
      <point x="264" y="503" type="curve" smooth="yes"/>
      <point x="324" y="503"/>
      <point x="353" y="462"/>
      <point x="370" y="415" type="curve"/>
      <point x="337" y="179" type="line"/>
      <point x="290" y="86"/>
      <point x="241" y="18"/>
      <point x="171" y="18" type="curve" smooth="yes"/>
      <point x="112" y="18"/>
      <point x="79" y="74"/>
      <point x="79" y="171" type="curve" smooth="yes"/>
      <point x="79" y="318"/>
      <point x="141" y="503"/>
    </contour>
  </outline>
</glyph>
<glyph name="e" format="2">
  <advance width="424"/>
  <unicode hex="0065"/>
  <anchor x="185" y="0" name="bottom"/>
  <anchor x="268" y="5" name="ogonek"/>
  <anchor x="272" y="520" name="top"/>
  <outline>
    <contour>
      <point x="281" y="530" type="curve" smooth="yes"/>
      <point x="125" y="530"/>
      <point x="49" y="344"/>
      <point x="49" y="175" type="curve" smooth="yes"/>
      <point x="49" y="55"/>
      <point x="102" y="-10"/>
      <point x="188" y="-10" type="curve" smooth="yes"/>
      <point x="243" y="-10"/>
      <point x="286" y="12"/>
      <point x="332" y="51" type="curve"/>
      <point x="316" y="71" type="line"/>
      <point x="275" y="38"/>
      <point x="238" y="18"/>
      <point x="188" y="18" type="curve" smooth="yes"/>
      <point x="123" y="18"/>
      <point x="80" y="67"/>
      <point x="80" y="176" type="curve" smooth="yes"/>
      <point x="80" y="329"/>
      <point x="143" y="503"/>
      <point x="279" y="503" type="curve" smooth="yes"/>
      <point x="343" y="503"/>
      <point x="370" y="468"/>
      <point x="370" y="417" type="curve" smooth="yes"/>
      <point x="370" y="310"/>
      <point x="271" y="253"/>
      <point x="80" y="239" type="curve"/>
      <point x="75" y="213" type="line"/>
      <point x="275" y="226"/>
      <point x="400" y="290"/>
      <point x="400" y="417" type="curve" smooth="yes"/>
      <point x="400" y="485"/>
      <point x="358" y="530"/>
    </contour>
  </outline>
</glyph>
<glyph name="f" format="2">
  <advance width="256"/>
  <unicode hex="0066"/>
  <anchor x="53" y="-193" name="bottom"/>
  <anchor x="269" y="734" name="top"/>
  <outline>
    <contour>
      <point x="277" y="738" type="curve" smooth="yes"/>
      <point x="211" y="738"/>
      <point x="163" y="695"/>
      <point x="152" y="617" type="curve" smooth="yes"/>
      <point x="66" y="0" type="line" smooth="yes"/>
      <point x="51" y="-110"/>
      <point x="22" y="-139"/>
      <point x="-41" y="-174" type="curve"/>
      <point x="-32" y="-196" type="line"/>
      <point x="43" y="-155"/>
      <point x="79" y="-122"/>
      <point x="96" y="0" type="curve" smooth="yes"/>
      <point x="181" y="613" type="line" smooth="yes"/>
      <point x="191" y="683"/>
      <point x="226" y="711"/>
      <point x="276" y="711" type="curve" smooth="yes"/>
      <point x="306" y="711"/>
      <point x="327" y="702"/>
      <point x="357" y="683" type="curve"/>
      <point x="371" y="704" type="line"/>
      <point x="340" y="726"/>
      <point x="311" y="738"/>
    </contour>
    <contour>
      <point x="286" y="520" type="line"/>
      <point x="65" y="520" type="line"/>
      <point x="61" y="493" type="line"/>
      <point x="277" y="493" type="line"/>
    </contour>
  </outline>
</glyph>
<glyph name="g" format="2">
  <advance width="462"/>
  <unicode hex="0067"/>
  <anchor x="151" y="-193" name="bottom"/>
  <anchor x="283" y="520" name="top"/>
  <outline>
    <contour>
      <point x="285" y="530" type="curve" smooth="yes"/>
      <point x="116" y="530"/>
      <point x="48" y="328"/>
      <point x="49" y="175" type="curve" smooth="yes"/>
      <point x="50" y="66"/>
      <point x="98" y="0"/>
      <point x="180" y="0" type="curve" smooth="yes"/>
      <point x="241" y="0"/>
      <point x="287" y="41"/>
      <point x="321" y="94" type="curve"/>
      <point x="307" y="-6" type="line" smooth="yes"/>
      <point x="290" y="-129"/>
      <point x="231" y="-173"/>
      <point x="165" y="-173" type="curve" smooth="yes"/>
      <point x="113" y="-173"/>
      <point x="75" y="-154"/>
      <point x="42" y="-132" type="curve"/>
      <point x="28" y="-152" type="line"/>
      <point x="62" y="-177"/>
      <point x="109" y="-199"/>
      <point x="164" y="-199" type="curve" smooth="yes"/>
      <point x="244" y="-199"/>
      <point x="316" y="-150"/>
      <point x="336" y="-7" type="curve" smooth="yes"/>
      <point x="407" y="494" type="line"/>
      <point x="372" y="516"/>
      <point x="333" y="530"/>
    </contour>
    <contour>
      <point x="284" y="504" type="curve" smooth="yes"/>
      <point x="324" y="504"/>
      <point x="353" y="494"/>
      <point x="376" y="481" type="curve"/>
      <point x="326" y="141" type="line"/>
      <point x="286" y="71"/>
      <point x="238" y="28"/>
      <point x="181" y="28" type="curve" smooth="yes"/>
      <point x="116" y="28"/>
      <point x="81" y="84"/>
      <point x="80" y="176" type="curve" smooth="yes"/>
      <point x="78" y="316"/>
      <point x="138" y="504"/>
    </contour>
  </outline>
</glyph>
<glyph name="h" format="2">
  <advance width="478"/>
  <unicode hex="0068"/>
  <anchor x="205" y="0" name="bottom"/>
  <anchor x="243" y="260" name="center"/>
  <anchor x="309" y="734" name="top"/>
  <outline>
    <contour>
      <point x="310" y="530" type="curve" smooth="yes"/>
      <point x="240" y="530"/>
      <point x="185" y="466"/>
      <point x="140" y="382" type="curve"/>
      <point x="190" y="739" type="line"/>
      <point x="160" y="734" type="line"/>
      <point x="56" y="0" type="line"/>
      <point x="86" y="0" type="line"/>
      <point x="131" y="320" type="line"/>
      <point x="181" y="424"/>
      <point x="244" y="504"/>
      <point x="309" y="504" type="curve" smooth="yes"/>
      <point x="363" y="504"/>
      <point x="388" y="463"/>
      <point x="376" y="373" type="curve" smooth="yes"/>
      <point x="323" y="0" type="line"/>
      <point x="353" y="0" type="line"/>
      <point x="406" y="375" type="line" smooth="yes"/>
      <point x="419" y="472"/>
      <point x="385" y="530"/>
    </contour>
  </outline>
</glyph>
<glyph name="k" format="2">
  <advance width="424"/>
  <unicode hex="006B"/>
  <anchor x="199" y="0" name="bottom"/>
  <anchor x="313" y="734" name="top"/>
  <outline>
    <contour>
      <point x="190" y="738" type="line"/>
      <point x="160" y="734" type="line"/>
      <point x="56" y="0" type="line"/>
      <point x="86" y="0" type="line"/>
      <point x="128" y="296" type="line"/>
      <point x="183" y="421"/>
      <point x="243" y="504"/>
      <point x="312" y="504" type="curve" smooth="yes"/>
      <point x="358" y="504"/>
      <point x="376" y="474"/>
      <point x="376" y="433" type="curve" smooth="yes"/>
      <point x="376" y="347"/>
      <point x="321" y="286"/>
      <point x="216" y="252" type="curve"/>
      <point x="311" y="0" type="line"/>
      <point x="342" y="0" type="line"/>
      <point x="251" y="240" type="line"/>
      <point x="351" y="278"/>
      <point x="406" y="343"/>
      <point x="406" y="433" type="curve" smooth="yes"/>
      <point x="406" y="485"/>
      <point x="377" y="530"/>
      <point x="314" y="530" type="curve" smooth="yes"/>
      <point x="240" y="530"/>
      <point x="185" y="466"/>
      <point x="138" y="365" type="curve"/>
    </contour>
  </outline>
</glyph>
<glyph name="l" format="2">
  <advance width="228"/>
  <unicode hex="006C"/>
  <anchor x="113" y="0" name="bottom"/>
  <anchor x="233" y="375" name="center"/>
  <anchor x="170" y="734" name="top"/>
  <anchor x="208" y="734" name="topright"/>
  <outline>
    <contour>
      <point x="185" y="738" type="line"/>
      <point x="155" y="734" type="line"/>
      <point x="61" y="69" type="line" smooth="yes"/>
      <point x="54" y="14"/>
      <point x="80" y="-10"/>
      <point x="117" y="-10" type="curve" smooth="yes"/>
      <point x="135" y="-10"/>
      <point x="149" y="-5"/>
      <point x="162" y="1" type="curve"/>
      <point x="154" y="25" type="line"/>
      <point x="143" y="21"/>
      <point x="134" y="18"/>
      <point x="121" y="18" type="curve" smooth="yes"/>
      <point x="96" y="18"/>
      <point x="86" y="34"/>
      <point x="91" y="68" type="curve" smooth="yes"/>
    </contour>
  </outline>
</glyph>
<glyph name="m" format="2">
  <advance width="697"/>
  <unicode hex="006D"/>
  <anchor x="312" y="0" name="bottom"/>
  <anchor x="392" y="520" name="top"/>
  <outline>
    <contour>
      <point x="294" y="530" type="curve" smooth="yes"/>
      <point x="236" y="530"/>
      <point x="181" y="470"/>
      <point x="137" y="375" type="curve"/>
      <point x="155" y="520" type="line"/>
      <point x="130" y="520" type="line"/>
      <point x="56" y="0" type="line"/>
      <point x="86" y="0" type="line"/>
      <point x="130" y="310" type="line"/>
      <point x="180" y="424"/>
      <point x="233" y="504"/>
      <point x="293" y="504" type="curve" smooth="yes"/>
      <point x="341" y="504"/>
      <point x="364" y="460"/>
      <point x="351" y="367" type="curve" smooth="yes"/>
      <point x="299" y="0" type="line"/>
      <point x="328" y="0" type="line"/>
      <point x="381" y="369" type="line" smooth="yes"/>
      <point x="395" y="469"/>
      <point x="361" y="530"/>
    </contour>
    <contour>
      <point x="537" y="530" type="curve" smooth="yes"/>
      <point x="479" y="530"/>
      <point x="421" y="469"/>
      <point x="377" y="371" type="curve"/>
      <point x="371" y="310" type="line"/>
      <point x="422" y="424"/>
      <point x="475" y="504"/>
      <point x="536" y="504" type="curve" smooth="yes"/>
      <point x="584" y="504"/>
      <point x="606" y="460"/>
      <point x="593" y="367" type="curve" smooth="yes"/>
      <point x="541" y="0" type="line"/>
      <point x="572" y="0" type="line"/>
      <point x="624" y="369" type="line" smooth="yes"/>
      <point x="638" y="469"/>
      <point x="605" y="530"/>
    </contour>
  </outline>
</glyph>
<glyph name="n" format="2">
  <advance width="477"/>
  <unicode hex="006E"/>
  <anchor x="205" y="0" name="bottom"/>
  <anchor x="277" y="520" name="top"/>
  <anchor x="122" y="520" name="topleft"/>
  <outline>
    <contour>
      <point x="309" y="530" type="curve" smooth="yes"/>
      <point x="239" y="530"/>
      <point x="185" y="468"/>
      <point x="138" y="379" type="curve"/>
      <point x="155" y="520" type="line"/>
      <point x="130" y="520" type="line"/>
      <point x="56" y="0" type="line"/>
      <point x="86" y="0" type="line"/>
      <point x="131" y="320" type="line"/>
      <point x="181" y="424"/>
      <point x="243" y="504"/>
      <point x="308" y="504" type="curve" smooth="yes"/>
      <point x="362" y="504"/>
      <point x="387" y="463"/>
      <point x="375" y="373" type="curve" smooth="yes"/>
      <point x="322" y="0" type="line"/>
      <point x="352" y="0" type="line"/>
      <point x="405" y="375" type="line" smooth="yes"/>
      <point x="418" y="472"/>
      <point x="384" y="530"/>
    </contour>
  </outline>
</glyph>
<glyph name="o" format="2">
  <advance width="464"/>
  <unicode hex="006F"/>
  <anchor x="187" y="0" name="bottom"/>
  <anchor x="275" y="520" name="top"/>
  <anchor x="422" y="520" name="topright"/>
  <outline>
    <contour>
      <point x="189" y="-10" type="curve" smooth="yes"/>
      <point x="353" y="-10"/>
      <point x="415" y="201"/>
      <point x="415" y="344" type="curve" smooth="yes"/>
      <point x="415" y="459"/>
      <point x="366" y="530"/>
      <point x="275" y="530" type="curve" smooth="yes"/>
      <point x="111" y="530"/>
      <point x="49" y="319"/>
      <point x="49" y="176" type="curve" smooth="yes"/>
      <point x="49" y="61"/>
      <point x="98" y="-10"/>
    </contour>
    <contour>
      <point x="189" y="18" type="curve" smooth="yes"/>
      <point x="118" y="18"/>
      <point x="80" y="72"/>
      <point x="80" y="175" type="curve" smooth="yes"/>
      <point x="80" y="298"/>
      <point x="129" y="503"/>
      <point x="275" y="503" type="curve" smooth="yes"/>
      <point x="346" y="503"/>
      <point x="384" y="448"/>
      <point x="384" y="345" type="curve" smooth="yes"/>
      <point x="384" y="222"/>
      <point x="335" y="18"/>
    </contour>
  </outline>
</glyph>
<glyph name="p" format="2">
  <advance width="465"/>
  <unicode hex="0070"/>
  <anchor x="169" y="-193" name="bottom"/>
  <anchor x="290" y="520" name="top"/>
  <outline>
    <contour>
      <point x="28" y="-199" type="line"/>
      <point x="59" y="-195" type="line"/>
      <point x="88" y="14" type="line"/>
      <point x="122" y="-2"/>
      <point x="152" y="-10"/>
      <point x="190" y="-10" type="curve" smooth="yes"/>
      <point x="361" y="-10"/>
      <point x="418" y="207"/>
      <point x="418" y="363" type="curve" smooth="yes"/>
      <point x="418" y="470"/>
      <point x="375" y="530"/>
      <point x="296" y="530" type="curve" smooth="yes"/>
      <point x="235" y="530"/>
      <point x="191" y="493"/>
      <point x="148" y="443" type="curve"/>
      <point x="156" y="520" type="line"/>
      <point x="130" y="520" type="line"/>
    </contour>
    <contour>
      <point x="191" y="18" type="curve" smooth="yes"/>
      <point x="148" y="18"/>
      <point x="119" y="29"/>
      <point x="92" y="42" type="curve"/>
      <point x="143" y="404" type="line"/>
      <point x="189" y="461"/>
      <point x="237" y="502"/>
      <point x="295" y="502" type="curve" smooth="yes"/>
      <point x="356" y="502"/>
      <point x="389" y="455"/>
      <point x="388" y="363" type="curve" smooth="yes"/>
      <point x="388" y="225"/>
      <point x="341" y="18"/>
    </contour>
  </outline>
</glyph>
<glyph name="q" format="2">
  <advance width="464"/>
  <unicode hex="0071"/>
  <anchor x="149" y="-193" name="bottom"/>
  <anchor x="289" y="520" name="top"/>
  <outline>
    <contour>
      <point x="287" y="530" type="curve" smooth="yes"/>
      <point x="117" y="530"/>
      <point x="48" y="328"/>
      <point x="48" y="170" type="curve" smooth="yes"/>
      <point x="48" y="56"/>
      <point x="98" y="-10"/>
      <point x="179" y="-10" type="curve" smooth="yes"/>
      <point x="241" y="-10"/>
      <point x="288" y="31"/>
      <point x="322" y="84" type="curve"/>
      <point x="281" y="-199" type="line"/>
      <point x="312" y="-195" type="line"/>
      <point x="408" y="494" type="line"/>
      <point x="373" y="516"/>
      <point x="334" y="530"/>
    </contour>
    <contour>
      <point x="286" y="504" type="curve" smooth="yes"/>
      <point x="325" y="504"/>
      <point x="354" y="494"/>
      <point x="377" y="481" type="curve"/>
      <point x="327" y="133" type="line"/>
      <point x="287" y="61"/>
      <point x="238" y="18"/>
      <point x="180" y="18" type="curve" smooth="yes"/>
      <point x="116" y="18"/>
      <point x="79" y="74"/>
      <point x="79" y="171" type="curve" smooth="yes"/>
      <point x="79" y="316"/>
      <point x="139" y="504"/>
    </contour>
  </outline>
</glyph>
<glyph name="r" format="2">
  <advance width="299"/>
  <unicode hex="0072"/>
  <anchor x="70" y="0" name="bottom"/>
  <anchor x="216" y="520" name="top"/>
  <outline>
    <contour>
      <point x="285" y="530" type="curve" smooth="yes"/>
      <point x="215" y="530"/>
      <point x="171" y="473"/>
      <point x="137" y="385" type="curve"/>
      <point x="156" y="520" type="line"/>
      <point x="130" y="520" type="line"/>
      <point x="56" y="0" type="line"/>
      <point x="86" y="0" type="line"/>
      <point x="130" y="314" type="line"/>
      <point x="172" y="430"/>
      <point x="214" y="503"/>
      <point x="282" y="503" type="curve" smooth="yes"/>
      <point x="295" y="503"/>
      <point x="307" y="500"/>
      <point x="315" y="497" type="curve"/>
      <point x="324" y="523" type="line"/>
      <point x="316" y="526"/>
      <point x="301" y="530"/>
    </contour>
  </outline>
</glyph>
<glyph name="s" format="2">
  <advance width="378"/>
  <unicode hex="0073"/>
  <anchor x="153" y="0" name="bottom"/>
  <anchor x="225" y="520" name="top"/>
  <outline>
    <contour>
      <point x="226" y="530" type="curve" smooth="yes"/>
      <point x="142" y="530"/>
      <point x="79" y="473"/>
      <point x="79" y="392" type="curve" smooth="yes"/>
      <point x="79" y="333"/>
      <point x="105" y="299"/>
      <point x="185" y="264" type="curve" smooth="yes"/>
      <point x="260" y="231"/>
      <point x="280" y="200"/>
      <point x="280" y="150" type="curve" smooth="yes"/>
      <point x="280" y="57"/>
      <point x="221" y="18"/>
      <point x="146" y="18" type="curve" smooth="yes"/>
      <point x="87" y="18"/>
      <point x="53" y="41"/>
      <point x="22" y="74" type="curve"/>
      <point x="1" y="56" type="line"/>
      <point x="35" y="19"/>
      <point x="77" y="-10"/>
      <point x="146" y="-10" type="curve" smooth="yes"/>
      <point x="243" y="-10"/>
      <point x="311" y="50"/>
      <point x="311" y="151" type="curve" smooth="yes"/>
      <point x="311" y="214"/>
      <point x="281" y="254"/>
      <point x="201" y="289" type="curve" smooth="yes"/>
      <point x="130" y="320"/>
      <point x="110" y="345"/>
      <point x="110" y="392" type="curve" smooth="yes"/>
      <point x="110" y="460"/>
      <point x="158" y="502"/>
      <point x="225" y="502" type="curve" smooth="yes"/>
      <point x="270" y="502"/>
      <point x="300" y="487"/>
      <point x="332" y="457" type="curve"/>
      <point x="351" y="476" type="line"/>
      <point x="315" y="513"/>
      <point x="276" y="530"/>
    </contour>
  </outline>
</glyph>
<glyph name="t" format="2">
  <advance width="271"/>
  <unicode hex="0074"/>
  <anchor x="152" y="0" name="bottom"/>
  <anchor x="132" y="260" name="center"/>
  <anchor x="163" y="649" name="top"/>
  <anchor x="218" y="734" name="topright"/>
  <outline>
    <contour>
      <point x="175" y="653" type="line"/>
      <point x="152" y="650" type="line"/>
      <point x="126" y="510" type="line"/>
      <point x="69" y="108" type="line" smooth="yes"/>
      <point x="59" y="31"/>
      <point x="94" y="-10"/>
      <point x="151" y="-10" type="curve" smooth="yes"/>
      <point x="186" y="-10"/>
      <point x="214" y="2"/>
      <point x="241" y="20" type="curve"/>
      <point x="230" y="42" type="line"/>
      <point x="207" y="29"/>
      <point x="183" y="17"/>
      <point x="153" y="17" type="curve" smooth="yes"/>
      <point x="114" y="17"/>
      <point x="90" y="45"/>
      <point x="99" y="108" type="curve" smooth="yes"/>
    </contour>
    <contour>
      <point x="272" y="520" type="line"/>
      <point x="56" y="520" type="line"/>
      <point x="52" y="493" type="line"/>
      <point x="264" y="493" type="line"/>
    </contour>
  </outline>
</glyph>
<glyph name="u" format="2">
  <advance width="473"/>
  <unicode hex="0075"/>
  <anchor x="199" y="0" name="bottom"/>
  <anchor x="351" y="0" name="bottomright"/>
  <anchor x="350" y="0" name="ogonek"/>
  <anchor x="271" y="520" name="top"/>
  <anchor x="425" y="520" name="topright"/>
  <outline>
    <contour>
      <point x="166" y="-10" type="curve" smooth="yes"/>
      <point x="247" y="-10"/>
      <point x="301" y="62"/>
      <point x="338" y="148" type="curve"/>
      <point x="320" y="0" type="line"/>
      <point x="343" y="0" type="line"/>
      <point x="417" y="520" type="line"/>
      <point x="387" y="520" type="line"/>
      <point x="344" y="208" type="line"/>
      <point x="301" y="102"/>
      <point x="245" y="18"/>
      <point x="168" y="18" type="curve" smooth="yes"/>
      <point x="116" y="18"/>
      <point x="90" y="58"/>
      <point x="102" y="140" type="curve" smooth="yes"/>
      <point x="155" y="520" type="line"/>
      <point x="125" y="520" type="line"/>
      <point x="71" y="140" type="line" smooth="yes"/>
      <point x="58" y="47"/>
      <point x="94" y="-10"/>
    </contour>
  </outline>
</glyph>
<glyph name="v" format="2">
  <advance width="383"/>
  <unicode hex="0076"/>
  <anchor x="158" y="0" name="bottom"/>
  <anchor x="228" y="520" name="top"/>
  <outline>
    <contour>
      <point x="400" y="520" type="line"/>
      <point x="368" y="520" type="line"/>
      <point x="161" y="26" type="line"/>
      <point x="88" y="520" type="line"/>
      <point x="57" y="520" type="line"/>
      <point x="139" y="0" type="line"/>
      <point x="177" y="0" type="line"/>
    </contour>
  </outline>
</glyph>
<glyph name="w" format="2">
  <advance width="575"/>
  <unicode hex="0077"/>
  <anchor x="253" y="0" name="bottom"/>
  <anchor x="326" y="520" name="top"/>
  <outline>
    <contour>
      <point x="582" y="520" type="line"/>
      <point x="552" y="520" type="line"/>
      <point x="383" y="28" type="line"/>
      <point x="344" y="520" type="line"/>
      <point x="306" y="520" type="line"/>
      <point x="130" y="29" type="line"/>
      <point x="96" y="520" type="line"/>
      <point x="67" y="520" type="line"/>
      <point x="105" y="0" type="line"/>
      <point x="146" y="0" type="line"/>
      <point x="321" y="488" type="line"/>
      <point x="359" y="0" type="line"/>
      <point x="400" y="0" type="line"/>
    </contour>
  </outline>
</glyph>
<glyph name="x" format="2">
  <advance width="369"/>
  <unicode hex="0078"/>
  <anchor x="148" y="0" name="bottom"/>
  <anchor x="306" y="0" name="bottomright"/>
  <anchor x="221" y="520" name="top"/>
  <outline>
    <contour>
      <point x="104" y="520" type="line"/>
      <point x="72" y="520" type="line"/>
      <point x="169" y="280" type="line"/>
      <point x="183" y="258" type="line"/>
      <point x="284" y="0" type="line"/>
      <point x="317" y="0" type="line"/>
      <point x="205" y="277" type="line"/>
      <point x="190" y="299" type="line"/>
    </contour>
    <contour>
      <point x="371" y="520" type="line"/>
      <point x="337" y="520" type="line"/>
      <point x="190" y="299" type="line"/>
      <point x="169" y="280" type="line"/>
      <point x="-22" y="0" type="line"/>
      <point x="12" y="0" type="line"/>
      <point x="183" y="258" type="line"/>
      <point x="205" y="277" type="line"/>
    </contour>
  </outline>
</glyph>
<glyph name="y" format="2">
  <advance width="380"/>
  <unicode hex="0079"/>
  <anchor x="124" y="-193" name="bottom"/>
  <anchor x="221" y="520" name="top"/>
  <outline>
    <contour>
      <point x="397" y="520" type="line"/>
      <point x="365" y="520" type="line"/>
      <point x="158" y="22" type="line"/>
      <point x="88" y="520" type="line"/>
      <point x="57" y="520" type="line"/>
      <point x="134" y="0" type="line"/>
      <point x="148" y="1" type="line"/>
      <point x="104" y="-111"/>
      <point x="74" y="-144"/>
      <point x="-14" y="-174" type="curve"/>
      <point x="-11" y="-197" type="line"/>
      <point x="87" y="-165"/>
      <point x="119" y="-137"/>
      <point x="176" y="-3" type="curve" smooth="yes"/>
    </contour>
  </outline>
</glyph>
<glyph name="z" format="2">
  <advance width="338"/>
  <unicode hex="007A"/>
  <anchor x="126" y="0" name="bottom"/>
  <anchor x="214" y="520" name="top"/>
  <outline>
    <contour>
      <point x="346" y="520" type="line"/>
      <point x="81" y="520" type="line"/>
      <point x="77" y="492" type="line"/>
      <point x="307" y="492" type="line"/>
      <point x="-9" y="25" type="line"/>
      <point x="-13" y="0" type="line"/>
      <point x="265" y="0" type="line"/>
      <point x="273" y="28" type="line"/>
      <point x="26" y="28" type="line"/>
      <point x="342" y="495" type="line"/>
    </contour>
  </outline>
</glyph>
<glyph name="braceleft" format="2">
  <advance width="271"/>
  <unicode hex="007B"/>
  <outline>
    <contour>
      <point x="286" y="822" type="line"/>
      <point x="225" y="822"/>
      <point x="187" y="791"/>
      <point x="177" y="717" type="curve" smooth="yes"/>
      <point x="138" y="435" type="line" smooth="yes"/>
      <point x="130" y="382"/>
      <point x="104" y="363"/>
      <point x="61" y="363" type="curve"/>
      <point x="57" y="335" type="line"/>
      <point x="102" y="335"/>
      <point x="120" y="318"/>
      <point x="113" y="265" type="curve" smooth="yes"/>
      <point x="74" y="-17" type="line" smooth="yes"/>
      <point x="64" y="-91"/>
      <point x="97" y="-124"/>
      <point x="154" y="-124" type="curve"/>
      <point x="156" y="-101" type="line"/>
      <point x="107" y="-100"/>
      <point x="93" y="-73"/>
      <point x="101" y="-14" type="curve" smooth="yes"/>
      <point x="138" y="251" type="line" smooth="yes"/>
      <point x="148" y="319"/>
      <point x="132" y="338"/>
      <point x="91" y="349" type="curve"/>
      <point x="134" y="359"/>
      <point x="155" y="375"/>
      <point x="164" y="439" type="curve" smooth="yes"/>
      <point x="202" y="710" type="line" smooth="yes"/>
      <point x="210" y="769"/>
      <point x="232" y="799"/>
      <point x="284" y="799" type="curve"/>
    </contour>
  </outline>
</glyph>
<glyph name="bar" format="2">
  <advance width="347"/>
  <unicode hex="007C"/>
  <outline>
    <contour>
      <point x="264" y="802" type="line"/>
      <point x="235" y="802" type="line"/>
      <point x="109" y="-99" type="line"/>
      <point x="138" y="-99" type="line"/>
    </contour>
  </outline>
</glyph>
<glyph name="braceright" format="2">
  <advance width="271"/>
  <unicode hex="007D"/>
  <outline>
    <contour>
      <point x="10" y="-124" type="line"/>
      <point x="71" y="-124"/>
      <point x="109" y="-93"/>
      <point x="119" y="-19" type="curve" smooth="yes"/>
      <point x="158" y="263" type="line" smooth="yes"/>
      <point x="166" y="316"/>
      <point x="192" y="335"/>
      <point x="235" y="335" type="curve"/>
      <point x="239" y="363" type="line"/>
      <point x="194" y="363"/>
      <point x="176" y="380"/>
      <point x="183" y="433" type="curve" smooth="yes"/>
      <point x="222" y="715" type="line" smooth="yes"/>
      <point x="232" y="789"/>
      <point x="199" y="822"/>
      <point x="142" y="822" type="curve"/>
      <point x="140" y="799" type="line"/>
      <point x="189" y="798"/>
      <point x="203" y="771"/>
      <point x="195" y="712" type="curve" smooth="yes"/>
      <point x="158" y="447" type="line" smooth="yes"/>
      <point x="148" y="379"/>
      <point x="164" y="360"/>
      <point x="205" y="349" type="curve"/>
      <point x="162" y="339"/>
      <point x="141" y="323"/>
      <point x="132" y="259" type="curve" smooth="yes"/>
      <point x="94" y="-12" type="line" smooth="yes"/>
      <point x="86" y="-71"/>
      <point x="64" y="-101"/>
      <point x="12" y="-101" type="curve"/>
    </contour>
  </outline>
</glyph>
<glyph name="asciitilde" format="2">
  <advance width="391"/>
  <unicode hex="007E"/>
  <outline>
    <contour>
      <point x="263" y="275" type="curve" smooth="yes"/>
      <point x="297" y="275"/>
      <point x="318" y="297"/>
      <point x="344" y="333" type="curve"/>
      <point x="326" y="347" type="line"/>
      <point x="306" y="322"/>
      <point x="291" y="305"/>
      <point x="264" y="305" type="curve" smooth="yes"/>
      <point x="225" y="305"/>
      <point x="195" y="360"/>
      <point x="147" y="360" type="curve" smooth="yes"/>
      <point x="111" y="360"/>
      <point x="90" y="338"/>
      <point x="63" y="302" type="curve"/>
      <point x="81" y="288" type="line"/>
      <point x="101" y="313"/>
      <point x="116" y="330"/>
      <point x="145" y="330" type="curve" smooth="yes"/>
      <point x="183" y="330"/>
      <point x="217" y="275"/>
    </contour>
  </outline>
</glyph>
<glyph name="exclamdown" format="2">
  <advance width="218"/>
  <unicode hex="00A1"/>
  <outline>
    <contour>
      <point x="121" y="251" type="line"/>
      <point x="93" y="251" type="line"/>
      <point x="29" y="-193" type="line"/>
      <point x="59" y="-193" type="line"/>
    </contour>
    <component base="period" xOffset="83" yOffset="409"/>
  </outline>
</glyph>
<glyph name="cent" format="2">
  <advance width="381"/>
  <unicode hex="00A2"/>
  <anchor x="187" y="0" name="bottom"/>
  <anchor x="272" y="520" name="top"/>
  <outline>
    <contour>
      <point x="302" y="677" type="line"/>
      <point x="276" y="677" type="line"/>
      <point x="255" y="527" type="line"/>
      <point x="281" y="527" type="line"/>
    </contour>
    <contour>
      <point x="178" y="-7" type="line"/>
      <point x="159" y="-147" type="line"/>
      <point x="186" y="-147" type="line"/>
      <point x="206" y="-6" type="line"/>
    </contour>
    <component base="c"/>
  </outline>
</glyph>
<glyph name="sterling" format="2">
  <advance width="415"/>
  <unicode hex="00A3"/>
  <outline>
    <contour>
      <point x="137" y="143" type="curve"/>
      <point x="186" y="503" type="line"/>
      <point x="197" y="585"/>
      <point x="241" y="646"/>
      <point x="310" y="646" type="curve" smooth="yes"/>
      <point x="356" y="646"/>
      <point x="382" y="626"/>
      <point x="405" y="588" type="curve"/>
      <point x="426" y="604" type="line"/>
      <point x="399" y="650"/>
      <point x="364" y="674"/>
      <point x="310" y="674" type="curve" smooth="yes"/>
      <point x="224" y="674"/>
      <point x="170" y="600"/>
      <point x="157" y="506" type="curve"/>
      <point x="107" y="143" type="line"/>
      <point x="98" y="82"/>
      <point x="75" y="58"/>
      <point x="21" y="28" type="curve"/>
      <point x="17" y="0" type="line"/>
      <point x="327" y="0" type="line"/>
      <point x="337" y="29" type="line"/>
      <point x="60" y="29" type="line"/>
      <point x="107" y="53"/>
      <point x="128" y="76"/>
    </contour>
    <contour>
      <point x="80" y="339" type="line"/>
      <point x="342" y="339" type="line"/>
      <point x="346" y="367" type="line"/>
      <point x="84" y="367" type="line"/>
    </contour>
  </outline>
</glyph>
<glyph name="currency" format="2">
  <advance width="460"/>
  <unicode hex="00A4"/>
  <outline>
    <contour>
      <point x="241" y="524" type="curve" smooth="yes"/>
      <point x="151" y="524"/>
      <point x="94" y="452"/>
      <point x="94" y="341" type="curve" smooth="yes"/>
      <point x="94" y="229"/>
      <point x="150" y="157"/>
      <point x="241" y="157" type="curve" smooth="yes"/>
      <point x="334" y="157"/>
      <point x="389" y="229"/>
      <point x="389" y="341" type="curve" smooth="yes"/>
      <point x="389" y="452"/>
      <point x="334" y="524"/>
    </contour>
    <contour>
      <point x="144" y="230" type="line"/>
      <point x="62" y="132" type="line"/>
      <point x="82" y="115" type="line"/>
      <point x="161" y="210" type="line"/>
    </contour>
    <contour>
      <point x="341" y="230" type="line"/>
      <point x="324" y="210" type="line"/>
      <point x="403" y="115" type="line"/>
      <point x="424" y="132" type="line"/>
    </contour>
    <contour>
      <point x="80" y="566" type="line"/>
      <point x="59" y="549" type="line"/>
      <point x="142" y="451" type="line"/>
      <point x="159" y="471" type="line"/>
    </contour>
    <contour>
      <point x="401" y="566" type="line"/>
      <point x="322" y="471" type="line"/>
      <point x="339" y="451" type="line"/>
      <point x="421" y="549" type="line"/>
    </contour>
    <contour>
      <point x="241" y="498" type="curve" smooth="yes"/>
      <point x="321" y="498"/>
      <point x="360" y="441"/>
      <point x="360" y="340" type="curve" smooth="yes"/>
      <point x="360" y="241"/>
      <point x="321" y="183"/>
      <point x="241" y="183" type="curve" smooth="yes"/>
      <point x="163" y="183"/>
      <point x="123" y="240"/>
      <point x="123" y="340" type="curve" smooth="yes"/>
      <point x="123" y="441"/>
      <point x="163" y="498"/>
    </contour>
  </outline>
</glyph>
<glyph name="yen" format="2">
  <advance width="407"/>
  <unicode hex="00A5"/>
  <outline>
    <contour>
      <point x="448" y="662" type="line"/>
      <point x="414" y="662" type="line"/>
      <point x="214" y="333" type="line"/>
      <point x="105" y="662" type="line"/>
      <point x="71" y="662" type="line"/>
      <point x="196" y="310" type="line"/>
      <point x="152" y="0" type="line"/>
      <point x="183" y="0" type="line"/>
      <point x="227" y="309" type="line"/>
    </contour>
    <contour>
      <point x="319" y="191" type="line"/>
      <point x="69" y="191" type="line"/>
      <point x="65" y="162" type="line"/>
      <point x="315" y="162" type="line"/>
    </contour>
    <contour>
      <point x="339" y="332" type="line"/>
      <point x="90" y="332" type="line"/>
      <point x="85" y="304" type="line"/>
      <point x="335" y="304" type="line"/>
    </contour>
  </outline>
</glyph>
<glyph name="brokenbar" format="2">
  <advance width="347"/>
  <unicode hex="00A6"/>
  <outline>
    <contour>
      <point x="264" y="802" type="line"/>
      <point x="235" y="802" type="line"/>
      <point x="185" y="443" type="line"/>
      <point x="214" y="443" type="line"/>
    </contour>
    <contour>
      <point x="188" y="262" type="line"/>
      <point x="159" y="262" type="line"/>
      <point x="109" y="-99" type="line"/>
      <point x="138" y="-99" type="line"/>
    </contour>
  </outline>
</glyph>
<glyph name="section" format="2">
  <advance width="461"/>
  <unicode hex="00A7"/>
  <outline>
    <contour>
      <point x="307" y="673" type="curve" smooth="yes"/>
      <point x="221" y="673"/>
      <point x="161" y="611"/>
      <point x="161" y="536" type="curve" smooth="yes"/>
      <point x="161" y="479"/>
      <point x="189" y="445"/>
      <point x="271" y="407" type="curve" smooth="yes"/>
      <point x="338" y="376"/>
      <point x="351" y="341"/>
      <point x="351" y="303" type="curve" smooth="yes"/>
      <point x="351" y="261"/>
      <point x="341" y="217"/>
      <point x="262" y="165" type="curve"/>
      <point x="279" y="150" type="line"/>
      <point x="357" y="200"/>
      <point x="382" y="240"/>
      <point x="382" y="303" type="curve" smooth="yes"/>
      <point x="382" y="360"/>
      <point x="356" y="397"/>
      <point x="282" y="431" type="curve" smooth="yes"/>
      <point x="211" y="464"/>
      <point x="192" y="491"/>
      <point x="192" y="535" type="curve" smooth="yes"/>
      <point x="192" y="593"/>
      <point x="231" y="646"/>
      <point x="308" y="646" type="curve" smooth="yes"/>
      <point x="349" y="646"/>
      <point x="377" y="632"/>
      <point x="410" y="607" type="curve"/>
      <point x="427" y="628" type="line"/>
      <point x="396" y="654"/>
      <point x="358" y="673"/>
    </contour>
    <contour>
      <point x="201" y="459" type="line"/>
      <point x="130" y="412"/>
      <point x="99" y="370"/>
      <point x="99" y="306" type="curve" smooth="yes"/>
      <point x="99" y="246"/>
      <point x="132" y="210"/>
      <point x="207" y="176" type="curve" smooth="yes"/>
      <point x="271" y="147"/>
      <point x="292" y="118"/>
      <point x="292" y="70" type="curve" smooth="yes"/>
      <point x="292" y="10"/>
      <point x="252" y="-38"/>
      <point x="175" y="-38" type="curve" smooth="yes"/>
      <point x="127" y="-38"/>
      <point x="93" y="-25"/>
      <point x="61" y="1" type="curve"/>
      <point x="44" y="-21" type="line"/>
      <point x="80" y="-49"/>
      <point x="116" y="-66"/>
      <point x="174" y="-66" type="curve" smooth="yes"/>
      <point x="265" y="-66"/>
      <point x="323" y="-8"/>
      <point x="323" y="71" type="curve" smooth="yes"/>
      <point x="323" y="135"/>
      <point x="290" y="169"/>
      <point x="220" y="200" type="curve" smooth="yes"/>
      <point x="148" y="232"/>
      <point x="130" y="262"/>
      <point x="130" y="306" type="curve" smooth="yes"/>
      <point x="130" y="364"/>
      <point x="154" y="399"/>
      <point x="219" y="444" type="curve"/>
    </contour>
  </outline>
</glyph>
<glyph name="copyright" format="2">
  <advance width="662"/>
  <unicode hex="00A9"/>
  <outline>
    <contour>
      <point x="356" y="726" type="curve"/>
      <point x="222" y="726"/>
      <point x="121" y="620"/>
      <point x="121" y="435" type="curve" smooth="yes"/>
      <point x="121" y="248"/>
      <point x="222" y="144"/>
      <point x="356" y="144" type="curve"/>
      <point x="490" y="144"/>
      <point x="590" y="250"/>
      <point x="590" y="435" type="curve" smooth="yes"/>
      <point x="590" y="622"/>
      <point x="490" y="726"/>
    </contour>
    <contour>
      <point x="355" y="608" type="curve" smooth="yes"/>
      <point x="301" y="608"/>
      <point x="243" y="562"/>
      <point x="243" y="437" type="curve" smooth="yes"/>
      <point x="243" y="316"/>
      <point x="290" y="262"/>
      <point x="357" y="262" type="curve" smooth="yes"/>
      <point x="393" y="262"/>
      <point x="420" y="278"/>
      <point x="439" y="296" type="curve"/>
      <point x="425" y="317" type="line"/>
      <point x="408" y="303"/>
      <point x="389" y="290"/>
      <point x="358" y="290" type="curve" smooth="yes"/>
      <point x="309" y="290"/>
      <point x="272" y="327"/>
      <point x="272" y="437" type="curve" smooth="yes"/>
      <point x="272" y="549"/>
      <point x="318" y="580"/>
      <point x="355" y="580" type="curve" smooth="yes"/>
      <point x="384" y="580"/>
      <point x="400" y="572"/>
      <point x="417" y="558" type="curve"/>
      <point x="432" y="578" type="line"/>
      <point x="411" y="597"/>
      <point x="389" y="608"/>
    </contour>
    <contour>
      <point x="356" y="698" type="curve"/>
      <point x="475" y="698"/>
      <point x="562" y="608"/>
      <point x="562" y="435" type="curve" smooth="yes"/>
      <point x="562" y="265"/>
      <point x="475" y="172"/>
      <point x="356" y="172" type="curve"/>
      <point x="236" y="172"/>
      <point x="149" y="262"/>
      <point x="149" y="435" type="curve" smooth="yes"/>
      <point x="149" y="605"/>
      <point x="236" y="698"/>
    </contour>
  </outline>
</glyph>
<glyph name="ordfeminine" format="2">
  <advance width="500"/>
  <unicode hex="00AA"/>
  <outline>
    <contour>
      <point x="264" y="682" type="curve" smooth="yes"/>
      <point x="229" y="682"/>
      <point x="197" y="672"/>
      <point x="160" y="657" type="curve"/>
      <point x="166" y="631" type="line"/>
      <point x="200" y="645"/>
      <point x="232" y="654"/>
      <point x="262" y="654" type="curve" smooth="yes"/>
      <point x="313" y="654"/>
      <point x="331" y="634"/>
      <point x="331" y="590" type="curve" smooth="yes"/>
      <point x="331" y="581"/>
      <point x="330" y="572"/>
      <point x="329" y="561" type="curve"/>
      <point x="323" y="518" type="line"/>
      <point x="251" y="518" type="line" smooth="yes"/>
      <point x="157" y="518"/>
      <point x="96" y="466"/>
      <point x="96" y="379" type="curve" smooth="yes"/>
      <point x="96" y="319"/>
      <point x="129" y="276"/>
      <point x="188" y="276" type="curve" smooth="yes"/>
      <point x="233" y="276"/>
      <point x="271" y="298"/>
      <point x="303" y="342" type="curve"/>
      <point x="302" y="299"/>
      <point x="315" y="286"/>
      <point x="341" y="276" type="curve"/>
      <point x="349" y="297" type="line"/>
      <point x="326" y="310"/>
      <point x="328" y="334"/>
      <point x="332" y="367" type="curve" smooth="yes"/>
      <point x="359" y="562" type="line"/>
      <point x="360" y="573"/>
      <point x="361" y="583"/>
      <point x="361" y="594" type="curve" smooth="yes"/>
      <point x="361" y="652"/>
      <point x="331" y="682"/>
    </contour>
    <contour>
      <point x="319" y="490" type="line"/>
      <point x="304" y="382" type="line"/>
      <point x="277" y="335"/>
      <point x="239" y="304"/>
      <point x="190" y="304" type="curve" smooth="yes"/>
      <point x="151" y="304"/>
      <point x="127" y="335"/>
      <point x="127" y="379" type="curve" smooth="yes"/>
      <point x="127" y="433"/>
      <point x="155" y="490"/>
      <point x="253" y="490" type="curve" smooth="yes"/>
    </contour>
    <component base="minus" xOffset="-36" yOffset="-316"/>
  </outline>
</glyph>
<glyph name="logicalnot" format="2">
  <advance width="419"/>
  <unicode hex="00AC"/>
  <outline>
    <contour>
      <point x="363" y="333" type="line"/>
      <point x="76" y="333" type="line"/>
      <point x="72" y="305" type="line"/>
      <point x="329" y="305" type="line"/>
      <point x="313" y="191" type="line"/>
      <point x="343" y="191" type="line"/>
    </contour>
  </outline>
</glyph>
<glyph name="registered" format="2">
  <advance width="522"/>
  <unicode hex="00AE"/>
  <outline>
    <contour>
      <point x="295" y="726" type="curve"/>
      <point x="189" y="726"/>
      <point x="105" y="638"/>
      <point x="105" y="497" type="curve" smooth="yes"/>
      <point x="105" y="352"/>
      <point x="189" y="272"/>
      <point x="295" y="272" type="curve"/>
      <point x="401" y="272"/>
      <point x="485" y="360"/>
      <point x="485" y="501" type="curve" smooth="yes"/>
      <point x="485" y="646"/>
      <point x="401" y="726"/>
    </contour>
    <contour>
      <point x="317" y="494" type="line"/>
      <point x="289" y="492" type="line"/>
      <point x="350" y="368" type="line"/>
      <point x="381" y="368" type="line"/>
    </contour>
    <contour>
      <point x="295" y="701" type="curve"/>
      <point x="388" y="701"/>
      <point x="460" y="633"/>
      <point x="460" y="501" type="curve" smooth="yes"/>
      <point x="460" y="371"/>
      <point x="386" y="297"/>
      <point x="295" y="297" type="curve"/>
      <point x="204" y="297"/>
      <point x="130" y="365"/>
      <point x="130" y="497" type="curve" smooth="yes"/>
      <point x="130" y="627"/>
      <point x="204" y="701"/>
    </contour>
    <contour>
      <point x="283" y="637" type="curve" smooth="yes"/>
      <point x="231" y="637" type="line"/>
      <point x="231" y="368" type="line"/>
      <point x="258" y="368" type="line"/>
      <point x="258" y="611" type="line"/>
      <point x="288" y="611" type="line" smooth="yes"/>
      <point x="324" y="611"/>
      <point x="345" y="594"/>
      <point x="345" y="561" type="curve" smooth="yes"/>
      <point x="345" y="522"/>
      <point x="325" y="509"/>
      <point x="294" y="509" type="curve" smooth="yes"/>
      <point x="252" y="509" type="line"/>
      <point x="252" y="484" type="line"/>
      <point x="293" y="484" type="line"/>
      <point x="305" y="484" type="line"/>
      <point x="345" y="490"/>
      <point x="372" y="512"/>
      <point x="372" y="561" type="curve" smooth="yes"/>
      <point x="372" y="608"/>
      <point x="341" y="637"/>
    </contour>
  </outline>
</glyph>
<glyph name="degree" format="2">
  <advance width="425"/>
  <unicode hex="00B0"/>
  <outline>
    <contour>
      <point x="208" y="407" type="curve"/>
      <point x="288" y="407"/>
      <point x="344" y="484"/>
      <point x="344" y="575" type="curve" smooth="yes"/>
      <point x="344" y="649"/>
      <point x="303" y="692"/>
      <point x="245" y="692" type="curve"/>
      <point x="165" y="692"/>
      <point x="109" y="615"/>
      <point x="109" y="524" type="curve" smooth="yes"/>
      <point x="109" y="450"/>
      <point x="150" y="407"/>
    </contour>
    <contour>
      <point x="209" y="435" type="curve"/>
      <point x="166" y="435"/>
      <point x="140" y="467"/>
      <point x="140" y="524" type="curve" smooth="yes"/>
      <point x="140" y="601"/>
      <point x="180" y="664"/>
      <point x="244" y="664" type="curve"/>
      <point x="287" y="664"/>
      <point x="313" y="632"/>
      <point x="313" y="575" type="curve" smooth="yes"/>
      <point x="313" y="498"/>
      <point x="273" y="435"/>
    </contour>
  </outline>
</glyph>
<glyph name="paragraph" format="2">
  <advance width="567"/>
  <unicode hex="00B6"/>
  <outline>
    <contour>
      <point x="503" y="682" type="line"/>
      <point x="336" y="682" type="line"/>
      <point x="328" y="649" type="line"/>
      <point x="208" y="-199" type="line"/>
      <point x="239" y="-193" type="line"/>
      <point x="357" y="654" type="line"/>
      <point x="469" y="654" type="line"/>
      <point x="350" y="-199" type="line"/>
      <point x="380" y="-193" type="line"/>
    </contour>
    <contour>
      <point x="336" y="682" type="line"/>
      <point x="201" y="682"/>
      <point x="125" y="589"/>
      <point x="125" y="456" type="curve" smooth="yes"/>
      <point x="125" y="369"/>
      <point x="169" y="304"/>
      <point x="292" y="304" type="curve"/>
    </contour>
  </outline>
</glyph>
<glyph name="ordmasculine" format="2">
  <advance width="423"/>
  <unicode hex="00BA"/>
  <outline>
    <contour>
      <point x="272" y="682" type="curve"/>
      <point x="145" y="682"/>
      <point x="96" y="531"/>
      <point x="96" y="426" type="curve" smooth="yes"/>
      <point x="96" y="331"/>
      <point x="138" y="276"/>
      <point x="212" y="276" type="curve"/>
      <point x="339" y="276"/>
      <point x="388" y="427"/>
      <point x="388" y="532" type="curve" smooth="yes"/>
      <point x="388" y="627"/>
      <point x="346" y="682"/>
    </contour>
    <contour>
      <point x="272" y="655" type="curve"/>
      <point x="326" y="655"/>
      <point x="358" y="611"/>
      <point x="358" y="532" type="curve" smooth="yes"/>
      <point x="358" y="442"/>
      <point x="322" y="303"/>
      <point x="212" y="303" type="curve"/>
      <point x="158" y="303"/>
      <point x="126" y="347"/>
      <point x="126" y="426" type="curve" smooth="yes"/>
      <point x="126" y="516"/>
      <point x="162" y="655"/>
    </contour>
    <component base="minus" xOffset="-39" yOffset="-316"/>
  </outline>
</glyph>
<glyph name="questiondown" format="2">
  <advance width="371"/>
  <unicode hex="00BF"/>
  <outline>
    <contour>
      <point x="116" y="-199" type="curve" smooth="yes"/>
      <point x="176" y="-199"/>
      <point x="224" y="-172"/>
      <point x="275" y="-113" type="curve"/>
      <point x="256" y="-96" type="line"/>
      <point x="210" y="-146"/>
      <point x="171" y="-172"/>
      <point x="117" y="-172" type="curve" smooth="yes"/>
      <point x="60" y="-172"/>
      <point x="30" y="-138"/>
      <point x="30" y="-83" type="curve" smooth="yes"/>
      <point x="30" y="73"/>
      <point x="224" y="73"/>
      <point x="224" y="226" type="curve" smooth="yes"/>
      <point x="224" y="242"/>
      <point x="221" y="261"/>
      <point x="217" y="279" type="curve"/>
      <point x="190" y="272" type="line"/>
      <point x="192" y="260"/>
      <point x="194" y="245"/>
      <point x="194" y="224" type="curve" smooth="yes"/>
      <point x="194" y="87"/>
      <point x="-1" y="85"/>
      <point x="-1" y="-83" type="curve" smooth="yes"/>
      <point x="-1" y="-151"/>
      <point x="41" y="-199"/>
    </contour>
    <component base="period" xScale="-1" yScale="-1" xOffset="267" yOffset="494"/>
  </outline>
</glyph>
<glyph name="AE" format="2">
  <advance width="630"/>
  <unicode hex="00C6"/>
  <anchor x="282" y="0" name="bottom"/>
  <anchor x="430" y="682" name="top"/>
  <outline>
    <contour>
      <point x="614" y="682" type="line"/>
      <point x="289" y="682" type="line"/>
      <point x="-25" y="0" type="line"/>
      <point x="6" y="0" type="line"/>
      <point x="304" y="657" type="line"/>
      <point x="350" y="0" type="line"/>
      <point x="561" y="0" type="line"/>
      <point x="566" y="29" type="line"/>
      <point x="378" y="29" type="line"/>
      <point x="332" y="653" type="line"/>
      <point x="606" y="653" type="line"/>
    </contour>
    <contour>
      <point x="340" y="221" type="line"/>
      <point x="103" y="221" type="line"/>
      <point x="86" y="193" type="line"/>
      <point x="342" y="193" type="line"/>
    </contour>
    <contour>
      <point x="565" y="373" type="line"/>
      <point x="345" y="373" type="line"/>
      <point x="348" y="345" type="line"/>
      <point x="561" y="345" type="line"/>
    </contour>
  </outline>
</glyph>
<glyph name="Eth" format="2">
  <advance width="531"/>
  <unicode hex="00D0"/>
  <anchor x="203" y="0" name="bottom"/>
  <anchor x="287" y="341" name="center"/>
  <anchor x="330" y="682" name="top"/>
  <outline>
    <contour>
      <point x="299" y="367" type="line"/>
      <point x="115" y="367" type="line"/>
      <point x="40" y="367" type="line"/>
      <point x="36" y="339" type="line"/>
      <point x="294" y="339" type="line"/>
    </contour>
    <component base="D" xOffset="3"/>
  </outline>
</glyph>
<glyph name="multiply" format="2">
  <advance width="413"/>
  <unicode hex="00D7"/>
  <outline>
    <contour>
      <point x="338" y="459" type="line"/>
      <point x="215" y="327" type="line"/>
      <point x="130" y="459" type="line"/>
      <point x="105" y="442" type="line"/>
      <point x="194" y="307" type="line"/>
      <point x="71" y="176" type="line"/>
      <point x="89" y="156" type="line"/>
      <point x="210" y="286" type="line"/>
      <point x="298" y="156" type="line"/>
      <point x="322" y="173" type="line"/>
      <point x="232" y="306" type="line"/>
      <point x="357" y="439" type="line"/>
    </contour>
  </outline>
</glyph>
<glyph name="Oslash" format="2">
  <advance width="571"/>
  <unicode hex="00D8"/>
  <anchor x="252" y="0" name="bottom"/>
  <anchor x="344" y="692" name="top"/>
  <outline>
    <contour>
      <point x="461" y="803" type="line"/>
      <point x="414" y="675" type="line"/>
      <point x="409" y="662" type="line"/>
      <point x="170" y="29" type="line"/>
      <point x="162" y="20" type="line"/>
      <point x="113" y="-105" type="line"/>
      <point x="139" y="-114" type="line"/>
      <point x="186" y="9" type="line"/>
      <point x="191" y="22" type="line"/>
      <point x="429" y="654" type="line"/>
      <point x="437" y="664" type="line"/>
      <point x="488" y="794" type="line"/>
    </contour>
    <contour>
      <point x="354" y="692" type="curve" smooth="yes"/>
      <point x="144" y="692"/>
      <point x="63" y="415"/>
      <point x="63" y="231" type="curve" smooth="yes"/>
      <point x="63" y="76"/>
      <point x="130" y="-10"/>
      <point x="240" y="-10" type="curve" smooth="yes"/>
      <point x="454" y="-10"/>
      <point x="531" y="266"/>
      <point x="531" y="454" type="curve" smooth="yes"/>
      <point x="531" y="610"/>
      <point x="464" y="692"/>
    </contour>
    <contour>
      <point x="354" y="664" type="curve"/>
      <point x="449" y="664"/>
      <point x="499" y="594"/>
      <point x="499" y="455" type="curve" smooth="yes"/>
      <point x="499" y="295"/>
      <point x="440" y="19"/>
      <point x="240" y="19" type="curve" smooth="yes"/>
      <point x="147" y="19"/>
      <point x="95" y="91"/>
      <point x="95" y="230" type="curve" smooth="yes"/>
      <point x="95" y="394"/>
      <point x="162" y="664"/>
    </contour>
  </outline>
</glyph>
<glyph name="Thorn" format="2">
  <advance width="457"/>
  <unicode hex="00DE"/>
  <anchor x="194" y="0" name="bottom"/>
  <anchor x="290" y="682" name="top"/>
  <outline>
    <contour>
      <point x="256" y="556" type="curve" smooth="yes"/>
      <point x="153" y="556" type="line"/>
      <point x="157" y="527" type="line"/>
      <point x="255" y="527" type="line" smooth="yes"/>
      <point x="352" y="527"/>
      <point x="404" y="491"/>
      <point x="404" y="392" type="curve" smooth="yes"/>
      <point x="404" y="290"/>
      <point x="364" y="173"/>
      <point x="197" y="173" type="curve" smooth="yes"/>
      <point x="103" y="173" type="line"/>
      <point x="98" y="144" type="line"/>
      <point x="192" y="144" type="line" smooth="yes"/>
      <point x="382" y="144"/>
      <point x="436" y="276"/>
      <point x="436" y="393" type="curve" smooth="yes"/>
      <point x="436" y="505"/>
      <point x="371" y="556"/>
    </contour>
    <contour>
      <point x="187" y="682" type="line"/>
      <point x="156" y="682" type="line"/>
      <point x="60" y="0" type="line"/>
      <point x="91" y="0" type="line"/>
    </contour>
  </outline>
</glyph>
<glyph name="germandbls" format="2">
  <advance width="474"/>
  <unicode hex="00DF"/>
  <outline>
    <contour>
      <point x="-42" y="-196" type="line"/>
      <point x="33" y="-155"/>
      <point x="69" y="-123"/>
      <point x="86" y="0" type="curve" smooth="yes"/>
      <point x="162" y="536" type="line" smooth="yes"/>
      <point x="179" y="657"/>
      <point x="237" y="711"/>
      <point x="307" y="711" type="curve" smooth="yes"/>
      <point x="355" y="711"/>
      <point x="386" y="680"/>
      <point x="386" y="632" type="curve" smooth="yes"/>
      <point x="386" y="504"/>
      <point x="259" y="506"/>
      <point x="259" y="409" type="curve" smooth="yes"/>
      <point x="259" y="319"/>
      <point x="384" y="307"/>
      <point x="384" y="169" type="curve" smooth="yes"/>
      <point x="384" y="113"/>
      <point x="351" y="18"/>
      <point x="261" y="18" type="curve" smooth="yes"/>
      <point x="232" y="18"/>
      <point x="211" y="26"/>
      <point x="188" y="39" type="curve"/>
      <point x="175" y="16" type="line"/>
      <point x="193" y="4"/>
      <point x="226" y="-10"/>
      <point x="262" y="-10" type="curve" smooth="yes"/>
      <point x="370" y="-10"/>
      <point x="414" y="99"/>
      <point x="414" y="169" type="curve" smooth="yes"/>
      <point x="414" y="317"/>
      <point x="289" y="338"/>
      <point x="289" y="410" type="curve" smooth="yes"/>
      <point x="289" y="491"/>
      <point x="417" y="497"/>
      <point x="417" y="632" type="curve" smooth="yes"/>
      <point x="417" y="693"/>
      <point x="374" y="738"/>
      <point x="308" y="738" type="curve" smooth="yes"/>
      <point x="220" y="738"/>
      <point x="151" y="671"/>
      <point x="133" y="542" type="curve" smooth="yes"/>
      <point x="56" y="0" type="line" smooth="yes"/>
      <point x="40" y="-110"/>
      <point x="12" y="-139"/>
      <point x="-51" y="-174" type="curve"/>
    </contour>
  </outline>
</glyph>
<glyph name="ae" format="2">
  <advance width="683"/>
  <unicode hex="00E6"/>
  <anchor x="312" y="0" name="bottom"/>
  <anchor x="383" y="520" name="top"/>
  <outline>
    <contour>
      <point x="252" y="530" type="curve" smooth="yes"/>
      <point x="209" y="530"/>
      <point x="168" y="517"/>
      <point x="123" y="496" type="curve"/>
      <point x="130" y="471" type="line"/>
      <point x="174" y="491"/>
      <point x="211" y="503"/>
      <point x="250" y="503" type="curve" smooth="yes"/>
      <point x="318" y="503"/>
      <point x="348" y="455"/>
      <point x="357" y="380" type="curve"/>
      <point x="346" y="355"/>
      <point x="337" y="328"/>
      <point x="331" y="300" type="curve"/>
      <point x="235" y="300" type="line" smooth="yes"/>
      <point x="93" y="300"/>
      <point x="40" y="209"/>
      <point x="40" y="120" type="curve" smooth="yes"/>
      <point x="40" y="42"/>
      <point x="83" y="-10"/>
      <point x="158" y="-10" type="curve" smooth="yes"/>
      <point x="211" y="-10"/>
      <point x="265" y="15"/>
      <point x="328" y="92" type="curve"/>
      <point x="347" y="25"/>
      <point x="393" y="-10"/>
      <point x="456" y="-10" type="curve" smooth="yes"/>
      <point x="511" y="-10"/>
      <point x="554" y="12"/>
      <point x="600" y="51" type="curve"/>
      <point x="584" y="71" type="line"/>
      <point x="543" y="38"/>
      <point x="506" y="18"/>
      <point x="456" y="18" type="curve" smooth="yes"/>
      <point x="365" y="18"/>
      <point x="341" y="113"/>
      <point x="349" y="213" type="curve"/>
      <point x="546" y="227"/>
      <point x="668" y="291"/>
      <point x="668" y="417" type="curve" smooth="yes"/>
      <point x="668" y="485"/>
      <point x="626" y="530"/>
      <point x="549" y="530" type="curve" smooth="yes"/>
      <point x="473" y="530"/>
      <point x="416" y="486"/>
      <point x="378" y="422" type="curve"/>
      <point x="364" y="483"/>
      <point x="327" y="530"/>
    </contour>
    <contour>
      <point x="326" y="274" type="line"/>
      <point x="318" y="232"/>
      <point x="313" y="164"/>
      <point x="321" y="123" type="curve"/>
      <point x="261" y="47"/>
      <point x="212" y="18"/>
      <point x="158" y="18" type="curve" smooth="yes"/>
      <point x="105" y="18"/>
      <point x="71" y="57"/>
      <point x="71" y="120" type="curve" smooth="yes"/>
      <point x="71" y="197"/>
      <point x="111" y="274"/>
      <point x="238" y="274" type="curve" smooth="yes"/>
    </contour>
    <contour>
      <point x="547" y="503" type="curve" smooth="yes"/>
      <point x="611" y="503"/>
      <point x="638" y="468"/>
      <point x="638" y="417" type="curve" smooth="yes"/>
      <point x="638" y="311"/>
      <point x="540" y="254"/>
      <point x="352" y="239" type="curve"/>
      <point x="367" y="373"/>
      <point x="430" y="503"/>
    </contour>
  </outline>
</glyph>
<glyph name="eth" format="2">
  <advance width="463"/>
  <unicode hex="00F0"/>
  <anchor x="177" y="0" name="bottom"/>
  <anchor x="312" y="734" name="top"/>
  <outline>
    <contour>
      <point x="204" y="739" type="curve"/>
      <point x="194" y="715" type="line"/>
      <point x="231" y="705"/>
      <point x="269" y="681"/>
      <point x="298" y="654" type="curve"/>
      <point x="363" y="582"/>
      <point x="383" y="503"/>
      <point x="376" y="361" type="curve"/>
      <point x="375" y="340" type="line"/>
      <point x="357" y="196"/>
      <point x="307" y="18"/>
      <point x="178" y="18" type="curve" smooth="yes"/>
      <point x="111" y="18"/>
      <point x="76" y="69"/>
      <point x="76" y="159" type="curve" smooth="yes"/>
      <point x="76" y="284"/>
      <point x="128" y="435"/>
      <point x="247" y="435" type="curve" smooth="yes"/>
      <point x="305" y="435"/>
      <point x="345" y="395"/>
      <point x="375" y="328" type="curve"/>
      <point x="382" y="364" type="line"/>
      <point x="352" y="425"/>
      <point x="309" y="463"/>
      <point x="247" y="463" type="curve" smooth="yes"/>
      <point x="110" y="463"/>
      <point x="45" y="294"/>
      <point x="45" y="159" type="curve" smooth="yes"/>
      <point x="45" y="56"/>
      <point x="90" y="-10"/>
      <point x="178" y="-10" type="curve" smooth="yes"/>
      <point x="341" y="-10"/>
      <point x="407" y="229"/>
      <point x="407" y="423" type="curve" smooth="yes"/>
      <point x="407" y="536"/>
      <point x="375" y="613"/>
      <point x="324" y="667" type="curve"/>
      <point x="291" y="700"/>
      <point x="244" y="727"/>
    </contour>
    <contour>
      <point x="380" y="750" type="line"/>
      <point x="300" y="672" type="line"/>
      <point x="293" y="665" type="line"/>
      <point x="205" y="572" type="line"/>
      <point x="227" y="563" type="line"/>
      <point x="311" y="649" type="line"/>
      <point x="317" y="655" type="line"/>
      <point x="395" y="733" type="line"/>
    </contour>
  </outline>
</glyph>
<glyph name="oslash" format="2">
  <advance width="464"/>
  <unicode hex="00F8"/>
  <anchor x="194" y="0" name="bottom"/>
  <anchor x="270" y="520" name="top"/>
  <outline>
    <contour>
      <point x="189" y="-10" type="curve" smooth="yes"/>
      <point x="353" y="-10"/>
      <point x="415" y="201"/>
      <point x="415" y="344" type="curve" smooth="yes"/>
      <point x="415" y="459"/>
      <point x="366" y="530"/>
      <point x="275" y="530" type="curve" smooth="yes"/>
      <point x="111" y="530"/>
      <point x="49" y="319"/>
      <point x="49" y="176" type="curve" smooth="yes"/>
      <point x="49" y="61"/>
      <point x="98" y="-10"/>
    </contour>
    <contour>
      <point x="189" y="18" type="curve" smooth="yes"/>
      <point x="118" y="18"/>
      <point x="80" y="69"/>
      <point x="80" y="175" type="curve" smooth="yes"/>
      <point x="80" y="298"/>
      <point x="129" y="503"/>
      <point x="275" y="503" type="curve" smooth="yes"/>
      <point x="346" y="503"/>
      <point x="384" y="451"/>
      <point x="384" y="345" type="curve" smooth="yes"/>
      <point x="384" y="222"/>
      <point x="335" y="18"/>
    </contour>
    <contour>
      <point x="116" y="14" type="line"/>
      <point x="63" y="-113" type="line"/>
      <point x="87" y="-121" type="line"/>
      <point x="140" y="2" type="line"/>
      <point x="146" y="18" type="line"/>
      <point x="340" y="490" type="line"/>
      <point x="350" y="506" type="line"/>
      <point x="402" y="634" type="line"/>
      <point x="378" y="642" type="line"/>
      <point x="326" y="518" type="line"/>
      <point x="320" y="501" type="line"/>
      <point x="126" y="29" type="line"/>
    </contour>
  </outline>
</glyph>
<glyph name="thorn" format="2">
  <advance width="471"/>
  <unicode hex="00FE"/>
  <anchor x="302" y="734" name="top"/>
  <outline>
    <contour>
      <point x="297" y="530" type="curve" smooth="yes"/>
      <point x="236" y="530"/>
      <point x="192" y="493"/>
      <point x="149" y="443" type="curve"/>
      <point x="190" y="739" type="line"/>
      <point x="160" y="734" type="line"/>
      <point x="28" y="-199" type="line"/>
      <point x="59" y="-195" type="line"/>
      <point x="89" y="14" type="line"/>
      <point x="123" y="-2"/>
      <point x="153" y="-10"/>
      <point x="191" y="-10" type="curve" smooth="yes"/>
      <point x="362" y="-10"/>
      <point x="419" y="207"/>
      <point x="419" y="363" type="curve" smooth="yes"/>
      <point x="419" y="470"/>
      <point x="376" y="530"/>
    </contour>
    <contour>
      <point x="192" y="18" type="curve" smooth="yes"/>
      <point x="149" y="18"/>
      <point x="120" y="29"/>
      <point x="93" y="42" type="curve"/>
      <point x="144" y="404" type="line"/>
      <point x="190" y="461"/>
      <point x="238" y="502"/>
      <point x="296" y="502" type="curve" smooth="yes"/>
      <point x="357" y="502"/>
      <point x="390" y="455"/>
      <point x="389" y="363" type="curve" smooth="yes"/>
      <point x="389" y="225"/>
      <point x="342" y="18"/>
    </contour>
  </outline>
</glyph>
<glyph name="dcroat" format="2">
  <advance width="478"/>
  <unicode hex="0111"/>
  <anchor x="197" y="0" name="bottom"/>
  <anchor x="242" y="260" name="center"/>
  <anchor x="312" y="734" name="top"/>
  <anchor x="488" y="734" name="topright"/>
  <outline>
    <contour>
      <point x="496" y="652" type="line"/>
      <point x="267" y="652" type="line"/>
      <point x="265" y="625" type="line"/>
      <point x="430" y="625" type="line"/>
      <point x="492" y="625" type="line"/>
    </contour>
    <component base="d"/>
  </outline>
</glyph>
<glyph name="Hbar" format="2">
  <advance width="545"/>
  <unicode hex="0126"/>
  <anchor x="232" y="0" name="bottom"/>
  <anchor x="419" y="0" name="bottomright"/>
  <anchor x="282" y="341" name="center"/>
  <anchor x="330" y="682" name="top"/>
  <anchor x="132" y="682" name="topleft"/>
  <outline>
    <contour>
      <point x="539" y="542" type="line"/>
      <point x="487" y="542" type="line"/>
      <point x="84" y="542" type="line"/>
      <point x="81" y="518" type="line"/>
      <point x="133" y="518" type="line"/>
      <point x="536" y="518" type="line"/>
    </contour>
    <component base="H"/>
  </outline>
</glyph>
<glyph name="hbar" format="2">
  <advance width="483"/>
  <unicode hex="0127"/>
  <anchor x="210" y="0" name="bottom"/>
  <anchor x="248" y="260" name="center"/>
  <anchor x="314" y="734" name="top"/>
  <outline>
    <contour>
      <point x="331" y="652" type="line"/>
      <point x="92" y="652" type="line"/>
      <point x="88" y="625" type="line"/>
      <point x="150" y="625" type="line"/>
      <point x="321" y="625" type="line"/>
    </contour>
    <component base="h" xOffset="5"/>
  </outline>
</glyph>
<glyph name="dotlessi" format="2">
  <advance width="216"/>
  <unicode hex="0131"/>
  <anchor x="71" y="0" name="bottom"/>
  <anchor x="84" y="0" name="ogonek"/>
  <anchor x="145" y="520" name="top"/>
  <outline>
    <contour>
      <point x="160" y="520" type="line"/>
      <point x="130" y="520" type="line"/>
      <point x="56" y="0" type="line"/>
      <point x="86" y="0" type="line"/>
    </contour>
  </outline>
</glyph>
<glyph name="kgreenlandic" format="2">
  <advance width="388"/>
  <unicode hex="0138"/>
  <anchor x="164" y="0" name="bottom"/>
  <anchor x="237" y="520" name="top"/>
  <outline>
    <contour>
      <point x="401" y="520" type="line"/>
      <point x="363" y="520" type="line"/>
      <point x="135" y="274" type="line"/>
      <point x="311" y="0" type="line"/>
      <point x="346" y="0" type="line"/>
      <point x="172" y="272" type="line"/>
    </contour>
    <contour>
      <point x="166" y="520" type="line"/>
      <point x="136" y="520" type="line"/>
      <point x="62" y="0" type="line"/>
      <point x="92" y="0" type="line"/>
    </contour>
  </outline>
</glyph>
<glyph name="Lslash" format="2">
  <advance width="388"/>
  <unicode hex="0141"/>
  <anchor x="208" y="0" name="bottom"/>
  <anchor x="322" y="354" name="center"/>
  <anchor x="189" y="682" name="top"/>
  <anchor x="235" y="682" name="topright"/>
  <outline>
    <contour>
      <point x="120" y="301" type="line"/>
      <point x="342" y="453" type="line"/>
      <point x="329" y="474" type="line"/>
      <point x="43" y="278" type="line"/>
      <point x="56" y="257" type="line"/>
    </contour>
    <component base="L" xOffset="17"/>
  </outline>
</glyph>
<glyph name="lslash" format="2">
  <advance width="233"/>
  <unicode hex="0142"/>
  <anchor x="113" y="0" name="bottom"/>
  <anchor x="233" y="375" name="center"/>
  <anchor x="170" y="734" name="top"/>
  <anchor x="208" y="734" name="topright"/>
  <outline>
    <contour>
      <point x="237" y="460" type="line"/>
      <point x="44" y="331" type="line"/>
      <point x="56" y="311" type="line"/>
      <point x="249" y="440" type="line"/>
    </contour>
    <component base="l"/>
  </outline>
</glyph>
<glyph name="napostrophe" format="2">
  <advance width="535"/>
  <unicode hex="0149"/>
  <anchor x="263" y="0" name="bottom"/>
  <anchor x="335" y="520" name="top"/>
  <anchor x="180" y="520" name="topleft"/>
  <outline>
    <contour>
      <point x="152" y="739" type="curve" smooth="yes"/>
      <point x="132" y="739"/>
      <point x="119" y="724"/>
      <point x="119" y="705" type="curve" smooth="yes"/>
      <point x="119" y="693"/>
      <point x="124" y="685"/>
      <point x="134" y="678" type="curve"/>
      <point x="92" y="558" type="line"/>
      <point x="112" y="558" type="line"/>
      <point x="163" y="663" type="line" smooth="yes"/>
      <point x="173" y="684"/>
      <point x="180" y="697"/>
      <point x="180" y="711" type="curve" smooth="yes"/>
      <point x="180" y="727"/>
      <point x="170" y="739"/>
    </contour>
    <component base="n" xOffset="58"/>
  </outline>
</glyph>
<glyph name="OE" format="2">
  <advance width="697"/>
  <unicode hex="0152"/>
  <anchor x="313" y="0" name="bottom"/>
  <anchor x="409" y="682" name="top"/>
  <outline>
    <contour>
      <point x="343" y="692" type="curve" smooth="yes"/>
      <point x="144" y="692"/>
      <point x="63" y="415"/>
      <point x="63" y="231" type="curve" smooth="yes"/>
      <point x="63" y="76"/>
      <point x="130" y="-10"/>
      <point x="233" y="-10" type="curve" smooth="yes"/>
      <point x="268" y="-10"/>
      <point x="299" y="-2"/>
      <point x="323" y="15" type="curve"/>
      <point x="459" y="77"/>
      <point x="512" y="299"/>
      <point x="512" y="454" type="curve" smooth="yes"/>
      <point x="512" y="564"/>
      <point x="478" y="640"/>
      <point x="424" y="668" type="curve"/>
      <point x="400" y="685"/>
      <point x="373" y="692"/>
    </contour>
    <contour>
      <point x="343" y="664" type="curve"/>
      <point x="427" y="664"/>
      <point x="480" y="594"/>
      <point x="480" y="455" type="curve" smooth="yes"/>
      <point x="480" y="295"/>
      <point x="421" y="19"/>
      <point x="233" y="19" type="curve" smooth="yes"/>
      <point x="150" y="19"/>
      <point x="95" y="91"/>
      <point x="95" y="230" type="curve" smooth="yes"/>
      <point x="95" y="394"/>
      <point x="162" y="664"/>
    </contour>
    <contour>
      <point x="633" y="29" type="line"/>
      <point x="333" y="29" type="line"/>
      <point x="288" y="0" type="line"/>
      <point x="627" y="0" type="line"/>
    </contour>
    <contour>
      <point x="639" y="373" type="line"/>
      <point x="491" y="373" type="line"/>
      <point x="486" y="345" type="line"/>
      <point x="635" y="345" type="line"/>
    </contour>
    <contour>
      <point x="718" y="682" type="line"/>
      <point x="386" y="682" type="line"/>
      <point x="413" y="653" type="line"/>
      <point x="710" y="653" type="line"/>
    </contour>
  </outline>
</glyph>
<glyph name="oe" format="2">
  <advance width="745"/>
  <unicode hex="0153"/>
  <anchor x="359" y="0" name="bottom"/>
  <anchor x="406" y="520" name="top"/>
  <outline>
    <contour>
      <point x="275" y="530" type="curve" smooth="yes"/>
      <point x="111" y="530"/>
      <point x="49" y="319"/>
      <point x="49" y="176" type="curve" smooth="yes"/>
      <point x="49" y="61"/>
      <point x="98" y="-10"/>
      <point x="189" y="-10" type="curve" smooth="yes"/>
      <point x="353" y="-10"/>
      <point x="405" y="201"/>
      <point x="415" y="344" type="curve"/>
      <point x="412" y="461"/>
      <point x="366" y="530"/>
    </contour>
    <contour>
      <point x="275" y="503" type="curve" smooth="yes"/>
      <point x="346" y="503"/>
      <point x="384" y="448"/>
      <point x="384" y="345" type="curve" smooth="yes"/>
      <point x="384" y="222"/>
      <point x="335" y="18"/>
      <point x="189" y="18" type="curve" smooth="yes"/>
      <point x="118" y="18"/>
      <point x="80" y="72"/>
      <point x="80" y="175" type="curve" smooth="yes"/>
      <point x="80" y="298"/>
      <point x="129" y="503"/>
    </contour>
    <contour>
      <point x="602" y="530" type="curve" smooth="yes"/>
      <point x="446" y="530"/>
      <point x="381" y="344"/>
      <point x="372" y="185" type="curve"/>
      <point x="369" y="52"/>
      <point x="423" y="-10"/>
      <point x="509" y="-10" type="curve" smooth="yes"/>
      <point x="564" y="-10"/>
      <point x="607" y="12"/>
      <point x="653" y="51" type="curve"/>
      <point x="637" y="71" type="line"/>
      <point x="596" y="38"/>
      <point x="559" y="18"/>
      <point x="509" y="18" type="curve" smooth="yes"/>
      <point x="444" y="18"/>
      <point x="401" y="67"/>
      <point x="401" y="176" type="curve" smooth="yes"/>
      <point x="401" y="334"/>
      <point x="464" y="503"/>
      <point x="600" y="503" type="curve" smooth="yes"/>
      <point x="664" y="503"/>
      <point x="691" y="468"/>
      <point x="691" y="417" type="curve" smooth="yes"/>
      <point x="691" y="310"/>
      <point x="592" y="253"/>
      <point x="401" y="239" type="curve"/>
      <point x="396" y="213" type="line"/>
      <point x="596" y="226"/>
      <point x="721" y="290"/>
      <point x="721" y="417" type="curve" smooth="yes"/>
      <point x="721" y="485"/>
      <point x="679" y="530"/>
    </contour>
  </outline>
</glyph>
<glyph name="Tbar" format="2">
  <advance width="394"/>
  <unicode hex="0166"/>
  <anchor x="161" y="0" name="bottom"/>
  <anchor x="184" y="0" name="bottomright"/>
  <anchor x="210" y="348" name="center"/>
  <anchor x="257" y="682" name="top"/>
  <outline>
    <contour>
      <point x="330" y="382" type="line"/>
      <point x="230" y="382" type="line"/>
      <point x="99" y="382" type="line"/>
      <point x="95" y="354" type="line"/>
      <point x="195" y="354" type="line"/>
      <point x="326" y="354" type="line"/>
    </contour>
    <component base="T"/>
  </outline>
</glyph>
<glyph name="tbar" format="2">
  <advance width="271"/>
  <unicode hex="0167"/>
  <anchor x="152" y="0" name="bottom"/>
  <anchor x="132" y="260" name="center"/>
  <anchor x="163" y="649" name="top"/>
  <anchor x="218" y="734" name="topright"/>
  <outline>
    <contour>
      <point x="239" y="344" type="line"/>
      <point x="102" y="344" type="line"/>
      <point x="34" y="344" type="line"/>
      <point x="30" y="317" type="line"/>
      <point x="231" y="317" type="line"/>
    </contour>
    <component base="t"/>
  </outline>
</glyph>
<glyph name="bstroke" format="2">
  <advance width="571"/>
  <unicode hex="0180"/>
  <anchor x="202" y="0" name="bottom"/>
  <anchor x="339" y="734" name="top"/>
  <outline>
    <contour>
      <point x="338" y="652" type="line"/>
      <point x="99" y="652" type="line"/>
      <point x="95" y="625" type="line"/>
      <point x="157" y="625" type="line"/>
      <point x="328" y="625" type="line"/>
    </contour>
    <component base="b" xOffset="5"/>
  </outline>
</glyph>
<glyph name="btopbar" format="2">
  <advance width="466"/>
  <unicode hex="0183"/>
  <anchor x="203" y="0" name="bottom"/>
  <anchor x="306" y="734" name="top"/>
  <outline>
    <contour>
      <point x="191" y="706" type="line"/>
      <point x="386" y="706" type="line"/>
      <point x="396" y="734" type="line"/>
      <point x="174" y="734" type="line"/>
    </contour>
    <contour>
      <point x="197" y="734" type="line"/>
      <point x="167" y="734" type="line"/>
      <point x="66" y="23" type="line"/>
      <point x="117" y="-1"/>
      <point x="151" y="-10"/>
      <point x="199" y="-10" type="curve" smooth="yes"/>
      <point x="369" y="-10"/>
      <point x="423" y="211"/>
      <point x="423" y="349" type="curve" smooth="yes"/>
      <point x="423" y="466"/>
      <point x="380" y="530"/>
      <point x="299" y="530" type="curve" smooth="yes"/>
      <point x="242" y="530"/>
      <point x="194" y="494"/>
      <point x="156" y="443" type="curve"/>
    </contour>
    <contour>
      <point x="296" y="502" type="curve" smooth="yes"/>
      <point x="359" y="502"/>
      <point x="393" y="451"/>
      <point x="393" y="351" type="curve" smooth="yes"/>
      <point x="393" y="230"/>
      <point x="349" y="18"/>
      <point x="199" y="18" type="curve" smooth="yes"/>
      <point x="155" y="18"/>
      <point x="127" y="29"/>
      <point x="100" y="43" type="curve"/>
      <point x="150" y="404" type="line"/>
      <point x="193" y="462"/>
      <point x="235" y="502"/>
    </contour>
  </outline>
</glyph>
<glyph name="tonesix" format="2">
  <advance width="405"/>
  <unicode hex="0185"/>
  <anchor x="173" y="0" name="bottom"/>
  <anchor x="246" y="520" name="top"/>
  <outline>
    <contour>
      <point x="122" y="418" type="line"/>
      <point x="141" y="520" type="line"/>
      <point x="126" y="485"/>
      <point x="111" y="466"/>
      <point x="91" y="447" type="curve"/>
    </contour>
    <contour>
      <point x="227" y="338" type="curve" smooth="yes"/>
      <point x="141" y="338" type="line"/>
      <point x="167" y="520" type="line"/>
      <point x="141" y="520" type="line"/>
      <point x="122" y="418" type="line"/>
      <point x="65" y="17" type="line"/>
      <point x="103" y="1"/>
      <point x="144" y="-10"/>
      <point x="185" y="-10" type="curve"/>
      <point x="321" y="-10"/>
      <point x="370" y="104"/>
      <point x="370" y="201" type="curve" smooth="yes"/>
      <point x="370" y="281"/>
      <point x="328" y="338"/>
    </contour>
    <contour>
      <point x="184" y="18" type="curve" smooth="yes"/>
      <point x="157" y="18"/>
      <point x="128" y="25"/>
      <point x="98" y="37" type="curve"/>
      <point x="136" y="310" type="line"/>
      <point x="225" y="310" type="line" smooth="yes"/>
      <point x="307" y="310"/>
      <point x="339" y="265"/>
      <point x="339" y="201" type="curve" smooth="yes"/>
      <point x="339" y="121"/>
      <point x="304" y="18"/>
    </contour>
  </outline>
</glyph>
<glyph name="Oopen" format="2">
  <advance width="444"/>
  <unicode hex="0186"/>
  <anchor x="151" y="0" name="bottom"/>
  <anchor x="247" y="682" name="top"/>
  <outline>
    <contour>
      <point x="242" y="692" type="curve" smooth="yes"/>
      <point x="174" y="692"/>
      <point x="127" y="669"/>
      <point x="84" y="634" type="curve"/>
      <point x="99" y="611" type="line"/>
      <point x="144" y="646"/>
      <point x="182" y="663"/>
      <point x="239" y="663" type="curve" smooth="yes"/>
      <point x="320" y="663"/>
      <point x="379" y="597"/>
      <point x="379" y="441" type="curve" smooth="yes"/>
      <point x="379" y="237"/>
      <point x="294" y="20"/>
      <point x="139" y="20" type="curve" smooth="yes"/>
      <point x="79" y="20"/>
      <point x="50" y="44"/>
      <point x="17" y="78" type="curve"/>
      <point x="-3" y="56" type="line"/>
      <point x="32" y="18"/>
      <point x="72" y="-10"/>
      <point x="138" y="-10" type="curve" smooth="yes"/>
      <point x="310" y="-10"/>
      <point x="410" y="218"/>
      <point x="410" y="441" type="curve" smooth="yes"/>
      <point x="410" y="609"/>
      <point x="340" y="692"/>
    </contour>
  </outline>
</glyph>
<glyph name="Chook" format="2">
  <advance width="445"/>
  <unicode hex="0187"/>
  <anchor x="193" y="0" name="bottom"/>
  <anchor x="290" y="682" name="top"/>
  <outline>
    <contour>
      <point x="448" y="638" type="line"/>
      <point x="477" y="633" type="line"/>
      <point x="486" y="699" type="line" smooth="yes"/>
      <point x="495" y="768"/>
      <point x="526" y="791"/>
      <point x="560" y="791" type="curve" smooth="yes"/>
      <point x="587" y="791"/>
      <point x="603" y="780"/>
      <point x="618" y="767" type="curve"/>
      <point x="634" y="786" type="line"/>
      <point x="619" y="801"/>
      <point x="596" y="818"/>
      <point x="559" y="818" type="curve" smooth="yes"/>
      <point x="507" y="818"/>
      <point x="468" y="781"/>
      <point x="457" y="702" type="curve" smooth="yes"/>
    </contour>
    <contour>
      <point x="347" y="692" type="curve" smooth="yes"/>
      <point x="146" y="692"/>
      <point x="70" y="428"/>
      <point x="70" y="247" type="curve" smooth="yes"/>
      <point x="70" y="79"/>
      <point x="143" y="-10"/>
      <point x="250" y="-10" type="curve" smooth="yes"/>
      <point x="314" y="-10"/>
      <point x="362" y="16"/>
      <point x="403" y="54" type="curve"/>
      <point x="387" y="78" type="line"/>
      <point x="349" y="44"/>
      <point x="313" y="20"/>
      <point x="252" y="20" type="curve" smooth="yes"/>
      <point x="163" y="20"/>
      <point x="101" y="95"/>
      <point x="101" y="248" type="curve" smooth="yes"/>
      <point x="101" y="413"/>
      <point x="167" y="663"/>
      <point x="347" y="663" type="curve" smooth="yes"/>
      <point x="395" y="663"/>
      <point x="425" y="648"/>
      <point x="460" y="614" type="curve"/>
      <point x="477" y="633" type="line"/>
      <point x="472" y="637"/>
      <point x="468" y="641"/>
      <point x="462" y="642" type="curve"/>
      <point x="435" y="672"/>
      <point x="400" y="692"/>
    </contour>
  </outline>
</glyph>
<glyph name="chook" format="2">
  <advance width="379"/>
  <unicode hex="0188"/>
  <anchor x="159" y="0" name="bottom"/>
  <anchor x="263" y="734" name="top"/>
  <outline>
    <contour>
      <point x="275" y="530" type="curve" smooth="yes"/>
      <point x="116" y="530"/>
      <point x="57" y="323"/>
      <point x="57" y="189" type="curve" smooth="yes"/>
      <point x="57" y="60"/>
      <point x="114" y="-10"/>
      <point x="202" y="-10" type="curve" smooth="yes"/>
      <point x="250" y="-10"/>
      <point x="292" y="10"/>
      <point x="328" y="43" type="curve"/>
      <point x="314" y="65" type="line"/>
      <point x="281" y="37"/>
      <point x="247" y="18"/>
      <point x="204" y="18" type="curve" smooth="yes"/>
      <point x="133" y="18"/>
      <point x="88" y="74"/>
      <point x="88" y="189" type="curve" smooth="yes"/>
      <point x="88" y="310"/>
      <point x="137" y="503"/>
      <point x="274" y="503" type="curve" smooth="yes"/>
      <point x="315" y="503"/>
      <point x="343" y="487"/>
      <point x="369" y="464" type="curve"/>
      <point x="384" y="480" type="line"/>
      <point x="377" y="487"/>
      <point x="370" y="493"/>
      <point x="363" y="498" type="curve"/>
      <point x="340" y="519"/>
      <point x="311" y="530"/>
    </contour>
    <contour>
      <point x="384" y="480" type="line"/>
      <point x="403" y="619" type="line" smooth="yes"/>
      <point x="412" y="688"/>
      <point x="443" y="711"/>
      <point x="476" y="711" type="curve" smooth="yes"/>
      <point x="504" y="711"/>
      <point x="520" y="700"/>
      <point x="535" y="687" type="curve"/>
      <point x="552" y="706" type="line"/>
      <point x="536" y="721"/>
      <point x="514" y="738"/>
      <point x="477" y="738" type="curve" smooth="yes"/>
      <point x="425" y="738"/>
      <point x="385" y="701"/>
      <point x="374" y="622" type="curve" smooth="yes"/>
      <point x="356" y="496" type="line"/>
    </contour>
  </outline>
</glyph>
<glyph name="Dtopbar" format="2">
  <advance width="461"/>
  <unicode hex="018B"/>
  <anchor x="200" y="0" name="bottom"/>
  <anchor x="296" y="682" name="top"/>
  <outline>
    <contour>
      <point x="398" y="672" type="line"/>
      <point x="308" y="29" type="line"/>
      <point x="202" y="29" type="line" smooth="yes"/>
      <point x="121" y="29"/>
      <point x="69" y="71"/>
      <point x="69" y="167" type="curve" smooth="yes"/>
      <point x="69" y="295"/>
      <point x="143" y="379"/>
      <point x="259" y="379" type="curve" smooth="yes"/>
      <point x="363" y="379" type="line"/>
      <point x="368" y="408" type="line"/>
      <point x="263" y="408" type="line" smooth="yes"/>
      <point x="130" y="408"/>
      <point x="38" y="315"/>
      <point x="38" y="167" type="curve" smooth="yes"/>
      <point x="38" y="55"/>
      <point x="103" y="0"/>
      <point x="197" y="0" type="curve" smooth="yes"/>
      <point x="334" y="0" type="line"/>
      <point x="430" y="682" type="line"/>
    </contour>
    <contour>
      <point x="164" y="682" type="line"/>
      <point x="159" y="653" type="line"/>
      <point x="404" y="653" type="line"/>
      <point x="430" y="682" type="line"/>
    </contour>
  </outline>
</glyph>
<glyph name="dtopbar" format="2">
  <advance width="473"/>
  <unicode hex="018C"/>
  <anchor x="207" y="0" name="bottom"/>
  <anchor x="310" y="734" name="top"/>
  <outline>
    <contour>
      <point x="223" y="706" type="line"/>
      <point x="420" y="706" type="line"/>
      <point x="446" y="734" type="line"/>
      <point x="227" y="734" type="line"/>
    </contour>
    <contour>
      <point x="424" y="734" type="line"/>
      <point x="384" y="453" type="line"/>
      <point x="367" y="490"/>
      <point x="334" y="530"/>
      <point x="271" y="530" type="curve" smooth="yes"/>
      <point x="116" y="530"/>
      <point x="61" y="319"/>
      <point x="61" y="183" type="curve" smooth="yes"/>
      <point x="61" y="61"/>
      <point x="108" y="-10"/>
      <point x="185" y="-10" type="curve" smooth="yes"/>
      <point x="258" y="-10"/>
      <point x="306" y="56"/>
      <point x="338" y="122" type="curve"/>
      <point x="325" y="0" type="line"/>
      <point x="350" y="0" type="line"/>
      <point x="454" y="734" type="line"/>
    </contour>
    <contour>
      <point x="272" y="503" type="curve" smooth="yes"/>
      <point x="330" y="503"/>
      <point x="360" y="462"/>
      <point x="379" y="415" type="curve"/>
      <point x="346" y="179" type="line"/>
      <point x="302" y="86"/>
      <point x="257" y="18"/>
      <point x="188" y="18" type="curve" smooth="yes"/>
      <point x="128" y="18"/>
      <point x="92" y="78"/>
      <point x="92" y="184" type="curve" smooth="yes"/>
      <point x="92" y="311"/>
      <point x="140" y="503"/>
    </contour>
  </outline>
</glyph>
<glyph name="deltaturned" format="2">
  <advance width="459"/>
  <unicode hex="018D"/>
  <anchor x="273" y="520" name="top"/>
  <outline>
    <contour>
      <point x="171" y="-199" type="curve" smooth="yes"/>
      <point x="267" y="-199"/>
      <point x="316" y="-139"/>
      <point x="316" y="-76" type="curve" smooth="yes"/>
      <point x="316" y="-25"/>
      <point x="292" y="5"/>
      <point x="240" y="35" type="curve"/>
      <point x="376" y="96"/>
      <point x="416" y="212"/>
      <point x="416" y="339" type="curve" smooth="yes"/>
      <point x="416" y="456"/>
      <point x="363" y="530"/>
      <point x="271" y="530" type="curve" smooth="yes"/>
      <point x="109" y="530"/>
      <point x="61" y="336"/>
      <point x="61" y="226" type="curve" smooth="yes"/>
      <point x="61" y="126"/>
      <point x="103" y="72"/>
      <point x="192" y="28" type="curve" smooth="yes"/>
      <point x="262" y="-6"/>
      <point x="285" y="-33"/>
      <point x="285" y="-76" type="curve" smooth="yes"/>
      <point x="285" y="-124"/>
      <point x="252" y="-171"/>
      <point x="172" y="-171" type="curve" smooth="yes"/>
      <point x="127" y="-171"/>
      <point x="94" y="-155"/>
      <point x="63" y="-124" type="curve"/>
      <point x="44" y="-143" type="line"/>
      <point x="77" y="-179"/>
      <point x="122" y="-199"/>
    </contour>
    <contour>
      <point x="214" y="47" type="curve"/>
      <point x="126" y="92"/>
      <point x="92" y="138"/>
      <point x="92" y="226" type="curve" smooth="yes"/>
      <point x="92" y="316"/>
      <point x="127" y="502"/>
      <point x="269" y="502" type="curve" smooth="yes"/>
      <point x="343" y="502"/>
      <point x="386" y="439"/>
      <point x="386" y="339" type="curve" smooth="yes"/>
      <point x="386" y="222"/>
      <point x="353" y="111"/>
    </contour>
  </outline>
</glyph>
<glyph name="Ereversed" format="2">
  <advance width="408"/>
  <unicode hex="018E"/>
  <outline>
    <contour>
      <point x="106" y="682" type="line"/>
      <point x="101" y="653" type="line"/>
      <point x="341" y="653" type="line"/>
      <point x="303" y="373" type="line"/>
      <point x="98" y="373" type="line"/>
      <point x="94" y="345" type="line"/>
      <point x="298" y="345" type="line"/>
      <point x="255" y="29" type="line"/>
      <point x="9" y="29" type="line"/>
      <point x="4" y="0" type="line"/>
      <point x="281" y="0" type="line"/>
      <point x="377" y="682" type="line"/>
    </contour>
  </outline>
</glyph>
<glyph name="Eopen" format="2">
  <advance width="426"/>
  <unicode hex="0190"/>
  <anchor x="200" y="0" name="bottom"/>
  <anchor x="295" y="682" name="top"/>
  <outline>
    <contour>
      <point x="285" y="692" type="curve" smooth="yes"/>
      <point x="182" y="692"/>
      <point x="107" y="611"/>
      <point x="107" y="499" type="curve" smooth="yes"/>
      <point x="107" y="427"/>
      <point x="143" y="385"/>
      <point x="194" y="370" type="curve"/>
      <point x="111" y="359"/>
      <point x="43" y="285"/>
      <point x="43" y="163" type="curve" smooth="yes"/>
      <point x="43" y="54"/>
      <point x="106" y="-10"/>
      <point x="201" y="-10" type="curve" smooth="yes"/>
      <point x="266" y="-10"/>
      <point x="327" y="20"/>
      <point x="385" y="81" type="curve"/>
      <point x="366" y="102" type="line"/>
      <point x="319" y="52"/>
      <point x="266" y="19"/>
      <point x="202" y="19" type="curve" smooth="yes"/>
      <point x="125" y="19"/>
      <point x="75" y="69"/>
      <point x="75" y="163" type="curve" smooth="yes"/>
      <point x="75" y="278"/>
      <point x="144" y="357"/>
      <point x="250" y="355" type="curve" smooth="yes"/>
      <point x="294" y="354" type="line"/>
      <point x="303" y="383" type="line"/>
      <point x="256" y="383" type="line" smooth="yes"/>
      <point x="184" y="383"/>
      <point x="139" y="427"/>
      <point x="139" y="502" type="curve" smooth="yes"/>
      <point x="139" y="598"/>
      <point x="201" y="663"/>
      <point x="285" y="663" type="curve" smooth="yes"/>
      <point x="345" y="663"/>
      <point x="387" y="634"/>
      <point x="420" y="590" type="curve"/>
      <point x="441" y="608" type="line"/>
      <point x="400" y="661"/>
      <point x="356" y="692"/>
    </contour>
  </outline>
</glyph>
<glyph name="Ghook" format="2">
  <advance width="458"/>
  <unicode hex="0193"/>
  <anchor x="199" y="0" name="bottom"/>
  <anchor x="295" y="682" name="top"/>
  <outline>
    <contour>
      <point x="350" y="692" type="curve" smooth="yes"/>
      <point x="165" y="692"/>
      <point x="70" y="454"/>
      <point x="70" y="247" type="curve" smooth="yes"/>
      <point x="70" y="77"/>
      <point x="142" y="-10"/>
      <point x="257" y="-10" type="curve" smooth="yes"/>
      <point x="311" y="-10"/>
      <point x="368" y="8"/>
      <point x="419" y="41" type="curve"/>
      <point x="463" y="359" type="line"/>
      <point x="313" y="359" type="line"/>
      <point x="313" y="330" type="line"/>
      <point x="428" y="330" type="line"/>
      <point x="390" y="58" type="line"/>
      <point x="349" y="33"/>
      <point x="311" y="19"/>
      <point x="259" y="19" type="curve" smooth="yes"/>
      <point x="162" y="19"/>
      <point x="102" y="93"/>
      <point x="102" y="246" type="curve" smooth="yes"/>
      <point x="102" y="440"/>
      <point x="182" y="663"/>
      <point x="349" y="663" type="curve" smooth="yes"/>
      <point x="400" y="663"/>
      <point x="436" y="647"/>
      <point x="472" y="614" type="curve"/>
      <point x="489" y="631" type="line"/>
      <point x="483" y="636"/>
      <point x="477" y="640"/>
      <point x="472" y="645" type="curve" smooth="yes"/>
      <point x="442" y="675"/>
      <point x="404" y="692"/>
    </contour>
    <contour>
      <point x="460" y="638" type="line"/>
      <point x="489" y="631" type="line"/>
      <point x="499" y="699" type="line" smooth="yes"/>
      <point x="509" y="768"/>
      <point x="539" y="791"/>
      <point x="573" y="791" type="curve" smooth="yes"/>
      <point x="600" y="791"/>
      <point x="616" y="780"/>
      <point x="631" y="767" type="curve"/>
      <point x="647" y="786" type="line"/>
      <point x="632" y="801"/>
      <point x="609" y="818"/>
      <point x="572" y="818" type="curve" smooth="yes"/>
      <point x="520" y="818"/>
      <point x="480" y="781"/>
      <point x="469" y="702" type="curve" smooth="yes"/>
    </contour>
  </outline>
</glyph>
<glyph name="Gammaafrican" format="2">
  <advance width="442"/>
  <unicode hex="0194"/>
  <anchor x="287" y="682" name="top"/>
  <outline>
    <contour>
      <point x="164" y="-199" type="curve" smooth="yes"/>
      <point x="210" y="-199"/>
      <point x="241" y="-157"/>
      <point x="241" y="-93" type="curve" smooth="yes"/>
      <point x="241" y="-55"/>
      <point x="231" y="-17"/>
      <point x="215" y="52" type="curve"/>
      <point x="201" y="81" type="line"/>
      <point x="116" y="682" type="line"/>
      <point x="84" y="682" type="line"/>
      <point x="180" y="57" type="line"/>
      <point x="193" y="30" type="line"/>
      <point x="204" y="-26"/>
      <point x="211" y="-58"/>
      <point x="211" y="-93" type="curve" smooth="yes"/>
      <point x="211" y="-139"/>
      <point x="195" y="-171"/>
      <point x="165" y="-171" type="curve" smooth="yes"/>
      <point x="146" y="-171"/>
      <point x="137" y="-158"/>
      <point x="137" y="-134" type="curve" smooth="yes"/>
      <point x="137" y="-88"/>
      <point x="162" y="-36"/>
      <point x="193" y="30" type="curve"/>
      <point x="215" y="52" type="line"/>
      <point x="489" y="682" type="line"/>
      <point x="456" y="682" type="line"/>
      <point x="201" y="81" type="line"/>
      <point x="180" y="57" type="line"/>
      <point x="135" y="-29"/>
      <point x="108" y="-82"/>
      <point x="108" y="-134" type="curve" smooth="yes"/>
      <point x="108" y="-174"/>
      <point x="128" y="-199"/>
    </contour>
  </outline>
</glyph>
<glyph name="hv" format="2">
  <advance width="728"/>
  <unicode hex="0195"/>
  <anchor x="334" y="0" name="bottom"/>
  <anchor x="437" y="734" name="top"/>
  <outline>
    <contour>
      <point x="676" y="520" type="curve"/>
      <point x="646" y="520" type="line"/>
      <point x="646" y="509"/>
      <point x="646" y="489"/>
      <point x="646" y="475" type="curve" smooth="yes"/>
      <point x="646" y="278"/>
      <point x="618" y="16"/>
      <point x="461" y="18" type="curve" smooth="yes"/>
      <point x="402" y="19"/>
      <point x="368" y="63"/>
      <point x="381" y="157" type="curve" smooth="yes"/>
      <point x="410" y="369" type="line" smooth="yes"/>
      <point x="424" y="471"/>
      <point x="393" y="530"/>
      <point x="318" y="530" type="curve" smooth="yes"/>
      <point x="253" y="530"/>
      <point x="190" y="471"/>
      <point x="144" y="368" type="curve"/>
      <point x="196" y="739" type="line"/>
      <point x="166" y="734" type="line"/>
      <point x="62" y="0" type="line"/>
      <point x="92" y="0" type="line"/>
      <point x="136" y="310" type="line"/>
      <point x="186" y="424"/>
      <point x="244" y="504"/>
      <point x="313" y="504" type="curve" smooth="yes"/>
      <point x="370" y="504"/>
      <point x="393" y="460"/>
      <point x="380" y="367" type="curve" smooth="yes"/>
      <point x="351" y="158" type="line" smooth="yes"/>
      <point x="336" y="53"/>
      <point x="379" y="-10"/>
      <point x="459" y="-10" type="curve" smooth="yes"/>
      <point x="642" y="-10"/>
      <point x="676" y="260"/>
      <point x="676" y="467" type="curve" smooth="yes"/>
      <point x="676" y="484"/>
      <point x="676" y="506"/>
    </contour>
  </outline>
</glyph>
<glyph name="Iotaafrican" format="2">
  <advance width="316"/>
  <unicode hex="0196"/>
  <anchor x="102" y="0" name="bottom"/>
  <anchor x="171" y="682" name="top"/>
  <outline>
    <contour>
      <point x="186" y="682" type="line"/>
      <point x="155" y="682" type="line"/>
      <point x="86" y="189" type="line"/>
      <point x="117" y="189" type="line"/>
    </contour>
    <component base="hookHELPERright.case" xOffset="84" yOffset="189"/>
  </outline>
</glyph>
<glyph name="Khook" format="2">
  <advance width="457"/>
  <unicode hex="0198"/>
  <anchor x="199" y="0" name="bottom"/>
  <anchor x="295" y="682" name="top"/>
  <outline>
    <contour>
      <point x="193" y="682" type="line"/>
      <point x="162" y="682" type="line"/>
      <point x="66" y="0" type="line"/>
      <point x="97" y="0" type="line"/>
    </contour>
    <contour>
      <point x="364" y="599" type="line" smooth="yes"/>
      <point x="408" y="657"/>
      <point x="423" y="664"/>
      <point x="448" y="664" type="curve" smooth="yes"/>
      <point x="472" y="664"/>
      <point x="484" y="651"/>
      <point x="500" y="635" type="curve"/>
      <point x="519" y="653" type="line"/>
      <point x="501" y="673"/>
      <point x="482" y="692"/>
      <point x="449" y="692" type="curve" smooth="yes"/>
      <point x="412" y="692"/>
      <point x="388" y="676"/>
      <point x="346" y="621" type="curve" smooth="yes"/>
      <point x="152" y="367" type="line"/>
      <point x="358" y="0" type="line"/>
      <point x="396" y="0" type="line"/>
      <point x="188" y="367" type="line"/>
    </contour>
  </outline>
</glyph>
<glyph name="khook" format="2">
  <advance width="504"/>
  <unicode hex="0199"/>
  <outline>
    <contour>
      <point x="165" y="519" type="line"/>
      <point x="135" y="519" type="line"/>
      <point x="62" y="0" type="line"/>
      <point x="92" y="0" type="line"/>
      <point x="134" y="296" type="line"/>
      <point x="185" y="421"/>
      <point x="244" y="504"/>
      <point x="312" y="504" type="curve" smooth="yes"/>
      <point x="359" y="504"/>
      <point x="376" y="472"/>
      <point x="376" y="428" type="curve" smooth="yes"/>
      <point x="376" y="345"/>
      <point x="321" y="285"/>
      <point x="220" y="252" type="curve"/>
      <point x="315" y="0" type="line"/>
      <point x="348" y="0" type="line"/>
      <point x="257" y="239" type="line"/>
      <point x="353" y="276"/>
      <point x="407" y="340"/>
      <point x="407" y="428" type="curve" smooth="yes"/>
      <point x="407" y="493"/>
      <point x="371" y="530"/>
      <point x="316" y="530" type="curve" smooth="yes"/>
      <point x="256" y="530"/>
      <point x="196" y="483"/>
      <point x="144" y="362" type="curve"/>
    </contour>
    <component base="hookaboveHELPER" xOffset="61"/>
  </outline>
</glyph>
<glyph name="lambdastroke" format="2">
  <advance width="375"/>
  <unicode hex="019B"/>
  <anchor x="157" y="0" name="bottom"/>
  <anchor x="260" y="734" name="top"/>
  <outline>
    <contour>
      <point x="151" y="562" type="line"/>
      <point x="230" y="645" type="line"/>
      <point x="242" y="655" type="line"/>
      <point x="314" y="733" type="line"/>
      <point x="297" y="750" type="line"/>
      <point x="223" y="670" type="line"/>
      <point x="211" y="660" type="line"/>
      <point x="129" y="571" type="line"/>
    </contour>
    <contour>
      <point x="143" y="738" type="curve"/>
      <point x="137" y="715" type="line"/>
      <point x="218" y="691"/>
      <point x="232" y="634"/>
      <point x="236" y="521" type="curve"/>
      <point x="225" y="523" type="line"/>
      <point x="1" y="1" type="line"/>
      <point x="29" y="-6" type="line"/>
      <point x="236" y="485" type="line"/>
      <point x="243" y="167"/>
      <point x="282" y="82"/>
      <point x="322" y="-6" type="curve"/>
      <point x="350" y="4" type="line"/>
      <point x="311" y="92"/>
      <point x="271" y="170"/>
      <point x="264" y="508" type="curve" smooth="yes"/>
      <point x="261" y="648"/>
      <point x="239" y="712"/>
    </contour>
  </outline>
</glyph>
<glyph name="Mturned" format="2">
  <advance width="758"/>
  <unicode hex="019C"/>
  <anchor x="349" y="0" name="bottom"/>
  <anchor x="445" y="682" name="top"/>
  <outline>
    <contour>
      <point x="185" y="-10" type="curve" smooth="yes"/>
      <point x="254" y="-10"/>
      <point x="315" y="49"/>
      <point x="358" y="121" type="curve"/>
      <point x="354" y="154" type="line"/>
      <point x="310" y="80"/>
      <point x="255" y="19"/>
      <point x="188" y="19" type="curve" smooth="yes"/>
      <point x="126" y="19"/>
      <point x="100" y="72"/>
      <point x="114" y="174" type="curve" smooth="yes"/>
      <point x="185" y="682" type="line"/>
      <point x="154" y="682" type="line"/>
      <point x="84" y="181" type="line" smooth="yes"/>
      <point x="67" y="59"/>
      <point x="104" y="-10"/>
    </contour>
    <contour>
      <point x="457" y="-10" type="curve" smooth="yes"/>
      <point x="526" y="-10"/>
      <point x="586" y="49"/>
      <point x="626" y="120" type="curve"/>
      <point x="622" y="150" type="line"/>
      <point x="581" y="80"/>
      <point x="527" y="19"/>
      <point x="459" y="19" type="curve" smooth="yes"/>
      <point x="398" y="19"/>
      <point x="371" y="72"/>
      <point x="385" y="174" type="curve" smooth="yes"/>
      <point x="456" y="682" type="line"/>
      <point x="425" y="682" type="line"/>
      <point x="355" y="181" type="line" smooth="yes"/>
      <point x="338" y="59"/>
      <point x="375" y="-10"/>
    </contour>
    <contour>
      <point x="605" y="0" type="line"/>
      <point x="631" y="0" type="line"/>
      <point x="727" y="682" type="line"/>
      <point x="697" y="682" type="line"/>
      <point x="620" y="141" type="line"/>
    </contour>
  </outline>
</glyph>
<glyph name="Nhookleft" format="2">
  <advance width="664"/>
  <unicode hex="019D"/>
  <anchor x="236" y="0" name="bottom"/>
  <anchor x="338" y="682" name="top"/>
  <outline>
    <contour>
      <point x="-20" y="-199" type="curve" smooth="yes"/>
      <point x="31" y="-199"/>
      <point x="72" y="-163"/>
      <point x="84" y="-83" type="curve" smooth="yes"/>
      <point x="96" y="0" type="line"/>
      <point x="67" y="0" type="line"/>
      <point x="55" y="-79" type="line" smooth="yes"/>
      <point x="44" y="-150"/>
      <point x="14" y="-171"/>
      <point x="-19" y="-171" type="curve" smooth="yes"/>
      <point x="-47" y="-171"/>
      <point x="-63" y="-161"/>
      <point x="-76" y="-148" type="curve"/>
      <point x="-93" y="-167" type="line"/>
      <point x="-77" y="-182"/>
      <point x="-55" y="-199"/>
    </contour>
    <component base="N"/>
  </outline>
</glyph>
<glyph name="nlegrightlong" format="2">
  <advance width="477"/>
  <unicode hex="019E"/>
  <outline>
    <contour>
      <point x="318" y="530" type="curve" smooth="yes"/>
      <point x="252" y="530"/>
      <point x="190" y="470"/>
      <point x="143" y="367" type="curve"/>
      <point x="161" y="520" type="line"/>
      <point x="136" y="520" type="line"/>
      <point x="62" y="0" type="line"/>
      <point x="92" y="0" type="line"/>
      <point x="136" y="310" type="line"/>
      <point x="186" y="424"/>
      <point x="245" y="504"/>
      <point x="314" y="504" type="curve" smooth="yes"/>
      <point x="368" y="504"/>
      <point x="393" y="460"/>
      <point x="380" y="367" type="curve" smooth="yes"/>
      <point x="300" y="-199" type="line"/>
      <point x="330" y="-195" type="line"/>
      <point x="410" y="369" type="line" smooth="yes"/>
      <point x="424" y="471"/>
      <point x="392" y="530"/>
    </contour>
  </outline>
</glyph>
<glyph name="Oi" format="2">
  <advance width="728"/>
  <unicode hex="01A2"/>
  <anchor x="430" y="682" name="top"/>
  <outline>
    <contour>
      <point x="591" y="692" type="curve" smooth="yes"/>
      <point x="541" y="692"/>
      <point x="498" y="667"/>
      <point x="461" y="641" type="curve"/>
      <point x="474" y="621" type="line"/>
      <point x="509" y="644"/>
      <point x="545" y="665"/>
      <point x="590" y="665" type="curve" smooth="yes"/>
      <point x="642" y="665"/>
      <point x="659" y="632"/>
      <point x="649" y="559" type="curve" smooth="yes"/>
      <point x="544" y="-193" type="line"/>
      <point x="574" y="-193" type="line"/>
      <point x="680" y="560" type="line" smooth="yes"/>
      <point x="691" y="640"/>
      <point x="665" y="692"/>
    </contour>
    <contour>
      <point x="349" y="692" type="curve" smooth="yes"/>
      <point x="143" y="692"/>
      <point x="70" y="417"/>
      <point x="70" y="247" type="curve" smooth="yes"/>
      <point x="70" y="81"/>
      <point x="140" y="-10"/>
      <point x="253" y="-10" type="curve" smooth="yes"/>
      <point x="461" y="-10"/>
      <point x="531" y="263"/>
      <point x="531" y="438" type="curve" smooth="yes"/>
      <point x="531" y="605"/>
      <point x="460" y="692"/>
    </contour>
    <contour>
      <point x="347" y="664" type="curve"/>
      <point x="442" y="664"/>
      <point x="499" y="589"/>
      <point x="499" y="439" type="curve" smooth="yes"/>
      <point x="499" y="285"/>
      <point x="445" y="19"/>
      <point x="254" y="19" type="curve" smooth="yes"/>
      <point x="161" y="19"/>
      <point x="102" y="96"/>
      <point x="102" y="246" type="curve" smooth="yes"/>
      <point x="102" y="402"/>
      <point x="162" y="664"/>
    </contour>
  </outline>
</glyph>
<glyph name="oi" format="2">
  <advance width="610"/>
  <unicode hex="01A3"/>
  <anchor x="348" y="520" name="top"/>
  <outline>
    <contour>
      <point x="433" y="-199" type="line"/>
      <point x="464" y="-195" type="line"/>
      <point x="547" y="396" type="line" smooth="yes"/>
      <point x="558" y="475"/>
      <point x="533" y="530"/>
      <point x="460" y="530" type="curve" smooth="yes"/>
      <point x="417" y="530"/>
      <point x="383" y="516"/>
      <point x="350" y="498" type="curve"/>
      <point x="372" y="482" type="line"/>
      <point x="397" y="494"/>
      <point x="423" y="503"/>
      <point x="457" y="503" type="curve" smooth="yes"/>
      <point x="511" y="503"/>
      <point x="527" y="467"/>
      <point x="517" y="397" type="curve" smooth="yes"/>
    </contour>
    <contour>
      <point x="274" y="530" type="curve" smooth="yes"/>
      <point x="113" y="530"/>
      <point x="57" y="321"/>
      <point x="57" y="188" type="curve" smooth="yes"/>
      <point x="57" y="63"/>
      <point x="109" y="-10"/>
      <point x="201" y="-10" type="curve" smooth="yes"/>
      <point x="365" y="-10"/>
      <point x="418" y="206"/>
      <point x="418" y="336" type="curve" smooth="yes"/>
      <point x="418" y="462"/>
      <point x="363" y="530"/>
    </contour>
    <contour>
      <point x="273" y="503" type="curve" smooth="yes"/>
      <point x="346" y="503"/>
      <point x="387" y="444"/>
      <point x="387" y="335" type="curve" smooth="yes"/>
      <point x="387" y="214"/>
      <point x="341" y="18"/>
      <point x="202" y="18" type="curve" smooth="yes"/>
      <point x="129" y="18"/>
      <point x="88" y="78"/>
      <point x="88" y="187" type="curve" smooth="yes"/>
      <point x="88" y="302"/>
      <point x="132" y="503"/>
    </contour>
  </outline>
</glyph>
<glyph name="phook" format="2">
  <advance width="570"/>
  <unicode hex="01A5"/>
  <anchor x="308" y="734" name="top"/>
  <outline>
    <contour>
      <point x="34" y="-199" type="line"/>
      <point x="65" y="-195" type="line"/>
      <point x="95" y="14" type="line"/>
      <point x="129" y="-3"/>
      <point x="159" y="-10"/>
      <point x="198" y="-10" type="curve" smooth="yes"/>
      <point x="368" y="-10"/>
      <point x="422" y="211"/>
      <point x="422" y="349" type="curve" smooth="yes"/>
      <point x="422" y="466"/>
      <point x="379" y="530"/>
      <point x="298" y="530" type="curve" smooth="yes"/>
      <point x="242" y="530"/>
      <point x="195" y="495"/>
      <point x="156" y="445" type="curve"/>
      <point x="165" y="519" type="line"/>
      <point x="135" y="519" type="line"/>
    </contour>
    <contour>
      <point x="198" y="18" type="curve" smooth="yes"/>
      <point x="154" y="18"/>
      <point x="126" y="29"/>
      <point x="99" y="43" type="curve"/>
      <point x="150" y="404" type="line"/>
      <point x="192" y="462"/>
      <point x="234" y="502"/>
      <point x="295" y="502" type="curve" smooth="yes"/>
      <point x="358" y="502"/>
      <point x="392" y="451"/>
      <point x="392" y="351" type="curve" smooth="yes"/>
      <point x="392" y="230"/>
      <point x="348" y="18"/>
    </contour>
    <component base="hookaboveHELPER" xOffset="61"/>
  </outline>
</glyph>
<glyph name="Yr" format="2">
  <advance width="474"/>
  <unicode hex="01A6"/>
  <anchor x="303" y="682" name="top"/>
  <outline>
    <contour>
      <point x="66" y="0" type="line"/>
      <point x="97" y="0" type="line"/>
      <point x="193" y="682" type="line"/>
      <point x="162" y="682" type="line"/>
    </contour>
    <contour>
      <point x="117" y="190" type="line"/>
      <point x="255" y="190" type="line"/>
      <point x="397" y="213"/>
      <point x="439" y="313"/>
      <point x="439" y="407" type="curve" smooth="yes"/>
      <point x="439" y="503"/>
      <point x="387" y="552"/>
      <point x="272" y="552" type="curve" smooth="yes"/>
      <point x="166" y="552" type="line"/>
      <point x="161" y="523" type="line"/>
      <point x="273" y="523" type="line" smooth="yes"/>
      <point x="370" y="523"/>
      <point x="407" y="483"/>
      <point x="407" y="407" type="curve" smooth="yes"/>
      <point x="407" y="325"/>
      <point x="368" y="219"/>
      <point x="234" y="219" type="curve" smooth="yes"/>
      <point x="122" y="219" type="line"/>
    </contour>
    <contour>
      <point x="361" y="-130" type="line"/>
      <point x="395" y="-130" type="line"/>
      <point x="280" y="202" type="line"/>
      <point x="250" y="197" type="line"/>
    </contour>
  </outline>
</glyph>
<glyph name="Tonetwo" format="2">
  <advance width="431"/>
  <unicode hex="01A7"/>
  <anchor x="185" y="0" name="bottom"/>
  <anchor x="281" y="682" name="top"/>
  <outline>
    <contour>
      <point x="295" y="692" type="curve" smooth="yes"/>
      <point x="223" y="692"/>
      <point x="176" y="665"/>
      <point x="124" y="621" type="curve"/>
      <point x="140" y="598" type="line"/>
      <point x="193" y="643"/>
      <point x="234" y="663"/>
      <point x="293" y="663" type="curve" smooth="yes"/>
      <point x="358" y="663"/>
      <point x="392" y="622"/>
      <point x="392" y="558" type="curve" smooth="yes"/>
      <point x="392" y="456"/>
      <point x="331" y="419"/>
      <point x="233" y="382" type="curve" smooth="yes"/>
      <point x="116" y="338"/>
      <point x="43" y="279"/>
      <point x="43" y="148" type="curve" smooth="yes"/>
      <point x="43" y="50"/>
      <point x="103" y="-10"/>
      <point x="188" y="-10" type="curve" smooth="yes"/>
      <point x="262" y="-10"/>
      <point x="320" y="22"/>
      <point x="372" y="72" type="curve"/>
      <point x="355" y="95" type="line"/>
      <point x="309" y="50"/>
      <point x="260" y="19"/>
      <point x="190" y="19" type="curve" smooth="yes"/>
      <point x="121" y="19"/>
      <point x="75" y="64"/>
      <point x="75" y="148" type="curve" smooth="yes"/>
      <point x="75" y="266"/>
      <point x="134" y="313"/>
      <point x="242" y="354" type="curve" smooth="yes"/>
      <point x="351" y="396"/>
      <point x="424" y="441"/>
      <point x="424" y="558" type="curve" smooth="yes"/>
      <point x="424" y="636"/>
      <point x="378" y="692"/>
    </contour>
  </outline>
</glyph>
<glyph name="eshreversedloop" format="2">
  <advance width="267"/>
  <unicode hex="01AA"/>
  <anchor x="184" y="734" name="top"/>
  <outline>
    <contour>
      <point x="119" y="738" type="curve" smooth="yes"/>
      <point x="64" y="738"/>
      <point x="17" y="679"/>
      <point x="17" y="604" type="curve" smooth="yes"/>
      <point x="17" y="551"/>
      <point x="47" y="519"/>
      <point x="89" y="519" type="curve" smooth="yes"/>
      <point x="118" y="519"/>
      <point x="144" y="530"/>
      <point x="165" y="549" type="curve"/>
      <point x="160" y="570" type="line"/>
      <point x="141" y="557"/>
      <point x="122" y="546"/>
      <point x="93" y="546" type="curve" smooth="yes"/>
      <point x="65" y="546"/>
      <point x="48" y="563"/>
      <point x="48" y="604" type="curve" smooth="yes"/>
      <point x="48" y="661"/>
      <point x="75" y="711"/>
      <point x="117" y="711" type="curve" smooth="yes"/>
      <point x="151" y="711"/>
      <point x="163" y="677"/>
      <point x="157" y="633" type="curve" smooth="yes"/>
      <point x="68" y="0" type="line"/>
      <point x="98" y="0" type="line"/>
      <point x="187" y="632" type="line" smooth="yes"/>
      <point x="195" y="695"/>
      <point x="169" y="738"/>
    </contour>
    <component base="hookHELPERright" xOffset="66"/>
  </outline>
</glyph>
<glyph name="tpalatalhook" format="2">
  <advance width="270"/>
  <unicode hex="01AB"/>
  <anchor x="169" y="649" name="top"/>
  <outline>
    <contour>
      <point x="127" y="-199" type="curve" smooth="yes"/>
      <point x="178" y="-199"/>
      <point x="221" y="-163"/>
      <point x="232" y="-83" type="curve" smooth="yes"/>
      <point x="247" y="20" type="line"/>
      <point x="215" y="8" type="line"/>
      <point x="202" y="-80" type="line" smooth="yes"/>
      <point x="192" y="-150"/>
      <point x="162" y="-172"/>
      <point x="128" y="-172" type="curve" smooth="yes"/>
      <point x="101" y="-172"/>
      <point x="85" y="-161"/>
      <point x="71" y="-148" type="curve"/>
      <point x="54" y="-167" type="line"/>
      <point x="70" y="-182"/>
      <point x="92" y="-199"/>
    </contour>
    <contour>
      <point x="180" y="653" type="line"/>
      <point x="158" y="650" type="line"/>
      <point x="131" y="510" type="line"/>
      <point x="76" y="118" type="line" smooth="yes"/>
      <point x="65" y="33"/>
      <point x="98" y="-10"/>
      <point x="156" y="-10" type="curve" smooth="yes"/>
      <point x="180" y="-10"/>
      <point x="201" y="-4"/>
      <point x="221" y="7" type="curve"/>
      <point x="247" y="20" type="line"/>
      <point x="238" y="40" type="line"/>
      <point x="213" y="27"/>
      <point x="188" y="17"/>
      <point x="161" y="17" type="curve" smooth="yes"/>
      <point x="113" y="17"/>
      <point x="97" y="53"/>
      <point x="106" y="120" type="curve" smooth="yes"/>
    </contour>
    <contour>
      <point x="278" y="520" type="line"/>
      <point x="62" y="520" type="line"/>
      <point x="58" y="493" type="line"/>
      <point x="270" y="493" type="line"/>
    </contour>
  </outline>
</glyph>
<glyph name="Thook" format="2">
  <advance width="412"/>
  <unicode hex="01AC"/>
  <anchor x="176" y="0" name="bottom"/>
  <anchor x="272" y="682" name="top"/>
  <outline>
    <contour>
      <point x="170" y="0" type="line"/>
      <point x="201" y="0" type="line"/>
      <point x="291" y="652" type="line"/>
      <point x="460" y="652" type="line"/>
      <point x="470" y="682" type="line"/>
      <point x="200" y="682" type="line"/>
      <point x="195" y="652" type="line"/>
      <point x="261" y="652" type="line"/>
    </contour>
    <contour>
      <point x="81" y="491" type="curve"/>
      <point x="105" y="503" type="line"/>
      <point x="100" y="519"/>
      <point x="95" y="537"/>
      <point x="95" y="562" type="curve" smooth="yes"/>
      <point x="95" y="609"/>
      <point x="118" y="652"/>
      <point x="173" y="652" type="curve" smooth="yes"/>
      <point x="196" y="652" type="line"/>
      <point x="200" y="682" type="line"/>
      <point x="180" y="682" type="line" smooth="yes"/>
      <point x="105" y="682"/>
      <point x="65" y="629"/>
      <point x="65" y="562" type="curve" smooth="yes"/>
      <point x="65" y="532"/>
      <point x="72" y="510"/>
    </contour>
  </outline>
</glyph>
<glyph name="thook" format="2">
  <advance width="269"/>
  <unicode hex="01AD"/>
  <anchor x="104" y="0" name="bottom"/>
  <anchor x="207" y="734" name="top"/>
  <outline>
    <contour>
      <point x="134" y="529" type="line"/>
      <point x="164" y="529" type="line"/>
      <point x="175" y="609" type="line" smooth="yes"/>
      <point x="184" y="679"/>
      <point x="213" y="711"/>
      <point x="260" y="711" type="curve" smooth="yes"/>
      <point x="286" y="711"/>
      <point x="307" y="701"/>
      <point x="326" y="686" type="curve"/>
      <point x="342" y="708" type="line"/>
      <point x="320" y="726"/>
      <point x="294" y="738"/>
      <point x="259" y="738" type="curve" smooth="yes"/>
      <point x="201" y="738"/>
      <point x="156" y="698"/>
      <point x="145" y="611" type="curve" smooth="yes"/>
    </contour>
    <contour>
      <point x="164" y="529" type="line"/>
      <point x="133" y="529" type="line"/>
      <point x="131" y="510" type="line"/>
      <point x="76" y="118" type="line" smooth="yes"/>
      <point x="64" y="32"/>
      <point x="97" y="-10"/>
      <point x="156" y="-10" type="curve" smooth="yes"/>
      <point x="190" y="-10"/>
      <point x="219" y="2"/>
      <point x="246" y="20" type="curve"/>
      <point x="235" y="44" type="line"/>
      <point x="212" y="29"/>
      <point x="187" y="17"/>
      <point x="160" y="17" type="curve" smooth="yes"/>
      <point x="112" y="17"/>
      <point x="96" y="53"/>
      <point x="106" y="120" type="curve" smooth="yes"/>
    </contour>
    <contour>
      <point x="277" y="520" type="line"/>
      <point x="61" y="520" type="line"/>
      <point x="57" y="493" type="line"/>
      <point x="269" y="493" type="line"/>
    </contour>
  </outline>
</glyph>
<glyph name="Upsilonafrican" format="2">
  <advance width="565"/>
  <unicode hex="01B1"/>
  <anchor x="252" y="0" name="bottom"/>
  <anchor x="348" y="682" name="top"/>
  <outline>
    <contour>
      <point x="254" y="-10" type="curve" smooth="yes"/>
      <point x="427" y="-10"/>
      <point x="529" y="193"/>
      <point x="529" y="423" type="curve" smooth="yes"/>
      <point x="529" y="539"/>
      <point x="493" y="608"/>
      <point x="450" y="653" type="curve"/>
      <point x="550" y="653" type="line"/>
      <point x="555" y="682" type="line"/>
      <point x="413" y="682" type="line"/>
      <point x="409" y="654" type="line"/>
      <point x="458" y="610"/>
      <point x="497" y="536"/>
      <point x="497" y="418" type="curve" smooth="yes"/>
      <point x="497" y="215"/>
      <point x="413" y="19"/>
      <point x="255" y="19" type="curve" smooth="yes"/>
      <point x="160" y="19"/>
      <point x="101" y="96"/>
      <point x="101" y="238" type="curve" smooth="yes"/>
      <point x="101" y="402"/>
      <point x="162" y="567"/>
      <point x="283" y="654" type="curve"/>
      <point x="287" y="682" type="line"/>
      <point x="145" y="682" type="line"/>
      <point x="140" y="653" type="line"/>
      <point x="241" y="654" type="line"/>
      <point x="133" y="568"/>
      <point x="70" y="413"/>
      <point x="70" y="241" type="curve" smooth="yes"/>
      <point x="70" y="83"/>
      <point x="139" y="-10"/>
    </contour>
  </outline>
</glyph>
<glyph name="Vhook" format="2">
  <advance width="520"/>
  <unicode hex="01B2"/>
  <anchor x="214" y="0" name="bottom"/>
  <anchor x="310" y="682" name="top"/>
  <outline>
    <contour>
      <point x="438" y="692" type="curve" smooth="yes"/>
      <point x="417" y="692"/>
      <point x="400" y="685"/>
      <point x="386" y="676" type="curve"/>
      <point x="395" y="654" type="line"/>
      <point x="407" y="661"/>
      <point x="419" y="665"/>
      <point x="433" y="665" type="curve" smooth="yes"/>
      <point x="461" y="665"/>
      <point x="469" y="640"/>
      <point x="463" y="599" type="curve" smooth="yes"/>
      <point x="420" y="292" type="line" smooth="yes"/>
      <point x="395" y="110"/>
      <point x="312" y="19"/>
      <point x="215" y="19" type="curve" smooth="yes"/>
      <point x="140" y="19"/>
      <point x="100" y="75"/>
      <point x="115" y="180" type="curve" smooth="yes"/>
      <point x="185" y="682" type="line"/>
      <point x="154" y="682" type="line"/>
      <point x="84" y="179" type="line" smooth="yes"/>
      <point x="68" y="62"/>
      <point x="120" y="-10"/>
      <point x="213" y="-10" type="curve" smooth="yes"/>
      <point x="325" y="-10"/>
      <point x="423" y="89"/>
      <point x="451" y="287" type="curve" smooth="yes"/>
      <point x="494" y="599" type="line" smooth="yes"/>
      <point x="503" y="663"/>
      <point x="479" y="692"/>
    </contour>
  </outline>
</glyph>
<glyph name="Yhook" format="2">
  <advance width="437"/>
  <unicode hex="01B3"/>
  <anchor x="189" y="0" name="bottom"/>
  <anchor x="285" y="682" name="top"/>
  <anchor x="77" y="682" name="topleft"/>
  <outline>
    <contour>
      <point x="384" y="620" type="curve" smooth="yes"/>
      <point x="220" y="301" type="line"/>
      <point x="115" y="682" type="line"/>
      <point x="81" y="682" type="line"/>
      <point x="200" y="270" type="line"/>
      <point x="162" y="0" type="line"/>
      <point x="193" y="0" type="line"/>
      <point x="232" y="270" type="line"/>
      <point x="407" y="607" type="line" smooth="yes"/>
      <point x="431" y="652"/>
      <point x="448" y="665"/>
      <point x="475" y="665" type="curve" smooth="yes"/>
      <point x="497" y="665"/>
      <point x="514" y="651"/>
      <point x="530" y="632" type="curve"/>
      <point x="547" y="650" type="line"/>
      <point x="530" y="672"/>
      <point x="506" y="692"/>
      <point x="475" y="692" type="curve" smooth="yes"/>
      <point x="437" y="692"/>
      <point x="411" y="673"/>
    </contour>
  </outline>
</glyph>
<glyph name="yhook" format="2">
  <advance width="371"/>
  <unicode hex="01B4"/>
  <anchor x="229" y="520" name="top"/>
  <outline>
    <contour>
      <point x="-9" y="-197" type="line"/>
      <point x="89" y="-165"/>
      <point x="131" y="-118"/>
      <point x="176" y="-3" type="curve" smooth="yes"/>
      <point x="363" y="480" type="line" smooth="yes"/>
      <point x="380" y="525"/>
      <point x="395" y="541"/>
      <point x="419" y="541" type="curve" smooth="yes"/>
      <point x="430" y="541"/>
      <point x="440" y="538"/>
      <point x="449" y="533" type="curve"/>
      <point x="460" y="557" type="line"/>
      <point x="449" y="563"/>
      <point x="437" y="568"/>
      <point x="420" y="568" type="curve" smooth="yes"/>
      <point x="383" y="568"/>
      <point x="359" y="548"/>
      <point x="336" y="487" type="curve" smooth="yes"/>
      <point x="160" y="23" type="line"/>
      <point x="91" y="520" type="line"/>
      <point x="59" y="520" type="line"/>
      <point x="136" y="0" type="line"/>
      <point x="149" y="1" type="line"/>
      <point x="109" y="-96"/>
      <point x="78" y="-142"/>
      <point x="-11" y="-173" type="curve"/>
    </contour>
  </outline>
</glyph>
<glyph name="Zstroke" format="2">
  <advance width="511"/>
  <unicode hex="01B5"/>
  <anchor x="180" y="0" name="bottom"/>
  <anchor x="276" y="682" name="top"/>
  <outline>
    <contour>
      <point x="2" y="0" type="line"/>
      <point x="336" y="0" type="line"/>
      <point x="346" y="30" type="line"/>
      <point x="44" y="30" type="line"/>
      <point x="441" y="655" type="line"/>
      <point x="445" y="682" type="line"/>
      <point x="129" y="682" type="line"/>
      <point x="124" y="653" type="line"/>
      <point x="404" y="653" type="line"/>
      <point x="7" y="28" type="line"/>
    </contour>
    <component base="hyphen" xScale="1.1" xOffset="27" yOffset="30"/>
  </outline>
</glyph>
<glyph name="zstroke" format="2">
  <advance width="338"/>
  <unicode hex="01B6"/>
  <anchor x="139" y="0" name="bottom"/>
  <anchor x="212" y="520" name="top"/>
  <outline>
    <contour>
      <point x="353" y="520" type="line"/>
      <point x="88" y="520" type="line"/>
      <point x="84" y="492" type="line"/>
      <point x="311" y="492" type="line"/>
      <point x="-2" y="25" type="line"/>
      <point x="-6" y="0" type="line"/>
      <point x="272" y="0" type="line"/>
      <point x="280" y="28" type="line"/>
      <point x="37" y="28" type="line"/>
      <point x="349" y="495" type="line"/>
    </contour>
    <component base="hyphen" xOffset="2" yOffset="-43"/>
  </outline>
</glyph>
<glyph name="Ezh" format="2">
  <advance width="393"/>
  <unicode hex="01B7"/>
  <anchor x="166" y="0" name="bottom"/>
  <outline>
    <contour>
      <point x="148" y="-10" type="curve" smooth="yes"/>
      <point x="266" y="-10"/>
      <point x="352" y="87"/>
      <point x="352" y="224" type="curve" smooth="yes"/>
      <point x="352" y="321"/>
      <point x="298" y="377"/>
      <point x="194" y="377" type="curve" smooth="yes"/>
      <point x="157" y="377" type="line"/>
      <point x="123" y="348" type="line"/>
      <point x="191" y="348" type="line" smooth="yes"/>
      <point x="270" y="348"/>
      <point x="320" y="312"/>
      <point x="320" y="223" type="curve" smooth="yes"/>
      <point x="320" y="104"/>
      <point x="253" y="19"/>
      <point x="148" y="19" type="curve" smooth="yes"/>
      <point x="86" y="19"/>
      <point x="51" y="43"/>
      <point x="17" y="91" type="curve"/>
      <point x="-4" y="74" type="line"/>
      <point x="30" y="21"/>
      <point x="74" y="-10"/>
    </contour>
    <contour>
      <point x="127" y="377" type="line"/>
      <point x="123" y="348" type="line"/>
      <point x="161" y="377" type="line"/>
      <point x="394" y="656" type="line"/>
      <point x="397" y="682" type="line"/>
      <point x="96" y="682" type="line"/>
      <point x="92" y="654" type="line"/>
      <point x="352" y="654" type="line"/>
    </contour>
  </outline>
</glyph>
<glyph name="Ezhreversed" format="2">
  <advance width="394"/>
  <unicode hex="01B8"/>
  <anchor x="168" y="0" name="bottom"/>
  <anchor x="263" y="682" name="top"/>
  <outline>
    <contour>
      <point x="182" y="-10" type="curve" smooth="yes"/>
      <point x="259" y="-10"/>
      <point x="310" y="19"/>
      <point x="359" y="72" type="curve"/>
      <point x="342" y="92" type="line"/>
      <point x="293" y="40"/>
      <point x="249" y="19"/>
      <point x="184" y="19" type="curve" smooth="yes"/>
      <point x="109" y="19"/>
      <point x="66" y="69"/>
      <point x="66" y="154" type="curve" smooth="yes"/>
      <point x="66" y="271"/>
      <point x="131" y="348"/>
      <point x="242" y="348" type="curve" smooth="yes"/>
      <point x="308" y="348" type="line"/>
      <point x="284" y="377" type="line"/>
      <point x="244" y="377" type="line" smooth="yes"/>
      <point x="119" y="377"/>
      <point x="35" y="290"/>
      <point x="35" y="154" type="curve" smooth="yes"/>
      <point x="35" y="54"/>
      <point x="93" y="-10"/>
    </contour>
    <contour>
      <point x="312" y="378" type="line"/>
      <point x="162" y="654" type="line"/>
      <point x="425" y="654" type="line"/>
      <point x="429" y="682" type="line"/>
      <point x="128" y="682" type="line"/>
      <point x="124" y="656" type="line"/>
      <point x="282" y="377" type="line"/>
      <point x="308" y="348" type="line"/>
    </contour>
  </outline>
</glyph>
<glyph name="ezhreversed" format="2">
  <advance width="369"/>
  <unicode hex="01B9"/>
  <anchor x="228" y="520" name="top"/>
  <outline>
    <contour>
      <point x="140" y="-199" type="curve" smooth="yes"/>
      <point x="209" y="-199"/>
      <point x="260" y="-170"/>
      <point x="308" y="-117" type="curve"/>
      <point x="290" y="-98" type="line"/>
      <point x="243" y="-150"/>
      <point x="199" y="-171"/>
      <point x="141" y="-171" type="curve" smooth="yes"/>
      <point x="65" y="-171"/>
      <point x="28" y="-115"/>
      <point x="28" y="-35" type="curve" smooth="yes"/>
      <point x="28" y="92"/>
      <point x="96" y="167"/>
      <point x="214" y="167" type="curve" smooth="yes"/>
      <point x="257" y="167" type="line"/>
      <point x="233" y="195" type="line"/>
      <point x="217" y="195" type="line" smooth="yes"/>
      <point x="84" y="195"/>
      <point x="-4" y="108"/>
      <point x="-4" y="-35" type="curve" smooth="yes"/>
      <point x="-4" y="-130"/>
      <point x="49" y="-199"/>
    </contour>
    <contour>
      <point x="262" y="195" type="line"/>
      <point x="124" y="492" type="line"/>
      <point x="377" y="492" type="line"/>
      <point x="381" y="520" type="line"/>
      <point x="92" y="520" type="line"/>
      <point x="88" y="495" type="line"/>
      <point x="232" y="195" type="line"/>
      <point x="258" y="167" type="line"/>
    </contour>
  </outline>
</glyph>
<glyph name="ezhtail" format="2">
  <advance width="367"/>
  <unicode hex="01BA"/>
  <outline>
    <contour>
      <point x="57" y="-199" type="curve"/>
      <point x="70" y="-177" type="line"/>
      <point x="34" y="-153"/>
      <point x="17" y="-134"/>
      <point x="17" y="-100" type="curve" smooth="yes"/>
      <point x="17" y="-49"/>
      <point x="52" y="-21"/>
      <point x="150" y="-5" type="curve" smooth="yes"/>
      <point x="262" y="13"/>
      <point x="330" y="51"/>
      <point x="330" y="161" type="curve" smooth="yes"/>
      <point x="330" y="228"/>
      <point x="292" y="269"/>
      <point x="227" y="269" type="curve" smooth="yes"/>
      <point x="141" y="269" type="line"/>
      <point x="353" y="495" type="line"/>
      <point x="357" y="520" type="line"/>
      <point x="72" y="520" type="line"/>
      <point x="67" y="492" type="line"/>
      <point x="308" y="492" type="line"/>
      <point x="103" y="269" type="line"/>
      <point x="98" y="241" type="line"/>
      <point x="222" y="241" type="line" smooth="yes"/>
      <point x="270" y="241"/>
      <point x="299" y="217"/>
      <point x="299" y="160" type="curve" smooth="yes"/>
      <point x="299" y="63"/>
      <point x="239" y="38"/>
      <point x="143" y="22" type="curve" smooth="yes"/>
      <point x="38" y="4"/>
      <point x="-14" y="-31"/>
      <point x="-14" y="-99" type="curve" smooth="yes"/>
      <point x="-14" y="-146"/>
      <point x="14" y="-175"/>
    </contour>
  </outline>
</glyph>
<glyph name="tonefive" format="2">
  <advance width="347"/>
  <unicode hex="01BD"/>
  <anchor x="143" y="0" name="bottom"/>
  <anchor x="216" y="520" name="top"/>
  <outline>
    <contour>
      <point x="332" y="520" type="line"/>
      <point x="111" y="520" type="line"/>
      <point x="76" y="272" type="line"/>
      <point x="99" y="272" type="line"/>
      <point x="130" y="291"/>
      <point x="152" y="300"/>
      <point x="188" y="300" type="curve" smooth="yes"/>
      <point x="237" y="300"/>
      <point x="268" y="268"/>
      <point x="268" y="201" type="curve" smooth="yes"/>
      <point x="268" y="99"/>
      <point x="213" y="18"/>
      <point x="134" y="18" type="curve" smooth="yes"/>
      <point x="87" y="18"/>
      <point x="61" y="35"/>
      <point x="33" y="69" type="curve"/>
      <point x="13" y="52" type="line"/>
      <point x="42" y="15"/>
      <point x="76" y="-10"/>
      <point x="132" y="-10" type="curve" smooth="yes"/>
      <point x="229" y="-10"/>
      <point x="299" y="83"/>
      <point x="299" y="201" type="curve" smooth="yes"/>
      <point x="299" y="281"/>
      <point x="261" y="328"/>
      <point x="193" y="328" type="curve" smooth="yes"/>
      <point x="157" y="328"/>
      <point x="131" y="315"/>
      <point x="110" y="301" type="curve"/>
      <point x="137" y="492" type="line"/>
      <point x="322" y="492" type="line"/>
    </contour>
  </outline>
</glyph>
<glyph name="glottalinvertedstroke" format="2">
  <advance width="492"/>
  <unicode hex="01BE"/>
  <anchor x="153" y="0" name="bottom"/>
  <anchor x="224" y="734" name="top"/>
  <outline>
    <contour>
      <point x="134" y="595" type="line"/>
      <point x="130" y="568" type="line"/>
      <point x="187" y="568" type="line"/>
      <point x="314" y="568" type="line"/>
      <point x="318" y="595" type="line"/>
    </contour>
    <component base="glottalstopinverted"/>
  </outline>
</glyph>
<glyph name="wynn" format="2">
  <advance width="466"/>
  <unicode hex="01BF"/>
  <anchor x="276" y="520" name="top"/>
  <outline>
    <contour>
      <point x="162" y="520" type="line"/>
      <point x="136" y="520" type="line"/>
      <point x="34" y="-199" type="line"/>
      <point x="65" y="-193" type="line"/>
      <point x="150" y="412" type="line"/>
      <point x="151" y="421" type="line"/>
    </contour>
    <contour>
      <point x="145" y="431" type="curve"/>
      <point x="145" y="400" type="line"/>
      <point x="193" y="459"/>
      <point x="245" y="502"/>
      <point x="310" y="502" type="curve" smooth="yes"/>
      <point x="366" y="502"/>
      <point x="400" y="465"/>
      <point x="400" y="390" type="curve" smooth="yes"/>
      <point x="400" y="228"/>
      <point x="286" y="134"/>
      <point x="142" y="46" type="curve" smooth="yes"/>
      <point x="94" y="17" type="line"/>
      <point x="89" y="-12" type="line"/>
      <point x="148" y="21" type="line" smooth="yes"/>
      <point x="302" y="108"/>
      <point x="432" y="213"/>
      <point x="432" y="391" type="curve" smooth="yes"/>
      <point x="432" y="480"/>
      <point x="386" y="530"/>
      <point x="314" y="530" type="curve" smooth="yes"/>
      <point x="246" y="530"/>
      <point x="194" y="490"/>
    </contour>
  </outline>
</glyph>
<glyph name="clickdental" format="2">
  <advance width="222"/>
  <unicode hex="01C0"/>
  <outline>
    <contour>
      <point x="199" y="738" type="line"/>
      <point x="171" y="734" type="line"/>
      <point x="66" y="0" type="line"/>
      <point x="95" y="0" type="line"/>
    </contour>
  </outline>
</glyph>
<glyph name="clickalveolar" format="2">
  <advance width="262"/>
  <unicode hex="01C2"/>
  <outline>
    <contour>
      <point x="59" y="428" type="line"/>
      <point x="146" y="428" type="line"/>
      <point x="266" y="428" type="line"/>
      <point x="269" y="453" type="line"/>
      <point x="62" y="453" type="line"/>
    </contour>
    <contour>
      <point x="37" y="279" type="line"/>
      <point x="125" y="279" type="line"/>
      <point x="244" y="279" type="line"/>
      <point x="248" y="304" type="line"/>
      <point x="41" y="304" type="line"/>
    </contour>
    <component base="clickdental" xOffset="20"/>
  </outline>
</glyph>
<glyph name="clickretroflex" format="2">
  <advance width="300"/>
  <unicode hex="01C3"/>
  <outline>
    <contour>
      <point x="213" y="738" type="line"/>
      <point x="185" y="734" type="line"/>
      <point x="108" y="193" type="line"/>
      <point x="137" y="193" type="line"/>
    </contour>
    <component base="period" xOffset="50"/>
  </outline>
</glyph>
<glyph name="Gstroke" format="2">
  <advance width="512"/>
  <unicode hex="01E4"/>
  <anchor x="226" y="0" name="bottom"/>
  <anchor x="322" y="682" name="top"/>
  <outline>
    <contour>
      <point x="350" y="692" type="curve" smooth="yes"/>
      <point x="165" y="692"/>
      <point x="70" y="454"/>
      <point x="70" y="247" type="curve" smooth="yes"/>
      <point x="70" y="77"/>
      <point x="142" y="-10"/>
      <point x="257" y="-10" type="curve" smooth="yes"/>
      <point x="311" y="-10"/>
      <point x="368" y="8"/>
      <point x="419" y="41" type="curve"/>
      <point x="463" y="359" type="line"/>
      <point x="313" y="359" type="line"/>
      <point x="313" y="330" type="line"/>
      <point x="428" y="330" type="line"/>
      <point x="390" y="58" type="line"/>
      <point x="349" y="33"/>
      <point x="311" y="19"/>
      <point x="259" y="19" type="curve" smooth="yes"/>
      <point x="162" y="19"/>
      <point x="102" y="93"/>
      <point x="102" y="246" type="curve" smooth="yes"/>
      <point x="102" y="440"/>
      <point x="182" y="663"/>
      <point x="349" y="663" type="curve" smooth="yes"/>
      <point x="400" y="663"/>
      <point x="435" y="647"/>
      <point x="468" y="610" type="curve"/>
      <point x="489" y="631" type="line"/>
      <point x="451" y="672"/>
      <point x="408" y="692"/>
    </contour>
    <component base="hyphen" xOffset="230" yOffset="-90"/>
  </outline>
</glyph>
<glyph name="gstroke" format="2">
  <advance width="404"/>
  <unicode hex="01E5"/>
  <anchor x="245" y="520" name="top"/>
  <outline>
    <contour>
      <point x="280" y="530" type="curve" smooth="yes"/>
      <point x="119" y="530"/>
      <point x="57" y="326"/>
      <point x="57" y="195" type="curve" smooth="yes"/>
      <point x="57" y="75"/>
      <point x="105" y="0"/>
      <point x="186" y="0" type="curve" smooth="yes"/>
      <point x="242" y="0"/>
      <point x="290" y="40"/>
      <point x="323" y="99" type="curve"/>
      <point x="308" y="-6" type="line" smooth="yes"/>
      <point x="291" y="-128"/>
      <point x="233" y="-173"/>
      <point x="167" y="-173" type="curve" smooth="yes"/>
      <point x="114" y="-173"/>
      <point x="77" y="-153"/>
      <point x="42" y="-130" type="curve"/>
      <point x="29" y="-152" type="line"/>
      <point x="64" y="-176"/>
      <point x="110" y="-199"/>
      <point x="165" y="-199" type="curve" smooth="yes"/>
      <point x="246" y="-199"/>
      <point x="317" y="-150"/>
      <point x="338" y="-2" type="curve" smooth="yes"/>
      <point x="408" y="488" type="line"/>
      <point x="372" y="511"/>
      <point x="338" y="530"/>
    </contour>
    <contour>
      <point x="280" y="504" type="curve" smooth="yes"/>
      <point x="320" y="504"/>
      <point x="351" y="492"/>
      <point x="376" y="474" type="curve"/>
      <point x="330" y="147" type="line"/>
      <point x="291" y="70"/>
      <point x="245" y="28"/>
      <point x="189" y="28" type="curve" smooth="yes"/>
      <point x="125" y="28"/>
      <point x="88" y="91"/>
      <point x="88" y="196" type="curve" smooth="yes"/>
      <point x="88" y="314"/>
      <point x="142" y="504"/>
    </contour>
    <contour>
      <point x="173" y="-82" type="line"/>
      <point x="382" y="-82" type="line"/>
      <point x="386" y="-54" type="line"/>
      <point x="177" y="-54" type="line"/>
    </contour>
  </outline>
</glyph>
<glyph name="Hwair" format="2">
  <advance width="786"/>
  <unicode hex="01F6"/>
  <anchor x="363" y="0" name="bottom"/>
  <anchor x="459" y="682" name="top"/>
  <outline>
    <contour>
      <point x="734" y="520" type="curve"/>
      <point x="704" y="520" type="line"/>
      <point x="705" y="509"/>
      <point x="705" y="489"/>
      <point x="705" y="475" type="curve" smooth="yes"/>
      <point x="705" y="278"/>
      <point x="677" y="16"/>
      <point x="520" y="18" type="curve" smooth="yes"/>
      <point x="461" y="19"/>
      <point x="426" y="63"/>
      <point x="439" y="157" type="curve" smooth="yes"/>
      <point x="513" y="682" type="line"/>
      <point x="482" y="682" type="line"/>
      <point x="439" y="374" type="line"/>
      <point x="150" y="374" type="line"/>
      <point x="193" y="682" type="line"/>
      <point x="162" y="682" type="line"/>
      <point x="66" y="0" type="line"/>
      <point x="97" y="0" type="line"/>
      <point x="145" y="345" type="line"/>
      <point x="435" y="345" type="line"/>
      <point x="409" y="157" type="line" smooth="yes"/>
      <point x="395" y="59"/>
      <point x="433" y="-10"/>
      <point x="518" y="-10" type="curve" smooth="yes"/>
      <point x="701" y="-10"/>
      <point x="734" y="260"/>
      <point x="734" y="467" type="curve" smooth="yes"/>
      <point x="734" y="484"/>
      <point x="734" y="506"/>
    </contour>
  </outline>
</glyph>
<glyph name="Wynn" format="2">
  <advance width="461"/>
  <unicode hex="01F7"/>
  <anchor x="200" y="0" name="bottom"/>
  <anchor x="296" y="682" name="top"/>
  <outline>
    <contour>
      <point x="173" y="613" type="curve"/>
      <point x="170" y="582" type="line"/>
      <point x="211" y="622"/>
      <point x="263" y="663"/>
      <point x="336" y="663" type="curve" smooth="yes"/>
      <point x="394" y="663"/>
      <point x="431" y="624"/>
      <point x="431" y="548" type="curve" smooth="yes"/>
      <point x="431" y="403"/>
      <point x="341" y="337"/>
      <point x="222" y="287" type="curve" smooth="yes"/>
      <point x="126" y="247" type="line"/>
      <point x="121" y="218" type="line"/>
      <point x="221" y="258" type="line" smooth="yes"/>
      <point x="353" y="311"/>
      <point x="463" y="383"/>
      <point x="463" y="548" type="curve" smooth="yes"/>
      <point x="463" y="638"/>
      <point x="414" y="692"/>
      <point x="339" y="692" type="curve" smooth="yes"/>
      <point x="266" y="692"/>
      <point x="213" y="653"/>
    </contour>
    <contour>
      <point x="193" y="682" type="line"/>
      <point x="162" y="682" type="line"/>
      <point x="66" y="0" type="line"/>
      <point x="97" y="0" type="line"/>
    </contour>
  </outline>
</glyph>
